<?xml version="1.0" encoding="UTF-8" standalone="no"?>
<svg
   xmlns:dc="http://purl.org/dc/elements/1.1/"
   xmlns:cc="http://creativecommons.org/ns#"
   xmlns:rdf="http://www.w3.org/1999/02/22-rdf-syntax-ns#"
   xmlns:svg="http://www.w3.org/2000/svg"
   xmlns="http://www.w3.org/2000/svg"
   xmlns:sodipodi="http://sodipodi.sourceforge.net/DTD/sodipodi-0.dtd"
   xmlns:inkscape="http://www.inkscape.org/namespaces/inkscape"
   xml:space="preserve"
   width="159.24777mm"
   height="147mm"
   shape-rendering="geometricPrecision"
   text-rendering="geometricPrecision"
   image-rendering="optimizeQuality"
   fill-rule="evenodd"
   viewBox="0 0 159247.77 147000"
   id="svg2"
   sodipodi:version="0.32"
   inkscape:version="1.0.2-2 (e86c870879, 2021-01-15)"
   sodipodi:docname="rainbow_poland_bw.svg"
   version="1.1"><metadata
   id="metadata418"><rdf:RDF><cc:Work
       rdf:about=""><dc:format>image/svg+xml</dc:format><dc:type
         rdf:resource="http://purl.org/dc/dcmitype/StillImage" /><dc:title></dc:title></cc:Work></rdf:RDF></metadata><defs
   id="defs416">
  
  
  
  
  
  
  
  
  
  
  
  
  
  
  
  
  
  
  
  
  
  
  
  
  
  
  
  
  
  
  
  
  
  
  
  
  
  
  
  
  
  
  
  
  
  
  
  
  
  
  
  
  
  
  
  
  
  
  
  
  
  
  
  
  
  
  
  
  
  
  
  
  
  
  
  
  
  
  
  
  
  
  
  
  
  
  
  
  
  
  
  
  
  
  
  
  
  
  
  
  
  
  
  
  
  
  
  
  
  
  
  
  
  
  
  
  
  
  
  
  
  
  
  
  
  
  
  
  
  
  
  
  
  
  
  
  
  
  
  
  
  
  
  
  
  
  
  
  
  
  
  
  
  
  
  
  
  
  
  
  
  
  
  
  
  
  
  
  
  
  
  
  
  
  
  
  
  
  
  
  
  
  
  
  
  
  
  
  
  
  
  
  
  
  
  
  
  
  
  
  
  
  
  
  
 </defs><sodipodi:namedview
   inkscape:window-height="1057"
   inkscape:window-width="1920"
   inkscape:pageshadow="2"
   inkscape:pageopacity="0.0"
   borderopacity="1.0"
   bordercolor="#666666"
   pagecolor="#ffffff"
   id="base"
   inkscape:zoom="1.3254193"
   inkscape:cx="477.08044"
   inkscape:cy="253.52302"
   inkscape:window-x="-8"
   inkscape:window-y="-8"
   inkscape:current-layer="g1052"
   inkscape:document-rotation="0"
   showgrid="false"
   inkscape:window-maximized="1"
   showguides="true"
   fit-margin-top="10"
   fit-margin-left="10"
   fit-margin-right="10"
   fit-margin-bottom="10" />
 
<g
   inkscape:groupmode="layer"
   id="g1052"
   inkscape:label="Layer 1"
   style="display:inline"
   transform="translate(10000,10000)"><path
     id="path1042"
     style="fill:#4d4d4d;fill-opacity:1;stroke:none;stroke-width:143.834;stroke-miterlimit:4;stroke-dasharray:none"
     d="m 56532.954,105833.4 c 139.174,278.16 372.688,461.43 740.523,362.77 -15.213,202.23 79.309,400.25 252.183,499.19 78.282,757.81 1200.345,949.2 1390.616,229.45 81.544,9.78 163.563,8.75 241.845,-1.06 l 199.989,-34.63 112.654,-36.17 105.937,91.47 109.553,55.29 31.526,10.85 94.567,72.86 239.261,157.62 167.434,54.26 c 57.623,107.64 155.623,185 279.569,237.19 l 70.279,19.64 36.174,42.37 74.93,69.76 c 165.262,135.92 344.787,155.49 510.049,104.39 50.014,194.62 231.27,376.18 413.928,502.3 l -42.373,42.37 -70.281,34.63 -75.449,44.44 -95.599,81.65 c -208.754,208.75 -164.902,547.14 55.808,716.75 -20.664,204.4 70.329,396.75 236.681,493.51 17.383,171.79 81.683,328.23 206.704,420.65 l -3.096,45.47 c 16.298,201.14 51.832,375.14 216.006,501.27 l 18.601,12.4 -4.128,75.97 -5.688,98.7 c 0,313.13 106.899,573.18 390.673,717.79 l 82.164,35.65 89.403,34.11 3.096,6.19 37.208,54.26 57.362,69.77 c 159.825,172.87 397.963,192.64 616.499,142.62 104.378,468.61 742.716,849.07 1116.732,702.29 -4.339,116.34 32.586,233.69 126.09,335.9 l 70.797,64.08 -3.095,134.87 -1.588,213.94 c 23.918,222.88 67.543,420.98 258.901,550.36 l 2.116,1.05 -3.095,16.54 c -212.014,993.75 439.145,554.55 54.261,1348.24 -111.988,304.43 126.209,646.88 448.035,649.06 l 141.592,-15.51 62.013,-18.6 c 214.189,366.4 845.891,377.4 1066.604,18.6 l 46.509,63.05 6.72,5.69 c -178.308,308.78 -155.512,716.58 73.898,1002.52 l 62.011,64.08 41.341,37.73 c -6.535,111.98 23.469,219.81 82.167,310.05 l -12.912,31.53 c -451.208,1085.08 934.005,1491.74 1620.06,804.6 l 79.582,-99.22 20.664,13.44 23.786,31.53 44.442,55.29 c 171.786,178.31 380.868,230.35 621.15,159.68 l 89.919,-38.76 65.112,-37.21 71.829,-45.47 146.762,-35.14 218.591,-44.44 48.059,-4.13 c 496.875,-52.19 800.324,-282.78 740.525,-803.57 358.795,-40.23 447.93,-366.59 450.102,-728.64 l -27.387,-316.26 -28.421,-252.18 1.058,-57.88 c 83.72,-66.32 152.419,-138.84 194.821,-225.82 148.953,-56.53 262.134,-178.62 301.274,-328.67 l 51.16,-11.88 168.466,135.91 c 271.812,194.61 609.826,101.27 807.705,-139.01 405.544,-46.75 496.725,-384.72 463.022,-745.69 91.329,-21.75 174.147,-51.2 257.866,-113.17 381.615,-383.8 678.594,-174.17 1074.353,87.85 l -3.624,59.94 -10.848,245.47 c 8.705,264.2 34.88,450.23 228.412,625.28 3.255,200.05 67.411,350.27 219.623,488.35 l 33.592,22.72 6.72,96.64 12.912,190.17 c 40.227,217.45 103.191,423.12 326.079,509.01 l 44.958,12.91 30.488,55.81 46.508,71.32 c 210.929,271.81 454.661,191.45 697.118,332.79 -276.162,430.56 -14.129,955.77 512.115,929.66 102.201,119.61 257.559,184.91 420.646,176.22 l 115.24,159.68 79.581,41.35 c 275.075,160.91 667.548,159.05 837.159,-142.11 126.122,-295.74 14.156,-215.4 208.773,-321.95 l 5.159,13.94 c 89.154,295.73 -53.012,779.55 -57.361,1077.46 -4.34,281.6 -91.644,937.53 194.302,1175.64 3.254,20.64 6.509,38.83 10.848,58.39 l -17.039,7.76 c -310.955,153.3 -453.516,466.22 -426.332,798.92 l 9.816,70.79 5.159,42.38 -68.212,69.76 c -440.336,514.27 6.376,1514.51 714.167,1140.5 l 29.456,39.28 c 351.183,464.25 976.201,361.67 1289.331,-97.16 307.692,-27.17 426.461,-328.2 549.321,-578.25 l 19.129,-36.7 c 130.469,145.69 317.906,193.45 514.698,179.32 l 56.327,-8.78 2.117,-1.06 5.688,2.12 44.443,22.72 30.488,20.67 6.72,5.69 13.944,41.34 40.306,118.34 90.951,174.15 c 84.807,111.98 196.147,204.03 315.744,279.05 l 76.996,37.21 v 32.55 c 25.003,246.81 218.734,396.62 445.97,454.24 609.947,153.31 912.973,-349.94 800.985,-881.6 l -19.632,-78.03 -10.848,-52.2 -1.058,-10.85 127.124,-513.66 -25.85,-185.52 162.78,-143.66 c 368.579,-397.93 489.607,-515.35 422.197,-1045.93 316.392,-51.1 627.474,-387.1 729.674,-668.7 193.53,-26.09 344.473,-159.81 401.009,-334.86 l 27.39,-1.06 188.1,14.98 169.501,25.32 10.848,8.78 44.439,35.66 68.731,53.22 c 692.58,474.04 958.849,-289.33 964.284,-865.58 l -5.689,-206.19 c 76.108,-2.11 150.093,-14.26 218.592,-39.27 369.663,395.75 954.557,164.1 1235.069,-291.46 90.242,61.98 199.266,93.71 307.992,90.44 147.865,220.72 397.976,394.24 637.17,447.52 214.189,591.46 1281.555,535.16 1459.863,-67.18 l 25.321,-114.21 5.159,-69.76 c 343.57,251.15 815.617,-35.4 1031.98,-417.03 29.356,95.68 73.721,180.13 140.042,247.53 -81.542,365.31 112.136,678.51 499.196,730.7 l 24.791,1.06 c 70.67,138.09 160.859,232.73 304.375,302.31 l 67.696,24.79 40.309,11.38 -2.645,47.54 1.587,85.78 c 50.012,555.58 665.04,704.82 1042.315,402.56 70.673,85.9 164.193,150.84 292.49,183.46 l 14.472,3.62 c 64.146,617.56 987.073,768.6 1289.331,315.23 392.497,34.78 682.917,-245 593.763,-662.5 l -23.257,-69.24 19.632,-30.49 48.062,-53.23 c 153.289,-157.65 392.272,-167.54 558.621,-301.27 197.88,76.1 426.393,40.24 613.401,-63.05 751.291,-412.07 266.613,-1079.6 -234.612,-1370.98 187.008,-60.89 376.913,-71.55 550.874,-160.71 l 18.6,28.94 c 147.866,259.85 212.194,536.14 509.015,677.48 563.195,269.64 1178.324,-68.21 1207.679,-674.9 l 1.059,-66.66 1.058,-32.56 6.72,-9.81 38.241,-42.38 64.079,-60.98 206.191,-197.92 c 223.98,183.75 523.161,136.22 801.501,109.04 l 16.536,40.31 c 115.25,252.25 365.28,351.81 628.39,322.46 l 67.18,-12.91 h 3.62 l 16.01,10.85 -1.06,5.68 c -11.96,943.74 1201.4,328.06 1548.23,16.01 l 25.83,-24.79 18.6,5.16 74.93,24.29 c 244.63,59.79 484.9,41.09 669.73,-131.78 296.82,296.82 671.21,277.31 923.46,-1.06 188.09,347.93 398.66,637.18 854.21,501.27 l 45.99,-17.57 c 143.51,141.34 260.62,241.52 445.45,331.76 l 78.55,26.36 1.06,44.44 24.79,187.07 c 144.6,450.11 451.31,984.74 960.15,602.03 l 118.86,-113.17 89.91,-140.05 102.32,-284.73 92.5,96.63 328.15,153.48 h 115.24 l 21.69,56.33 c 63.07,141.34 161.95,278.16 304.38,348.81 193.53,97.86 546.82,-41.2 691.43,102.32 l 20.66,21.7 8.79,11.88 -10.85,81.65 -5.16,83.71 c -2.12,259.86 100.79,467.8 309.55,622.19 l 67.69,44.44 73.9,43.41 13.94,32.56 43.41,71.82 c 51.1,77.2 122.11,135.07 202.57,173.12 35.88,184.84 172.91,340.35 365.35,386.02 l -77.51,88.89 c -369.67,541.45 -278.14,1284.97 498.16,1184.94 100.02,173.96 292.64,257.69 488.34,240.3 165.26,197.87 514.24,203.74 784.97,190.68 l 27.9,-1.58 80.62,26.35 11.88,7.75 3.1,10.85 31.52,79.06 c 168.53,301.17 441.88,346.77 691.95,231.52 66.32,346.83 242.49,597 668.69,656.81 l 194.31,7.75 94.57,-5.69 16.53,30.49 433.57,232.03 92.5,-9.82 c 109.81,2.12 217.63,-39.46 320.91,-77.51 l 134.88,-57.37 84.75,-51.16 84.74,287.84 52.2,100.26 c 295.73,540.36 609.59,633.61 1094.51,465.08 257.68,365.33 575.54,385.11 1059.37,215.49 l 129.19,-52.19 51.16,-10.85 c 694.76,-16.29 249.06,-399.22 667.66,223.76 l 225.83,214.46 c 490.35,469.69 1105.89,1178.39 1649.51,599.97 198.97,217.45 498.03,293.82 762.23,78.54 l 40.3,-36.17 12.92,13.44 5.69,-4.65 97.66,164.33 177.25,258.9 121.96,102.83 c 282.68,231.58 732.5,563.43 1125,392.75 756.73,-328.35 336.1,-1110.27 143.66,-1607.14 l -16.54,-54.27 -3.09,-30.49 4.12,-2.11 187.08,-103.35 45.99,-46.51 c 564.28,-538.2 -460.02,-1316.97 -876.44,-1458.31 l -179.31,-43.42 -95.61,-9.81 -16.53,-66.15 -38.24,-125.05 c -98.94,-264.2 -312.73,-558.76 -624.77,-545.71 40.23,-136.99 32.23,-297.95 -13.44,-438.21 l -54.26,-120.93 c -377.27,-662.14 105.31,-832.66 159.68,-1603.52 50.01,-708.88 204.87,-1904.8 -333.32,-2459.29 l -86.3,-74.93 -109.55,-62.01 c 92.41,-491.43 243.38,-1272.33 -185,-1658.3 l -83.72,-62.01 -4.13,-2.12 4.13,-55.29 -238.23,-534.85 c -55.45,-93.52 -293.18,-154.73 -394.29,-234.1 l -56.85,-57.36 528.66,-916.74 565.34,-813.39 321.94,-446.49 c 298.99,-418.59 581.74,-641.46 521.93,-1140.5 l -11.37,-62.01 34.11,-1.06 c 110.9,-5.45 322.54,11.72 414.96,-57.87 712.15,-547.97 1896.59,-2071.11 1863.97,-3056.15 l 5.16,-92.51 5.69,-26.35 438.22,-216 385.5,-258.91 611.34,-816.49 c 270.73,-359.87 638.31,-736.08 719.85,-1202.51 l 8.25,-70.8 5.69,-39.27 38.24,-36.69 112.66,-78.55 161.23,-104.38 c 76.72,-59.02 182.54,-153.53 278.54,-227.9 z" /><path
     id="path1193"
     style="fill:#666666;fill-opacity:1;stroke:none;stroke-width:143.834;stroke-miterlimit:4;stroke-dasharray:none"
     d="m 55789.328,105833.4 c 188.432,66.17 366.592,88.31 525.033,0 z" /><path
     id="path1191"
     style="fill:#666666;fill-opacity:1;stroke:none;stroke-width:143.834;stroke-miterlimit:4;stroke-dasharray:none"
     d="m 51471.754,105833.4 c 203.618,270.85 637.155,303.07 933.277,211.87 l 125.058,-57.88 60.979,-31.52 35.655,2.65 60.979,2.11 81.65,-3.09 c 110.39,-18.1 204.944,-62.47 283.703,-124.03 z" /><path
     id="path1189"
     style="fill:#666666;fill-opacity:1;stroke:none;stroke-width:143.834;stroke-miterlimit:4;stroke-dasharray:none"
     d="m 51471.754,105833.4 h 1581.301 c 63.196,-49.39 118.269,-107.76 147.796,-188.11 46.752,-23.91 91.245,-51.35 127.125,-89.4 l 134.874,-179.31 11.88,-23.79 22.728,4.13 c 242.457,27.18 500.5,-11.78 630.972,-233.58 l 55.292,39.27 c 232.673,131.55 428.489,109.54 573.094,5.16 69.583,114.15 175.829,212.13 298.689,269.75 l 171.051,69.25 108.519,27.39 35.658,54.26 c 115.051,139.85 269.558,192.61 418.579,244.94 h 525.033 c 51.361,-28.62 106.653,-49.6 148.312,-95.6 14.605,41.52 51.488,58.04 70.282,95.6 h 68745.291 c 346.15,-268.16 738.68,-601.6 742.08,-1002.52 150.04,-106.55 217.83,-289.13 233.06,-482.66 l 1.06,-63.04 v -7.76 l 44.44,-57.87 128.16,-126.09 166.39,-170.54 c 165.27,-209.84 244.63,-369.51 251.15,-630.45 l -2.11,-76.48 -1.06,-26.87 14.97,-6.72 53.23,17.56 87.33,26.88 c 866.54,178.31 1565.46,-1202.42 1938.39,-1779.74 l 148.83,-274.92 131.77,-222.73 119.38,-142.63 30.48,-6.72 68.74,-8.25 c 325.08,-45.67 518.79,-128.48 760.16,-373.11 l 156.58,-201.02 110.58,-143.66 57.88,-52.19 34.63,-2.12 76.99,-1.06 c 338.13,-13.04 741.86,-153.381 746.21,-563.272 l -9.81,-139.01 -24.29,-103.352 -31.52,-93.535 13.44,-33.589 23.78,-50.128 21.7,-39.272 8.78,-11.88 295.59,-241.33 149.87,-128.672 71.83,-20.162 c 204.4,-82.629 392.72,-126.584 539.5,-304.89 226.15,-273.987 37.11,-790.222 311.09,-1018.545 282.69,-237.019 681.26,-155.318 981.34,-358.635 l 71.83,-57.878 44.96,-46.509 25.85,-5.688 163.29,-17.066 889.36,-17.568 131.26,-31.523 176.21,-62.013 c 417.5,-248.978 964.62,194.541 1397.34,-124.023 l 532.78,-624.252 408.76,-651.125 79.07,-26.871 62.01,-36.174 c 145.69,-95.679 158.94,-233.754 194.82,-387.057 225.06,-951.345 882.56,-2263.761 423.75,-3187.926 -232.68,-465.342 -138.7,-1070.908 -469.22,-1475.364 l -24.29,-23.786 22.72,-39.273 c 291.38,-562.111 -18.33,-1000.33 -630.45,-1013.377 l -58.39,1.058 v -19.129 l 27.9,-33.073 59.95,-75.965 c 289.21,-472.954 -81.67,-821.903 -541.57,-911.057 l -87.85,-13.944 -62.02,-10.848 -29.45,-7.752 -137.98,-82.682 -89.4,-60.976 6.72,-26.874 21.7,-55.809 c 68.49,-133.734 172.98,-282.777 301.27,-364.321 l 70.8,-29.972 77,-17.569 h 41.34 l 8.78,5.16 45.48,39.272 64.08,57.878 c 591.47,471.866 1124.49,104.396 1668.11,-230.477 201.15,-123.947 454.53,-131.842 574.13,-371.036 222.89,-445.774 -239.28,-783.838 -615.47,-890.389 -810.88,-228.955 -1314.1,-624.656 -1762.17,-1319.818 H 15975.142 c -264.241,299.157 -366.539,826.327 -49.61,1054.719 v 151.929 c 29.356,193.53 64.05,311.341 190.17,452.684 l 65.112,58.397 27.389,20.664 6.718,56.327 c 57.624,306.605 374.038,430.936 648.023,484.21 l 133.326,23.759 70.797,5.689 -1.032,19.129 39.274,203.606 c 23.918,69.582 72.976,128.055 122.99,182.417 l 26.872,315.228 51.16,637.171 25.839,53.226 c 256.591,831.746 1055.756,184.894 1327.57,-252.18 l 4.651,3.625 c 273.987,197.879 558.527,494.364 884.703,424.781 214.188,292.468 737.187,225.047 1055.751,198.954 l 134.876,-17.039 18.603,-1.059 47.025,66.146 c 111.988,136.994 280.278,212.035 454.237,208.773 89.155,108.725 223.883,177.11 378.273,169.5 127.207,621.907 1101.363,577.452 1496.035,238.229 l 26.355,-25.321 69.247,6.721 c 135.906,-3.255 254.562,-40.402 363.286,-101.288 -27.181,222.888 -14.219,429.689 127.124,623.219 l 64.079,71.832 58.911,52.192 5.168,5.159 13.435,170.016 26.872,156.581 c 145.691,638.216 760.206,643.624 1313.618,481.625 l 88.883,-101.286 49.093,-59.944 3.101,-1.058 86.302,2.117 304.374,-118.338 94.568,104.386 18.6,23.76 3.096,37.208 c 15.213,84.804 52.197,163.227 104.386,227.375 -102.201,140.256 -141.513,307.243 -101.285,458.371 -312.043,450.123 288.285,1150.696 655.773,1362.71 566.458,326.176 1019.593,-393.513 1040.249,-890.386 l -4.128,-77.515 -6.72,-52.194 -3.096,-22.728 35.658,-102.32 78.547,-152.964 47.543,-15.504 57.878,-19.632 72.864,-30.488 c 58.711,-30.443 111.895,-66.173 158.647,-107.488 22.833,8.705 44.863,17.648 67.696,26.353 l 98.701,19.129 99.219,16.537 74.932,96.636 127.125,150.379 c 394.672,355.53 1133.673,345.383 1219.565,-275.437 98.941,-63.061 161.01,-151.993 196.887,-255.281 231.585,179.396 604.805,186.839 862.483,34.624 l 193.27,281.636 111.104,103.352 76.997,57.361 19.632,16.537 10.848,39.275 17.568,60.978 26.874,78.031 c 104.376,220.711 363.454,443.422 632.004,505.398 195.705,231.572 -376.119,181.642 -367.42,730.704 -155.477,109.813 -238.528,309.78 -190.688,514.182 l 5.688,17.568 -119.372,122.989 -105.937,196.887 -6.191,16.034 -15.504,-23.759 c -282.685,-368.579 -790.164,-234.953 -883.668,221.692 l -7.753,84.749 -1.058,31.522 -11.88,-1.058 c -280.512,-6.535 -500.113,96.824 -617.536,354.503 l -6.72,19.632 -40.307,18.6 c -160.915,88.067 -222.872,234.445 -282.671,405.144 l -21.696,98.184 c -886.109,155.478 -356.709,1476.196 294.556,1584.921 l 78.547,3.625 14.976,-1.058 v 13.943 c 16.298,288.119 64.429,578.137 318.844,758.61 403.372,285.949 659.727,2.381 977.204,-192.236 -13.044,332.698 136.216,600.213 412.378,825.274 -36.965,453.383 431.663,538.058 783.935,399.977 l 22.728,18.6 c -20.664,214.191 111.041,412.102 311.092,480.593 36.968,315.309 134.412,573.112 436.667,750.344 l 153.48,80.097 c 34.793,245.724 162.949,474.114 431.499,511.084 l 44.958,2.11 17.066,15.51 147.794,164.33 53.226,48.58 -14.975,39.27 -49.091,127.12 c -178.311,424.02 -200.023,1015.84 313.158,1248.51 l 6.721,2.11 22.728,51.16 92.501,141.08 362.252,382.92 310.577,317.3 15.504,31.52 30.488,58.91 55.296,78.03 c 98.938,123.94 252.357,186.15 405.66,183.97 253.328,489.26 1040.179,268.64 1323.953,-74.93 l 48.059,-75.45 28.422,-57.36 27.906,-65.11 136.943,-202.57 116.271,-147.8 44.958,-26.87 90.951,-54.78 125.058,-97.67 c 317.477,-358.79 676.348,-512.98 563.273,-1091.4 l 40.309,-34.11 242.362,-165.88 86.299,31.52 c 474.044,207.67 759.708,-85.15 946.715,-474.39 l 106.453,33.59 c 213.101,54.37 407.851,-0.53 562.241,-123.51 113.075,100.03 247.817,171.33 398.945,186.56 546.887,54.35 965.352,-717.53 588.077,-1130.687 l -60.46,-58.394 29.972,-28.422 c 378.363,-432.732 85.006,-1234.066 -464.056,-1327.57 -84.805,-180.484 -283.973,-287.807 -498.161,-278.02 l -1.059,-39.275 c -23.918,-177.221 -52.022,-341.734 -170.532,-453.721 -31.53,-128.294 -116.422,-233.509 -228.41,-297.657 l 17.568,-186.034 c -5.45,-358.792 -164.364,-645.492 -477.491,-728.122 -14.129,-25.003 -30.094,-49.054 -48.575,-70.797 33.702,-59.799 55.165,-120.91 68.212,-183.968 107.638,101.113 260.102,156.652 444.935,144.693 l 20.664,-3.096 c 270.727,342.486 645.87,68.522 940.513,240.295 l 50.644,32.557 79.582,62.014 75.965,59.428 19.632,26.352 36.174,47.541 62.01,63.563 c 205.492,191.355 507.705,139.957 764.296,131.258 h 46.508 2.117 v 1.058 l 30.488,45.993 44.442,69.244 c 212.014,293.558 658.986,495.663 1012.343,368.454 105.463,493.613 600.065,1026.562 1068.67,1052.652 163.089,219.631 517.69,322.025 823.208,278.536 8.704,60.88 24.183,118.295 47.027,171.566 -200.055,546.893 450.779,1229.659 886.768,690.4 l 53.743,-82.682 32.557,-3.096 48.575,1.059 72.866,108.521 c 334.863,506.647 1003.514,665.407 1328.603,125.058 381.625,97.838 937.23,138.375 1254.707,-99.737 327.261,206.582 735.979,129.262 1037.147,-102.32 l 110.07,-117.306 c 931.774,80.452 -237.12,186.918 713.138,786.002 l 100.251,46.51 c 32.618,11.96 70.355,9.07 58.396,44.96 l -2.117,5.16 c -83.717,8.7 -166.362,36.23 -240.295,87.33 l -68.212,58.39 -54.777,68.73 c -47.839,92.42 -90.263,112.83 -208.775,213.94 l -111.62,103.36 -52.195,81.65 -118.856,7.75 -192.236,12.91 c -173.959,25 -335.048,57.38 -456.82,182.42 -723.023,-118.51 -933.769,746.01 -453.203,1178.74 l 69.763,55.29 78.031,60.98 v 5.69 l 13.944,77 c 33.705,143.52 124.314,260.9 243.911,325.05 179.396,460.99 706.603,946.91 1131.718,534.85 l 139.01,154.51 58.91,35.66 c 14.128,114.17 47.828,216.57 115.239,299.2 -15.214,207.67 96.692,377.17 231.511,525.04 2.117,214.19 47.691,429.62 243.396,551.39 l 34.107,18.6 20.664,54.26 c 88.067,191.36 301.867,302.44 509.531,278.53 l 51.16,-7.75 -1.059,25.85 c 10.875,231.58 95.698,403.64 292.49,517.8 l 19.632,51.16 c 15.901,35.64 48.122,54.24 70.281,83.72 z" /><path
     id="path1166"
     style="fill:#666666;fill-opacity:1;stroke:none;stroke-width:143.834;stroke-miterlimit:4;stroke-dasharray:none"
     d="m 10612.668,84666.688 c -35.886,53.774 -87.121,94.107 -118.856,171.567 l -24.289,108.003 -212.908,212.908 -317.2934,284.737 -82.6825,81.648 c -216.3634,282.687 -405.5491,1146.13 167.4319,1230.937 l 631.487,-59.944 c 127.209,-388.15 463.051,70.81 640.273,7.752 558.847,363.141 1487.301,205.304 1569.933,-561.206 l -6.202,-91.467 31.523,-25.85 c 191.356,-185.92 275.99,-469.808 118.339,-709.003 l -50.126,-65.111 c 94.971,-140.393 141.315,-357.072 162.264,-584.979 z" /><path
     id="path1164"
     style="fill:#808080;fill-opacity:1;stroke:none;stroke-width:143.834;stroke-miterlimit:4;stroke-dasharray:none"
     d="m 10612.668,84666.688 h 2508.896 c 39.728,-432.208 -50.358,-917.458 -343.65,-1088.308 54.363,-29.355 106.459,-63.232 158.647,-101.285 l 104.387,-96.637 35.14,-41.341 29.972,-15.504 23.255,-10.848 82.682,54.777 156.063,56.327 170.016,75.964 21.704,9.816 c -51.1,682.794 764.01,827.632 1135.85,372.072 187.007,366.403 665.746,483.606 997.357,171.566 l 9.819,15.505 116.272,153.998 116.272,109.038 39.275,30.488 c -2.17,76.108 13.999,150.149 44.441,217.559 -23.608,20.611 -22.616,62.693 -43.925,86.816 H 136811.93 c -11.53,-17.886 -26.78,-25.109 -38.24,-43.408 l -96.11,-128.675 -69.25,-80.098 -28.42,-36.173 -6.72,-49.61 -2.12,-125.058 -4.13,-189.654 c -75.02,-500.135 -278.56,-617.134 -706.93,-803.052 l -6.19,-19.632 -20.67,-56.846 -26.35,-63.045 c -215.27,-582.764 386.3,-1219.768 -393.26,-1634.011 l -202.57,-86.816 c -32.62,-131.559 -87.83,-236.932 -182.42,-326.078 l 3.1,-6.72 5.69,-8.785 46.51,-34.623 71.83,-78.547 55.29,-88.884 c 269.64,-531.666 -391.18,-1195.202 -861.96,-1290.881 -5.45,-463.167 -455.66,-512.96 -772.05,-694.533 l -116.27,-66.146 -20.67,-15.504 7.76,-32.557 c 20.66,-203.315 -28.41,-394.551 -175.19,-504.363 l -3.09,-78.547 -16.54,-222.727 c -110.9,-571.893 -711.02,-1231.784 -1339.46,-1110.011 l -13.94,-66.146 c -63.06,-636.044 735.64,-941.998 667.14,-1581.302 251.16,-120.687 430.82,-382.48 298.18,-673.863 l -68.73,-119.372 -59.43,-74.415 -66.66,-68.212 -6.19,-19.632 -30.49,-116.274 -27.39,-83.714 c -66.32,-165.262 -176.04,-306.407 -326.08,-380.34 217.45,-326.176 -131.35,-910.269 -464.06,-1083.14 l -37.2,-17.568 6.72,-60.46 c 40.23,-554.499 -239.54,-793.953 -673.35,-852.664 132.64,-344.658 6.83,-811.19 -382.4,-907.957 l -30.49,-5.159 -8.79,-28.422 -18.6,-84.751 -113.17,-562.241 -17.06,-377.238 42.37,-31.523 c 566.45,-467.517 450.91,-1496.256 -56.84,-1983.344 l 17.57,-29.972 32.56,-64.596 c 1168.8,100.026 1856.07,-1560.15 865.58,-2228.809 l -60.98,-40.31 -20.67,-16.007 -21.69,-85.783 -6.72,-90.435 27.38,5.688 c 777.4,81.543 931.63,-854.886 494.55,-1322.403 61.01,-68.45 97.79,-152.405 120.41,-241.329 H 8016.4386 c -44.9153,78.369 -122.9241,136.927 -123.507,232.545 -66.3222,41.315 -121.5731,96.922 -160.7141,164.33 -213.1011,69.583 -354.7029,285.021 -329.6963,519.865 l 15.502,89.919 -18.6029,24.289 -33.5897,30.491 -47.0256,-6.721 c -1043.7611,-7.62 -1114.2076,2058.338 -119.3728,1942.003 53.2753,155.478 142.3818,294.575 272.8521,367.42 l -9.8187,264.068 -16.5365,354.5 c 4.3497,294.646 5.6859,562.156 225.3095,773.082 167.4366,160.912 581.5948,516.492 869.7163,689.366 23.9184,156.564 121.7446,293.217 261.9999,372.587 l -7.7523,176.218 -13.9515,252.18 c 3.2623,177.221 5.252,355.934 97.6685,504.879 l -147.7947,96.636 -40.3078,25.85 c -190.2691,123.945 -380.493,264.597 -408.7614,504.879 v 5.16 l -9.8187,6.72 c -251.1541,253.328 -261.0347,717.271 22.7383,936.897 -44.5773,614.295 511.2404,769.007 1030.9468,736.389 l 67.1797,-6.72 39.2741,-2.117 h 3.1009 l 68.7296,48.575 102.3196,110.073 129.1913,160.713 c 196.7924,225.06 335.1048,328.407 591.6968,354.5 117.423,185.921 337.932,220.727 547.771,240.295 l 224.276,-3.095 94.568,-2.117 c 64.148,109.813 163.859,187.881 278.02,223.761 26.093,56.536 60.789,109.916 106.453,165.365 l 16.537,14.975 9.819,577.743 22.738,796.853 22.738,94.567 c 17.397,81.545 77.371,153.022 153.48,204.124 l -10.854,203.605 -11.885,314.194 c 7.612,250.066 58.488,635.8 338.998,705.383 30.443,63.061 71.621,120.713 128.158,177.25 l 5.683,5.688 v 22.728 c 16.309,235.932 210.035,430.338 445.969,443.384 l 16.021,99.219 -7.753,172.599 -12.919,27.39 -49.093,90.432 -59.428,152.964 -59.945,351.399 -20.672,92.501 -57.361,37.724 c -191.356,148.953 -204.565,375.26 -216.524,603.582 l 5.167,265.1 5.683,216.525 -8.784,106.455 -35.657,38.241 c -158.738,192.442 -182.881,357.434 -183.968,611.85 l 22.738,224.274 15.502,162.783 -1.032,28.421 -30.489,26.353 c -184.832,180.483 -224.008,354.312 -229.444,619.602 l 17.053,221.693 7.752,87.849 c -138.081,95.679 -201.141,243.963 -219.625,410.312 -167.437,109.813 -230.283,321.644 -223.76,536.92 l 5.168,50.125 -19.638,17.039 c -200.054,198.967 -233.7,430.989 -168.465,702.801 l 6.717,22.728 c -109.812,91.329 -182.961,192.434 -224.276,334.865 l -13.951,69.245 -6.718,51.159 v 4.657 l -16.021,19.632 -37.207,51.16 c -73.933,121.772 -91.07,223.804 -109.554,369.486 l -4.651,139.013 -1.032,28.421 -49.61,33.589 c -63.176,52.189 -84.79,120.264 -121.44,175.184 z" /><path
     id="path1141"
     style="fill:#999999;fill-opacity:1;stroke:none;stroke-width:143.834;stroke-miterlimit:4;stroke-dasharray:none"
     d="M 8016.4386,63499.979 H 131975.01 c 26.95,-105.992 31.56,-220.16 2.65,-338.998 l -23.79,-69.763 104.39,-112.138 c 358.78,-435.987 955.36,-1328.299 205.15,-1711.011 l -73.89,-30.488 v -65.114 c -22.84,-588.197 -50.91,-1105.736 -380.34,-1621.092 -263.12,-413.156 -899.27,-920.3 -1399.4,-649.575 l -86.82,-146.759 -174.15,-151.93 -71.83,-42.375 c 126.12,-84.807 211.21,-218.499 235.13,-377.239 126.12,-808.915 -1326.36,-1147.021 -1727.55,-565.341 -374.02,-520.794 -1579.92,-1361.165 -2068.1,-670.76 l -12.91,22.728 -2.64,-4.657 -46.51,-53.226 c -168.53,-164.175 -362.26,-202.362 -581.88,-258.898 l -5.16,-1.059 30.49,-59.428 c 121.77,-327.261 135.74,-667.68 -80.62,-960.151 l -42.37,-47.024 -4.13,-5.16 -4.65,-56.843 -33.59,17.568 -69.77,36.174 83.72,-96.118 185,-216.009 101.29,-125.055 1952.34,-3050.983 c 479.48,-806.743 1221.97,-1461.442 1915.65,-2077.914 399.02,-355.53 927.87,-405.224 1382.34,-665.077 351.18,-202.229 820.77,37.798 1131.72,-277.504 765.43,519.707 1266.38,-282.334 1793.69,-791.166 441.43,-424.027 927.84,-489.615 1236.62,-1049.551 l 10.85,-19.632 91.99,-83.715 141.59,-102.838 42.37,-14.473 67.18,-28.424 92.51,-57.359 c 252.23,-181.571 242.43,-616.248 261.99,-861.967 43.49,-576.242 357.66,-2047.487 -354.5,-2370.401 l -38.75,-13.944 -11.88,-542.606 75.44,-799.414 H 448.92664 c 10.01503,178.362 41.2385,345.674 189.6529,458.889 l -97.66865,63.045 -205.67262,134.875 c -676.27013,577.33 -258.434007,1585.365 621.15196,1429.89 132.64467,206.577 364.24597,257.498 595.83047,233.577 17.3961,202.23 155.488,342.38 324.0118,441.318 264.202,155.478 535.669,520.093 843.361,620.119 85.8929,145.69 246.7739,242.221 429.432,234.612 l 21.7039,28.421 106.9704,137.978 c 95.678,103.283 189.2132,192.509 313.1599,239.261 68.4968,128.296 196.6019,223.041 348.8165,248.047 h 8.7842 c 60.886,201.142 73.5985,403.207 205.1557,526.067 29.3558,349.007 284.8488,570.57 638.2053,537.954 8.6969,372.926 397.2833,506.641 702.8009,586.011 223.9737,58.711 199.8275,237.118 422.714,332.796 l 301.2742,-26.871 157.6134,239.779 -20.6719,-9.313 92.5009,150.898 120.4063,136.94 155.5465,94.57 98.1855,34.624 c 22.8309,190.267 125.8913,354.926 286.8046,429.949 l -1.0319,16.007 -59.9449,22.728 c -518.6187,253.328 -408.4762,1201.811 -37.7238,1603.005 -136.9936,86.982 -240.7565,219.47 -325.5622,358.635 l -34.6232,78.031 c -72.8458,35.881 -133.5993,89.279 -180.3512,154.515 -194.6173,22.833 -351.2981,156.768 -405.6608,330.73 -117.4228,117.422 -162.9217,309.732 -170.5325,483.691 l 16.0206,167.434 c -325.0881,257.678 -303.4171,928.533 11.8851,1170.99 l 15.5019,9.816 1.0319,101.285 4.1355,201.023 c 21.7461,177.215 88.5641,388.046 230.9941,493.51 29.3556,96.766 81.291,180.348 161.7475,264.067 l 44.4419,38.241 2.0638,20.664 -2.0638,160.713 -3.1009,219.626 c 14.1341,198.967 35.7262,394.974 191.2031,527.617 35.8794,296.821 373.8959,395.421 640.2723,372.59 l 26.3552,-3.096 c 56.5371,63.059 117.5721,125.977 195.8542,159.679 l 198.9547,58.913 135.9093,8.784 64.0788,1.058 160.714,48.575 74.931,38.24 9.8187,9.816 c 10.8717,8.705 18.4415,20.532 21.7038,33.592 l 5.6832,14.473 16.0206,136.943 -11.8851,105.421 -19.6374,22.728 -38.7576,46.508 c -231.5844,308.777 -282.5724,876.709 50.1262,1143.084 l -16.5365,7.224 c -465.3435,247.893 -562.9736,901.582 -255.2821,1323.437 l 58.3947,62.011 31.5225,25.85 6.7178,29.456 22.7383,70.797 c 105.4634,241.364 379.4321,511.152 669.7279,582.91 20.6587,30.443 44.7036,58.711 70.7968,83.717 -118.5097,135.906 -138.2244,313.987 -143.6605,506.43 l 21.7038,218.591 7.7523,83.717 -23.7702,12.912 c -145.6915,89.148 -243.7318,239.416 -257.8658,403.593 -387.0613,256.588 -302.435,961.146 -69.7634,1338.421 -58.7114,83.717 -86.8499,185.884 -96.6353,293.522 -67.5646,42.354 -68.1271,133.247 -106.9702,201.023 z" /><path
     id="path1118"
     style="fill:#b3b3b3;fill-opacity:1;stroke:none;stroke-width:143.834;stroke-miterlimit:4;stroke-dasharray:none"
     d="M 448.92664,42333.27 H 135823.88 l 2.65,-25.85 43.4,-392.74 73.9,-276.987 44.96,-30.488 72.35,-53.227 c 651.26,-544.714 87.07,-1540.584 -294.56,-2061.378 -223.97,-305.518 -120.66,-682.772 -450.1,-973.068 l -67.18,-59.944 v -1.058 l 42.37,-54.261 c 36.97,-58.711 73.72,-119.605 87.85,-188.103 l 24.29,-209.808 -6.72,-111.104 136.94,-136.943 c 119.61,-169.609 378.52,-539.383 436.15,-740.522 152.21,-538.19 -391.59,-650.064 -697.11,-912.092 l -159.68,-144.693 -85.79,-65.115 -2.64,-12.911 -2.12,-166.397 -8.78,-233.061 c -76.11,-493.613 -455.12,-704.341 -782.39,-1039.217 l -101.28,-94.568 -54.26,-45.474 -4.66,-25.32 -5.16,-110.588 -4.65,-163.296 c -133.74,-1120.957 -797.7,-1403.417 -811.84,-2347.15 -96.76,-757.813 -520.93,-1461.297 -834.06,-2153.877 -251.15,-557.758 -65.53,-1366.866 -559.14,-1795.244 l -50.64,-40.306 -67.7,-501.262 -78.03,-703.32 -136.95,-356.567 c -113.07,-330.524 -283.99,-578.404 -267.68,-941.546 25,-566.458 145.63,-1065.666 -322.98,-1482.083 -107.63,-95.678 -292.41,-165.132 -335.9,-316.261 -170.69,-592.551 467.42,-1009.942 54.27,-1654.682 l -72.87,-84.75 -1.06,-1.561 -51.16,-274.919 -51.6,-184.967 H 7444.8959 c -66.9628,104.66 -141.1354,200.968 -195.854,318.844 l -108.5206,289.388 -63.0454,192.237 -19.6374,54.26 -65.1125,59.945 -57.8777,56.328 -68.2131,83.716 c -156.5638,212.013 -129.544,476.263 3.1009,689.365 l 45.9921,64.078 25.8392,34.107 -2.0637,42.375 c -91.3291,748.028 -258.799,381.305 -972.0356,884.702 l -34.6232,193.787 -35.1402,224.793 -4.1354,205.673 1.0319,25.839 -26.3552,43.925 -30.4891,49.61 -34.6234,68.729 c -68.4968,167.436 -68.2077,443.358 -16.0206,705.385 -415.3297,-116.336 -899.5407,-145.37 -1143.0848,-225.827 l -26.872,-17.571 -44.9583,-38.24 -33.59,-31.523 -13.9515,-27.905 -28.4221,-53.227 -45.4754,-71.831 c -111.9867,-135.906 -257.8946,-228.41 -435.1163,-228.41 -82.6312,-217.45 -162.7355,-493.843 -351.9172,-591.696 -353.3568,-914.378 -1017.0207,-304.077 -1277.9607,-132.292 l -18.0869,120.406 -2.593,33.59 -52.1934,53.744 c -170.6984,215.276 -161.852,461.748 -23.7702,644.406 -106.5505,92.416 -168.1764,228.352 -184.485,396.876 l 3.1009,99.219 8.7842,73.897 9.8187,66.146 -15.502,32.557 -51.1597,117.305 -40.3016,204.639 c -10.8718,80.456 20.8042,180.584 59.9446,249.081 l 44.4419,70.28 v 1.561 l 1.0319,2.064 1.561,130.225 4.1355,91.467 c 29.3558,304.433 174.0355,507.567 427.3648,672.829 l 76.9981,45.992 29.4556,17.039 41.3413,395.844 -33.5898,310.058 c -353.3565,216.364 -386.2556,841.245 -15.5019,1061.952 l -1.0319,6.721 c -3.2623,425.115 306.9493,777.39 641.8225,1014.409 l -6.7178,81.648 -17.571,213.943 c 1.0848,204.401 9.8558,393.489 155.5465,545.704 l 43.4081,40.306 17.571,359.152 30.4891,605.651 16.0206,67.178 c 13.0466,73.932 66.7013,142.579 128.6745,195.855 l -8.7842,118.338 -9.8187,243.396 c 16.309,256.593 69.6155,488.583 313.1596,609.268 l 26.8719,10.848 -11.8851,216.009 -21.7038,277.503 c -2.1696,216.364 -4.4053,371.563 84.7494,559.656 l 43.4084,73.898 37.2071,53.227 -12.9196,90.434 c -14.1341,232.67 144.5543,430.827 356.5683,486.276 l 4.1354,19.13 10.8533,120.925 v 1.058 l -47.5423,27.39 -36.1737,8.784 -68.2128,19.13 -93.5347,40.306 c -144.6043,76.108 -230.6846,215.205 -257.8658,367.42 -364.2293,17.41 -534.6449,368.941 -507.4636,714.686 l 1.0318,11.88 -16.5364,12.912 c -281.598,254.418 -210.7474,796.101 69.7633,1030.948 l 29.4556,460.955 -29.4556,478.008 -18.6029,12.409 c -183.745,131.559 -236.8396,335.651 -233.5778,549.84 -122.8592,90.241 -200.3439,235.088 -203.6055,392.74 l -86.8165,60.979 -121.9568,93.017 -144.1776,143.661 -30.489,28.422 -34.1065,6.191 -54.2603,12.409 -72.864,19.632 c -296.8195,110.9 -403.3385,404.43 -649.0573,565.342 -254.4167,167.436 -636.0209,88.085 -753.4439,376.206 -104.3761,48.927 -190.28238,131.162 -240.29588,237.713 -30.44304,18.494 -58.65556,40.158 -84.74951,64.077 -194.61799,-7.62 -394.83966,47.852 -488.34325,240.297 -144.6044,295.731 -186.86349,1030.819 143.66078,1263.492 l -7.75152,83.714 c 0.5424,25.956 7.87137,48.424 9.30171,73.898 z" /><path
     id="path1093"
     style="fill:#cccccc;fill-opacity:1;stroke:none;stroke-width:143.834;stroke-miterlimit:4;stroke-dasharray:none"
     d="M 7444.8959,21166.562 H 130474.32 l -124.54,-445.452 -145.73,-140.56 -99.73,-105.42 v -30.49 l 6.72,-82.165 11.88,-99.219 77,-72.864 70.8,-76.998 c 350.09,-444.685 21.8,-703.833 -272.86,-1007.176 l -88.36,-103.87 -12.92,-16.536 10.85,-16.537 c 359.88,-503.398 572.02,-1197.763 510.05,-1827.282 -50.02,-506.659 -389.26,-798.234 -396.88,-1272.276 -9.79,-633.868 -391.57,-1305.833 -1095.02,-1296.048 l -94.57,7.752 -45.48,4.136 -25.32,-66.146 c -330.52,-794.781 -829.14,-1952.772 -1848.98,-1860.355 l -318.85,60.978 -242.36,42.375 -118.34,-3.101 -8.78,-10.853 -73.9,-114.206 c -189.18,-281.598 -405.74,-731.663 -801.51,-607.716 6.54,-871.976 -816.34,-782.046 -1311.03,-328.662 l -109.04,100.252 -56.32,63.045 -11.88,-31.522 -17.57,-69.764 39.27,-25.839 c 600.16,-482.74 -65.39,-865.443 -519.86,-993.739 l 5.68,-8.785 44.44,-89.4 43.41,-135.909 c 64.15,-288.122 -148.96,-588.1056 -439.25,-629.4206 l -137.97,-6.7178 -101.29,9.8187 -103.35,17.571 -32.56,-16.5365 -92.5,-46.5088 -148.83,-52.1934 c -453.38,-100.0272 -689.14,-224.1763 -1112.08,-414.4457 -575.15,-258.7654 -990.44,266.6852 -1203.54,715.7201 l -31.53,64.079 -128.67,219.625 -27.91,34.623 -50.12,-2.063 -544.67,-17.571 c -413.16,5.437 -683.71,-41.362 -996.84,189.136 l -54.78,45.992 -11.88,9.819 -1175.12,-11.886 -1658.3,151.929 -7.23,11.885 -37.2,47.026 -1.06,1.032 -1823.15,-49.093 -1993.16,27.389 -47.55,32.556 -118.85,75.965 -65.11,38.24 -53.23,26.872 -3.1,1.561 -2460.84,24.805 -2443.78,27.389 -1011.31,97.668 -3050.98,103.353 c -282.68,18.484 -504.32,202.954 -777.22,247.531 l -45.47,4.651 v -1.032 l -51.16,-63.045 c -264.2,-262.028 -687.3,-326.266 -1042.83,-364.32 l -222.73,13.952 -141.59,39.274 -66.149,19.638 -94.567,-15.502 -158.647,-41.342 -214.459,-50.643 c -255.5,-30.443 -429.184,-11.149 -643.372,120.407 l -60.979,42.374 -15.505,11.886 -69.246,-26.872 -145.728,-64.079 -4425.062,-539.503 -1519.291,-141.077 -620.634,25.839 -388.092,3.101 -26.352,-28.939 -63.045,-64.596 c -325.089,-263.114 -1035.865,-387.8589 -1333.773,-16.02 l -4.656,6.202 -8.255,-10.854 c -255.504,-314.215 -599.27,-241.221 -968.933,-243.396 l -2829.29,-497.645 -635.623,-81.649 -695.049,5.1673 -476.976,-21.7038 -12.409,-16.0205 c -464.257,-534.927 -1441.315,-48.0183 -2015.385,-69.7631 -162,-6.522 -249.204,-221.9661 -403.594,-268.718 -816.524,-242.4575 -1765.867,-108.6673 -2548.686,-388.0908 -322.914,-116.3354 -556.595,-274.7661 -921.911,-246.4972 -902.419,71.7581 -1517.653,1417.5562 -1948.205,2096.0001 l -76.996,124.024 -60.979,82.682 -11.88,11.885 h -4.657 l -139.009,5.168 c -128.297,23.918 -218.43,47.137 -305.409,97.152 -367.492,-163.089 -950.523,91.322 -1260.391,251.148 l -251.156,146.747 -193.27,137.976 -411.346,239.263 c -285.947,250.067 -405.163,429.187 -697.634,559.657 l -442.866,300.24 -21.695,-3.1 -75.965,-17.572 -14.976,-4.135 -993.74,-247.014 -63.045,-25.839 -45.992,-25.321 -16.008,-11.885 -71.829,-168.465 -42.375,-229.444 -1.059,-52.193 c -10.874,-240.283 273.688,-238.369 434.6,-245.98 1398.204,-72.847 2769.185,-759.855 3954.288,-1445.91 506.66,-294.6443 1310.198,-523.8924 1233.003,-1268.659 -76.107,-745.8542 -810.806,-741.7513 -1250.055,-309.0257 -965.48,950.258 -2276.691,1311.3239 -3524.858,1734.2647 -766.51,259.853 -1460.521,232.764 -2262.914,280.604 -721.936,43.49 -1351.436,316.132 -2071.194,329.179 l -136.944,5.683 -88.884,4.136 -33.073,-1.032 -2.117,-2.064 -53.226,-55.294 -93.536,-105.42 c -251.153,-252.241 -552.057,-415.446 -883.667,-186.035 l -63.048,53.227 -43.408,45.475 -47.54,55.294 -0.529,0.529 -99.219,88.883 -59.429,56.845 -4.656,4.135 -173.633,16.537 -215.491,-23.255 -31.522,-23.77 -50.126,-39.274 -26.871,-33.59 -31.525,-39.274 -48.059,-49.61 c -141.341,-125.033 -271.556,-154.766 -465.088,-212.39 l -214.459,-48.576 -152.961,-38.241 -70.797,-20.672 -37.206,-25.839 -99.737,-62.012 -179.317,-64.079 -384.991,-20.672 -204.639,-5.683 -4.128,-7.752 -27.389,-69.247 1.058,-48.059 c -32.589,-406.646 -706.643,-643.6669 -1067.609,-742.6062 l -222.724,-31.5227 -16.537,1.0318 v -1.0318 c -39.142,-67.4102 -80.193,-136.0213 -141.079,-186.0356 l -171.048,-113.1715 -119.372,-50.6429 -33.592,-14.4701 -2.116,-5.1673 -16.537,-37.2071 -18.6,-52.1934 c -154.39,-579.5051 73.975,-1321.1424 -325.047,-1744.0829 54.364,-50.0137 96.896,-111.6933 122.992,-183.4518 213.099,-586.0282 -481.5,-1216.6384 -630.455,-1757.0022 -90.239,-326.1753 -235.189,-678.3745 -641.823,-587.0455 -31.53,-465.3432 326.481,-1038.6247 -298.688,-1270.2091 l -87.334,-21.7039 -2.117,-5.1673 -78.034,-126.0906 -112.136,-130.7417 -157.615,-133.8421 -75.965,-34.6232 9.817,-409.7951 6.191,-69.7633 c 1073.118,449.0347 2295.394,982.7773 3133.665,1811.2626 577.33,570.8067 1068.792,1972.6212 2049.49,1959.5743 480.567,-6.5247 803.195,-418.6146 591.181,-867.6491 -603.426,-1280.7817 -2189.429,-2039.8767 -3373.444,-2673.744 -302.144,-160.9137 -618.629,-317.2027 -939.368,-475.9414 -218.538,-172.8729 -645.677,-424.4284 -1069.705,-557.0731 -483.826,-271.8127 -945.924,-572.98883 -1338.421,-930.69436 l -156.581,-161.74754 -7.752,-13.95257 c -421.852,-433.813165 -792.545,-557.86488 -1434.023,-81.64891 l -78.55,64.07888 -11.88,8.78497 -58.393,-1.03452 -133.843,-23.25454 -186.034,-38.75741 C 55297.022,128.64297 53564.212,119.74109 52067.067,642.70884 L 49267.233,1362.563 c -1129.654,345.7458 -2392.116,645.6034 -3542.426,558.6233 -663.224,-50.0136 -1517.59,227.183 -2148.193,440.2841 -780.647,262.0275 -1598.354,1162.3383 -2424.665,1201.4795 -302.256,14.134 -633.647,120.6989 -694.533,459.9211 l -3.625,39.2743 -11.88,3.1009 c -396.846,188.0945 -685.867,500.3013 -1007.691,791.6846 l -271.82,248.0474 -181.902,134.8759 -153.995,86.8163 -10.848,1.0319 -89.401,5.6832 -146.762,26.872 -1193.728,276.4694 c -915.465,315.3028 -1857.241,223.6986 -2798.802,475.9409 -812.175,217.4501 -1719.026,732.9513 -2320.277,1325.503 -716.498,705.6261 -1034.954,1682.9102 -1706.875,2418.9785 -708.886,777.3847 -1470.991,1683.3197 -2396.241,2201.9377 -963.305,539.277 -1929.988,663.215 -2988.971,774.114 l -282.67,59.428 -210.84,90.434 -149.863,75.965 -286.287,14.47 -448.553,57.361 -361.219,140.56 c -278.335,114.161 -537.005,404.023 -849.045,395.325 -404.458,-9.784 -1024.468,31.603 -1364.777,291.456 l -94.569,74.931 -60.978,56.844 -50.643,-16.536 c -202.229,-53.275 -417.583,-33.761 -563.274,84.749 -443.599,-198.967 -590.397,126.447 -951.365,349.334 -606.686,374.013 -1948.654,-263.385 -2232.427,528.134 l -132.292,-13.952 -277.502,-31.522 c -440.336,0 -609.8,208.568 -985.989,317.294 l -3649.913,1247.471 c -393.585,171.786 -1063.611,161.555 -1281.062,594.281 l -17.052,38.24 c -737.156,-63.061 -1831.1932,111.016 -2390.0398,625.286 -206.5776,191.357 102.445,522.92 173.1164,795.819 l 225.8263,-79.582 3.6168,8.784 7.2338,-5.167 53.7436,-25.321 c 271.8136,-94.591 -186.3367,278.454 28.9388,625.286 l -62.011,51.16 c -144.6044,131.557 -161.8679,316.375 -180.3512,502.296 -335.9604,-56.537 -665.456,125.839 -793.7516,507.463 -123.8829,370.834 -345.2277,659.733 -545.7042,973.07 z" /><path
     style="fill:#b3b3b3;fill-opacity:1;stroke:none;stroke-width:143.834;stroke-miterlimit:4;stroke-dasharray:none"
     id="path1050"
     d="m 8030.2356,18089.915 188.8495,464.234 101.1143,437.075 -236.3336,660.532 -571.4938,484.343 -369.6653,335.961 -404.4574,470.779 -202.2287,337.047 -66.3223,538.19 -235.9335,505.571 -202.2287,-202.228 -67.4095,-370.753 -268.551,-101.114 -539.2765,-167.436 -470.7797,-33.705 h -303.3431 l -234.8461,-134.82 33.7047,-337.047 -168.5239,-100.028 -437.0749,32.619 -438.162,134.818 v 303.343 h -470.7798 l -370.7525,-269.638 33.7047,-369.665 134.8191,-303.343 337.0479,-33.706 268.5509,202.23 337.0479,-67.41 234.8462,-168.524 370.7525,-167.437 235.9335,-235.933 605.5988,-404.457 437.0749,-133.732 605.5988,-370.753 404.4574,-134.818 403.3701,-168.525 101.1143,-167.436 504.4845,101.114 67.4095,-303.344 z"
     sodipodi:nodetypes="ccccccccccccccccccccccccccccccccccccccccc" /></g></svg>
