<?xml version="1.0" encoding="UTF-8" standalone="no"?>
<svg
   xmlns:dc="http://purl.org/dc/elements/1.1/"
   xmlns:cc="http://creativecommons.org/ns#"
   xmlns:rdf="http://www.w3.org/1999/02/22-rdf-syntax-ns#"
   xmlns:svg="http://www.w3.org/2000/svg"
   xmlns="http://www.w3.org/2000/svg"
   xmlns:sodipodi="http://sodipodi.sourceforge.net/DTD/sodipodi-0.dtd"
   xmlns:inkscape="http://www.inkscape.org/namespaces/inkscape"
   xml:space="preserve"
   width="159.24777mm"
   height="147mm"
   shape-rendering="geometricPrecision"
   text-rendering="geometricPrecision"
   image-rendering="optimizeQuality"
   fill-rule="evenodd"
   viewBox="0 0 159247.77 147000"
   id="svg2"
   sodipodi:version="0.32"
   inkscape:version="1.0.2-2 (e86c870879, 2021-01-15)"
   sodipodi:docname="Polska_podział_admin.svg"
   version="1.1"><metadata
   id="metadata418"><rdf:RDF><cc:Work
       rdf:about=""><dc:format>image/svg+xml</dc:format><dc:type
         rdf:resource="http://purl.org/dc/dcmitype/StillImage" /><dc:title></dc:title></cc:Work></rdf:RDF></metadata><defs
   id="defs416">
  
  
  
  
  
  
  
  
  
  
  
  
  
  
  
  
  
  
  
  
  
  
  
  
  
  
  
  
  
  
  
  
  
  
  
  
  
  
  
  
  
  
  
  
  
  
  
  
  
  
  
  
  
  
  
  
  
  
  
  
  
  
  
  
  
  
  
  
  
  
  
  
  
  
  
  
  
  
  
  
  
  
  
  
  
  
  
  
  
  
  
  
  
  
  
  
  
  
  
  
  
  
  
  
  
  
  
  
  
  
  
  
  
  
  
  
  
  
  
  
  
  
  
  
  
  
  
  
  
  
  
  
  
  
  
  
  
  
  
  
  
  
  
  
  
  
  
  
  
  
  
  
  
  
  
  
  
  
  
  
  
  
  
  
  
  
  
  
  
  
  
  
  
  
  
  
  
  
  
  
  
  
  
  
  
  
  
  
  
  
  
  
  
  
  
  
  
  
  
  
  
  
  
  
  
 </defs><sodipodi:namedview
   inkscape:window-height="1017"
   inkscape:window-width="1920"
   inkscape:pageshadow="2"
   inkscape:pageopacity="0.0"
   borderopacity="1.0"
   bordercolor="#666666"
   pagecolor="#ffffff"
   id="base"
   inkscape:zoom="0.937213"
   inkscape:cx="348.61903"
   inkscape:cy="270.02982"
   inkscape:window-x="-8"
   inkscape:window-y="-8"
   inkscape:current-layer="g1052"
   inkscape:document-rotation="0"
   showgrid="false"
   inkscape:window-maximized="1"
   showguides="false"
   fit-margin-top="10"
   fit-margin-left="10"
   fit-margin-right="10"
   fit-margin-bottom="10" />
 
<g
   inkscape:groupmode="layer"
   id="g1052"
   inkscape:label="Layer 1"
   style="display:inline"
   transform="translate(10000,10000)"><g
     id="g1218"
     transform="matrix(1.000002,0,0,1.000002,-1089.4838,-0.14725852)"><path
       id="path1042"
       style="fill:#750787;fill-opacity:1;stroke:none;stroke-width:0.543625;stroke-miterlimit:4;stroke-dasharray:none"
       d="m 217.78516,400 c 0.52601,1.05133 1.40858,1.74401 2.79882,1.37109 -0.0575,0.76434 0.29975,1.51278 0.95313,1.88672 0.29587,2.86417 4.53673,3.5875 5.25586,0.86719 0.3082,0.037 0.61819,0.0331 0.91406,-0.004 l 0.75586,-0.13086 0.42578,-0.13671 0.40039,0.3457 0.41406,0.20898 0.11915,0.041 0.35742,0.27539 0.90429,0.5957 0.63282,0.20508 c 0.21779,0.40683 0.58818,0.69923 1.05664,0.89649 l 0.26562,0.0742 0.13672,0.16016 0.2832,0.26367 c 0.62461,0.51368 1.30313,0.58767 1.92774,0.39453 0.18903,0.73557 0.87409,1.42177 1.56445,1.89844 l -0.16015,0.16016 -0.26563,0.13086 -0.28516,0.16797 -0.36132,0.30859 c -0.78899,0.78898 -0.62325,2.06794 0.21093,2.70898 -0.0781,0.77254 0.26581,1.49953 0.89454,1.86524 0.0657,0.64928 0.30872,1.24054 0.78124,1.58984 l -0.0117,0.17188 c 0.0616,0.76021 0.1959,1.41785 0.8164,1.89453 l 0.0703,0.0469 -0.0156,0.28711 -0.0215,0.37305 c 0,1.18348 0.40403,2.16633 1.47656,2.71289 l 0.31054,0.13476 0.3379,0.12891 0.0117,0.0234 0.14063,0.20508 0.2168,0.26367 c 0.60406,0.65337 1.50411,0.72808 2.33007,0.53906 0.3945,1.77109 2.80711,3.20906 4.22071,2.6543 -0.0164,0.43971 0.12316,0.88326 0.47656,1.26953 l 0.26758,0.24219 -0.0117,0.50976 -0.006,0.8086 c 0.0904,0.84238 0.25528,1.59108 0.97852,2.08007 l 0.008,0.004 -0.0117,0.0625 c -0.80131,3.75591 1.65976,2.09593 0.20508,5.0957 -0.42326,1.15061 0.47701,2.44489 1.69336,2.45313 l 0.53515,-0.0586 0.23438,-0.0703 c 0.80953,1.38482 3.19706,1.42637 4.03125,0.0703 l 0.17578,0.23828 0.0254,0.0215 c -0.67392,1.16704 -0.58776,2.70835 0.2793,3.78906 l 0.23437,0.24219 0.15625,0.14258 c -0.0247,0.42323 0.0887,0.83081 0.31055,1.17187 l -0.0488,0.11914 c -1.70535,4.10109 3.53009,5.63808 6.12305,3.04102 l 0.30078,-0.375 0.0781,0.0508 0.0899,0.11914 0.16797,0.20899 c 0.64927,0.67392 1.4395,0.87061 2.34765,0.60351 l 0.33985,-0.14648 0.24609,-0.14063 0.27148,-0.17187 0.55469,-0.13282 0.82617,-0.16796 0.18164,-0.0156 c 1.87795,-0.19725 3.02484,-1.06877 2.79883,-3.03711 1.35607,-0.15205 1.69296,-1.38553 1.70117,-2.7539 l -0.10351,-1.19532 -0.10742,-0.95312 0.004,-0.21875 c 0.31642,-0.25066 0.57607,-0.52477 0.73633,-0.85352 0.56297,-0.21365 0.99074,-0.6751 1.13867,-1.24219 l 0.19336,-0.0449 0.63672,0.51368 c 1.02732,0.73553 2.30485,0.38275 3.05274,-0.5254 1.53276,-0.17669 1.87738,-1.45406 1.75,-2.81836 0.34518,-0.0822 0.65819,-0.19351 0.97461,-0.42773 1.44232,-1.45058 2.56476,-0.65828 4.06054,0.33203 l -0.0137,0.22656 -0.041,0.92774 c 0.0329,0.99855 0.13183,1.70167 0.86329,2.36328 0.0123,0.75609 0.25478,1.32383 0.83007,1.8457 l 0.12696,0.0859 0.0254,0.36524 0.0488,0.71874 c 0.15204,0.82186 0.39001,1.59921 1.23242,1.92383 l 0.16992,0.0488 0.11523,0.21094 0.17578,0.26953 c 0.79721,1.02731 1.7184,0.72361 2.63477,1.25781 -1.04376,1.62728 -0.0534,3.61232 1.93555,3.51367 0.38627,0.45204 0.97345,0.69886 1.58984,0.66602 l 0.43555,0.60352 0.30078,0.15625 c 1.03965,0.60816 2.52301,0.60113 3.16406,-0.53711 0.47668,-1.11772 0.0535,-0.81409 0.78906,-1.2168 l 0.0195,0.0527 c 0.33696,1.11772 -0.20036,2.94631 -0.2168,4.07227 -0.0164,1.06431 -0.34637,3.54342 0.73437,4.44336 0.0123,0.078 0.0246,0.14674 0.041,0.2207 l -0.0644,0.0293 c -1.17526,0.5794 -1.71407,1.76208 -1.61133,3.01953 l 0.0371,0.26758 0.0195,0.16015 -0.25781,0.26368 c -1.66426,1.94369 0.0241,5.72412 2.69921,4.31054 l 0.11133,0.14844 c 1.3273,1.75465 3.68957,1.36694 4.87305,-0.36719 1.16293,-0.10272 1.61182,-1.24044 2.07617,-2.18554 l 0.0723,-0.13868 c 0.49311,0.55064 1.20153,0.73114 1.94531,0.67774 l 0.21289,-0.0332 0.008,-0.004 0.0215,0.008 0.16797,0.0859 0.11523,0.0781 0.0254,0.0215 0.0527,0.15625 0.15234,0.44726 0.34375,0.65821 c 0.32053,0.42323 0.74134,0.77114 1.19336,1.05469 l 0.29101,0.14062 v 0.12305 c 0.0945,0.93282 0.82671,1.49902 1.68555,1.71679 2.30531,0.57944 3.4506,-1.3226 3.02734,-3.33203 l -0.0742,-0.29492 -0.041,-0.19727 -0.004,-0.041 0.48047,-1.94141 -0.0977,-0.70117 0.61523,-0.54297 c 1.39305,-1.50398 1.85048,-1.94778 1.5957,-3.95312 1.19581,-0.19314 2.37155,-1.46303 2.75782,-2.52735 0.73145,-0.0986 1.30194,-0.60401 1.51562,-1.26562 l 0.10352,-0.004 0.71093,0.0566 0.64063,0.0957 0.041,0.0332 0.16796,0.13477 0.25977,0.20117 c 2.61762,1.79164 3.62399,-1.09353 3.64453,-3.27149 l -0.0215,-0.77929 c 0.28765,-0.008 0.56728,-0.0539 0.82617,-0.14844 1.39715,1.49575 3.60777,0.62024 4.66797,-1.10156 0.34107,0.23425 0.75313,0.35415 1.16406,0.34179 0.55886,0.83422 1.50416,1.49007 2.4082,1.69141 0.80953,2.23544 4.84366,2.02265 5.51758,-0.25391 l 0.0957,-0.43164 0.0195,-0.26367 c 1.29853,0.94923 3.08264,-0.13379 3.90039,-1.57617 0.11095,0.36162 0.27863,0.68081 0.52929,0.93554 -0.30819,1.3807 0.42382,2.56447 1.88672,2.76172 l 0.0937,0.004 c 0.2671,0.52191 0.60797,0.8796 1.15039,1.14258 l 0.25586,0.0937 0.15235,0.043 -0.01,0.17968 0.006,0.32422 c 0.18902,2.09983 2.51353,2.66389 3.93945,1.52149 0.26711,0.32466 0.62057,0.57007 1.10547,0.69336 l 0.0547,0.0137 c 0.24244,2.33408 3.73066,2.90493 4.87305,1.19141 1.48345,0.13144 2.5811,-0.92596 2.24414,-2.50391 l -0.0879,-0.26172 0.0742,-0.11523 0.18165,-0.20118 c 0.57936,-0.59584 1.4826,-0.63323 2.11132,-1.13867 0.74789,0.28762 1.61156,0.15211 2.31836,-0.23828 2.83952,-1.55743 1.00767,-4.08036 -0.88672,-5.18164 0.7068,-0.23014 1.42455,-0.27044 2.08204,-0.60742 l 0.0703,0.10937 c 0.55886,0.98211 0.80199,2.02635 1.92383,2.56055 2.12861,1.01911 4.4535,-0.25778 4.56445,-2.55078 l 0.004,-0.25195 0.004,-0.12305 0.0254,-0.0371 0.14453,-0.16016 0.24219,-0.23047 0.7793,-0.74804 c 0.84654,0.69449 1.9773,0.51483 3.02929,0.41211 l 0.0625,0.15234 c 0.43559,0.95339 1.38057,1.32968 2.375,1.21875 l 0.25391,-0.0488 h 0.0137 l 0.0605,0.041 -0.004,0.0215 c -0.0452,3.56686 4.54071,1.23991 5.85157,0.0605 l 0.0976,-0.0937 0.0703,0.0195 0.28321,0.0918 c 0.92458,0.22598 1.83268,0.15532 2.53125,-0.49805 1.12184,1.12184 2.53685,1.04809 3.49023,-0.004 0.71089,1.31498 1.50675,2.40821 3.22852,1.89454 l 0.17383,-0.0664 c 0.5424,0.5342 0.98502,0.91284 1.68359,1.25391 l 0.29687,0.0996 0.004,0.16796 0.0937,0.70704 c 0.54652,1.7012 1.70573,3.72185 3.62891,2.27539 l 0.44922,-0.42774 0.33984,-0.5293 0.38672,-1.07617 0.34961,0.36524 1.24023,0.58008 h 0.43555 l 0.082,0.21289 c 0.23834,0.53419 0.61207,1.0513 1.15039,1.31835 0.73145,0.36987 2.06672,-0.15571 2.61328,0.38672 l 0.0781,0.082 0.0332,0.0449 -0.041,0.30859 -0.0195,0.31641 c -0.008,0.98214 0.38095,1.76804 1.16993,2.35156 l 0.25585,0.16797 0.2793,0.16406 0.0527,0.12305 0.16406,0.27148 c 0.19313,0.29178 0.46152,0.51049 0.76562,0.6543 0.13561,0.69861 0.65353,1.28637 1.38086,1.45898 l -0.29297,0.33594 c -1.39717,2.04643 -1.05123,4.85658 1.88282,4.47852 0.37802,0.65748 1.10605,0.97393 1.8457,0.9082 0.6246,0.74785 1.94356,0.77003 2.9668,0.7207 l 0.10546,-0.006 0.30469,0.0996 0.0449,0.0293 0.0117,0.041 0.11914,0.29883 c 0.63697,1.13828 1.67009,1.31059 2.61524,0.875 0.25066,1.31086 0.91651,2.25641 2.52734,2.48243 l 0.73438,0.0293 0.35742,-0.0215 0.0625,0.11523 1.63867,0.87696 0.34961,-0.0371 c 0.41503,0.008 0.82254,-0.14916 1.21289,-0.29297 l 0.50977,-0.2168 0.32031,-0.19336 0.32031,1.08789 0.19727,0.37891 c 1.11772,2.0423 2.30398,2.39477 4.13672,1.75781 0.9739,1.38074 2.17529,1.4555 4.0039,0.81445 l 0.48828,-0.19726 0.19336,-0.041 c 2.62587,-0.0616 0.94133,-1.50886 2.52344,0.8457 l 0.85352,0.81055 c 1.85329,1.77521 4.17974,4.45373 6.23437,2.26758 0.75201,0.82186 1.88231,1.11053 2.88086,0.29687 l 0.15234,-0.13671 0.0488,0.0508 0.0215,-0.0176 0.36914,0.62109 0.66992,0.97852 0.46094,0.38867 c 1.06839,0.87526 2.76848,2.1295 4.25195,1.48438 2.86008,-1.24101 1.2703,-4.19629 0.54297,-6.07422 l -0.0625,-0.20508 -0.0117,-0.11524 0.0156,-0.008 0.70704,-0.39062 0.17382,-0.17578 c 2.13272,-2.03411 -1.73863,-4.97752 -3.3125,-5.51172 l -0.67773,-0.16407 -0.36133,-0.0371 -0.0625,-0.25 -0.14453,-0.47265 c -0.37395,-0.99855 -1.18196,-2.11182 -2.36133,-2.0625 0.15205,-0.51776 0.12183,-1.12613 -0.0508,-1.65625 l -0.20508,-0.45703 c -1.4259,-2.50258 0.39803,-3.14706 0.60352,-6.06055 0.18901,-2.67923 0.77434,-7.19921 -1.25977,-9.29492 l -0.32617,-0.2832 -0.41406,-0.23438 c 0.34926,-1.85737 0.91985,-4.80879 -0.69922,-6.26758 l -0.31641,-0.23437 -0.0156,-0.008 0.0156,-0.20899 -0.90039,-2.02148 c -0.20957,-0.35343 -1.10808,-0.58479 -1.49023,-0.88477 l -0.21485,-0.2168 1.99805,-3.46484 2.13672,-3.07422 1.2168,-1.6875 c 1.13004,-1.58207 2.19867,-2.42441 1.97265,-4.31055 l -0.043,-0.23437 0.12891,-0.004 c 0.41915,-0.0206 1.21906,0.0443 1.56836,-0.21875 2.69159,-2.07106 7.16821,-7.82779 7.04492,-11.55078 l 0.0195,-0.34961 0.0215,-0.0996 1.65625,-0.8164 1.45703,-0.97852 2.31055,-3.08594 c 1.02323,-1.36017 2.41252,-2.78203 2.7207,-4.54492 l 0.0312,-0.26758 0.0215,-0.14843 0.14453,-0.13868 0.42579,-0.29687 0.60937,-0.39453 c 0.28995,-0.22304 0.68993,-0.58027 1.05274,-0.86133 z"
       transform="scale(264.58333)" /><path
       id="path1193"
       style="fill:#000000;fill-opacity:1;stroke:none;stroke-width:0.543625;stroke-miterlimit:4;stroke-dasharray:none"
       d="m 214.97461,400 c 0.71218,0.2501 1.38554,0.33379 1.98437,0 z"
       transform="scale(264.58333)" /><path
       id="path1191"
       style="fill:#000000;fill-opacity:1;stroke:none;stroke-width:0.543625;stroke-miterlimit:4;stroke-dasharray:none"
       d="m 198.65625,400 c 0.76958,1.02368 2.40814,1.14546 3.52734,0.80078 l 0.47266,-0.21875 0.23047,-0.11914 0.13476,0.01 0.23047,0.008 0.3086,-0.0117 c 0.41722,-0.0684 0.77459,-0.23611 1.07226,-0.46875 z"
       transform="scale(264.58333)" /><path
       id="path1189"
       style="fill:#004dff;fill-opacity:1;stroke:none;stroke-width:0.543625;stroke-miterlimit:4;stroke-dasharray:none"
       d="m 198.65625,400 h 5.97656 c 0.23885,-0.18666 0.447,-0.40725 0.5586,-0.71094 0.1767,-0.0904 0.34486,-0.19408 0.48047,-0.33789 l 0.50976,-0.67773 0.0449,-0.0899 0.0859,0.0156 c 0.91637,0.10273 1.89165,-0.0445 2.38477,-0.88281 l 0.20898,0.14843 c 0.87939,0.4972 1.61948,0.414 2.16602,0.0195 0.26299,0.43143 0.66455,0.80175 1.1289,1.01953 l 0.64649,0.26171 0.41015,0.10352 0.13477,0.20508 c 0.43484,0.52857 1.0188,0.72799 1.58203,0.92578 h 1.98437 c 0.19412,-0.1082 0.4031,-0.1875 0.56055,-0.36133 0.0552,0.15692 0.1946,0.21937 0.26563,0.36133 h 259.82422 c 1.30826,-1.01352 2.79184,-2.27378 2.80468,-3.78906 0.56708,-0.40271 0.8233,-1.09277 0.88086,-1.82422 l 0.004,-0.23828 v -0.0293 l 0.16797,-0.21875 0.48437,-0.47656 0.62891,-0.64453 c 0.62464,-0.7931 0.92457,-1.39659 0.94922,-2.38282 l -0.008,-0.28906 -0.004,-0.10156 0.0566,-0.0254 0.20117,0.0664 0.33008,0.10156 c 3.27511,0.67393 5.91667,-4.54457 7.32617,-6.72656 l 0.5625,-1.03907 0.49805,-0.84179 0.45117,-0.53907 0.11523,-0.0254 0.25977,-0.0312 c 1.22865,-0.17261 1.96078,-0.48557 2.87305,-1.41015 l 0.59179,-0.75977 0.41797,-0.54297 0.21875,-0.19726 0.13086,-0.008 0.29102,-0.004 c 1.27797,-0.0493 2.80387,-0.57972 2.82031,-2.12891 l -0.0371,-0.52539 -0.0918,-0.39062 -0.11914,-0.35352 0.0508,-0.12695 0.0899,-0.18946 0.082,-0.14843 0.0332,-0.0449 1.11719,-0.91211 0.56641,-0.48632 0.27148,-0.0762 c 0.77257,-0.3123 1.4843,-0.47843 2.03906,-1.15234 0.85474,-1.03554 0.14027,-2.98666 1.17578,-3.84961 1.06844,-0.89582 2.57483,-0.58703 3.70899,-1.35547 l 0.27148,-0.21875 0.16992,-0.17578 0.0977,-0.0215 0.61719,-0.0645 3.36133,-0.0664 0.49609,-0.11914 0.66602,-0.23438 c 1.57795,-0.94102 3.64577,0.73527 5.28125,-0.46875 l 2.01367,-2.35937 1.54492,-2.46094 0.29883,-0.10156 0.23437,-0.13672 c 0.55064,-0.36162 0.60072,-0.88348 0.73633,-1.46289 0.85062,-3.59563 3.33565,-8.55593 1.60156,-12.04883 -0.87942,-1.75877 -0.52419,-4.04752 -1.77343,-5.57617 l -0.0918,-0.0899 0.0859,-0.14843 c 1.10127,-2.12451 -0.0693,-3.78077 -2.38282,-3.83008 l -0.2207,0.004 v -0.0723 l 0.10547,-0.125 0.22656,-0.28711 c 1.09308,-1.78754 -0.30867,-3.1064 -2.04687,-3.44336 l -0.33203,-0.0527 -0.23438,-0.041 -0.11133,-0.0293 -0.52148,-0.3125 -0.33789,-0.23046 0.0254,-0.10157 0.082,-0.21093 c 0.25886,-0.50545 0.6538,-1.06876 1.13867,-1.37696 l 0.26758,-0.11328 0.29102,-0.0664 h 0.15624 l 0.0332,0.0195 0.17187,0.14843 0.24219,0.21875 c 2.23548,1.78343 4.25006,0.39457 6.30469,-0.87109 0.76025,-0.46846 1.71789,-0.4983 2.16992,-1.40234 0.84242,-1.68481 -0.90435,-2.96253 -2.32617,-3.36524 -3.06475,-0.86534 -4.96669,-2.3609 -6.66016,-4.98828 H 64.496094 c -0.998703,1.13067 -1.385339,3.12312 -0.1875,3.98633 v 0.57422 c 0.110952,0.73145 0.242076,1.17672 0.71875,1.71093 l 0.246094,0.22071 0.103515,0.0781 0.02539,0.21289 c 0.217791,1.15882 1.413685,1.62873 2.449218,1.83008 l 0.503907,0.0898 0.267578,0.0215 -0.0039,0.0723 0.148437,0.76953 c 0.0904,0.26299 0.275815,0.48399 0.464844,0.68945 l 0.101562,1.19141 0.19336,2.4082 0.09766,0.20117 c 0.969793,3.1436 3.990253,0.69881 5.017578,-0.95312 l 0.01758,0.0137 c 1.035538,0.74789 2.110963,1.86846 3.34375,1.60547 0.80953,1.10539 2.786213,0.85057 3.990235,0.75195 l 0.509765,-0.0644 0.07031,-0.004 0.177734,0.25 c 0.423258,0.51777 1.059314,0.80139 1.716797,0.78906 0.336964,0.41093 0.84617,0.66939 1.429688,0.64063 0.480782,2.35051 4.162626,2.18249 5.654296,0.90039 l 0.09961,-0.0957 0.261718,0.0254 c 0.513661,-0.0123 0.962122,-0.1527 1.373047,-0.38282 -0.102731,0.84241 -0.05374,1.62402 0.480469,2.35547 l 0.242188,0.27149 0.222656,0.19726 0.01953,0.0195 0.05078,0.64258 0.101563,0.5918 c 0.550643,2.41215 2.873215,2.43259 4.964844,1.82031 l 0.335937,-0.38281 0.185547,-0.22656 0.01172,-0.004 0.326179,0.008 1.15039,-0.44726 0.35742,0.39453 0.0703,0.0898 0.0117,0.14063 c 0.0575,0.32052 0.19728,0.61692 0.39453,0.85937 -0.38627,0.5301 -0.53485,1.16123 -0.38281,1.73242 -1.17937,1.70125 1.08958,4.34908 2.47851,5.15039 2.14094,1.23279 3.85357,-1.48729 3.93164,-3.36523 l -0.0156,-0.29297 -0.0254,-0.19727 -0.0117,-0.0859 0.13477,-0.38672 0.29687,-0.57813 0.17969,-0.0586 0.21875,-0.0742 0.27539,-0.11523 c 0.2219,-0.11506 0.42291,-0.2501 0.59961,-0.40625 0.0863,0.0329 0.16956,0.0667 0.25586,0.0996 l 0.37304,0.0723 0.375,0.0625 0.28321,0.36524 0.48047,0.56836 c 1.49167,1.34373 4.28474,1.30538 4.60937,-1.04102 0.37395,-0.23834 0.60854,-0.57446 0.74414,-0.96484 0.87528,0.67803 2.28587,0.70616 3.25977,0.13086 l 0.73047,1.06445 0.41992,0.39062 0.29101,0.2168 0.0742,0.0625 0.041,0.14844 0.0664,0.23047 0.10157,0.29492 c 0.39449,0.83418 1.37368,1.67592 2.38867,1.91016 0.73967,0.87523 -1.42155,0.68652 -1.38867,2.76171 -0.58763,0.41504 -0.90152,1.17082 -0.72071,1.94336 l 0.0215,0.0664 -0.45117,0.46484 -0.40039,0.74414 -0.0234,0.0606 -0.0586,-0.0898 c -1.06841,-1.39305 -2.98644,-0.88801 -3.33984,0.83789 l -0.0293,0.32031 -0.004,0.11914 -0.0449,-0.004 c -1.0602,-0.0247 -1.89019,0.36595 -2.33399,1.33985 l -0.0254,0.0742 -0.15234,0.0703 c -0.60818,0.33285 -0.84235,0.88609 -1.06836,1.53125 l -0.082,0.37109 c -3.34907,0.58763 -1.34819,5.57931 1.11328,5.99024 l 0.29687,0.0137 0.0566,-0.004 v 0.0527 c 0.0616,1.08895 0.24351,2.18508 1.20508,2.86718 1.52455,1.08075 2.49345,0.009 3.69336,-0.72656 -0.0493,1.25744 0.51483,2.26852 1.55859,3.11914 -0.13971,1.71357 1.63148,2.0336 2.9629,1.51172 l 0.0859,0.0703 c -0.0781,0.80954 0.41968,1.55755 1.17578,1.81641 0.13972,1.19172 0.50801,2.16609 1.65039,2.83594 l 0.58008,0.30273 c 0.1315,0.92871 0.61587,1.79191 1.63086,1.93164 l 0.16992,0.008 0.0645,0.0586 0.55859,0.62109 0.20117,0.1836 -0.0566,0.14843 -0.18554,0.48047 c -0.67393,1.6026 -0.75599,3.83937 1.18359,4.71875 l 0.0254,0.008 0.0859,0.19336 0.34961,0.5332 1.36914,1.44726 1.17383,1.19922 0.0586,0.11914 0.11523,0.22266 0.20899,0.29492 c 0.37394,0.46844 0.95379,0.70355 1.5332,0.69531 0.95746,1.84918 3.93138,1.01533 5.00391,-0.2832 l 0.18164,-0.28516 0.10742,-0.21679 0.10547,-0.2461 0.51758,-0.76562 0.43945,-0.5586 0.16992,-0.10156 0.34375,-0.20703 0.47266,-0.36914 c 1.19991,-1.35606 2.55627,-1.93885 2.1289,-4.125 l 0.15235,-0.12891 0.91601,-0.62695 0.32617,0.11914 c 1.79166,0.7849 2.87133,-0.32182 3.57813,-1.79297 l 0.40234,0.12696 c 0.80542,0.20549 1.54148,-0.002 2.125,-0.4668 0.42737,0.37807 0.93663,0.64752 1.50782,0.70508 2.06697,0.20545 3.64857,-2.71192 2.22265,-4.27344 l -0.22851,-0.2207 0.11328,-0.10742 c 1.43003,-1.63552 0.32128,-4.66418 -1.75391,-5.01758 -0.32052,-0.68214 -1.07328,-1.08777 -1.88281,-1.05078 l -0.004,-0.14844 c -0.0904,-0.66981 -0.19662,-1.29159 -0.64453,-1.71485 -0.11917,-0.48489 -0.44002,-0.88255 -0.86328,-1.125 l 0.0664,-0.70312 c -0.0206,-1.35606 -0.62122,-2.43965 -1.80469,-2.75195 -0.0534,-0.0945 -0.11374,-0.1854 -0.18359,-0.26758 0.12738,-0.22601 0.2085,-0.45698 0.25781,-0.69531 0.40682,0.38216 0.98306,0.59207 1.68164,0.54687 l 0.0781,-0.0117 c 1.02322,1.29443 2.44108,0.25898 3.55469,0.9082 l 0.19141,0.12305 0.30078,0.23438 0.28711,0.22461 0.0742,0.0996 0.13672,0.17968 0.23437,0.24024 c 0.77666,0.72323 1.91888,0.52897 2.88867,0.49609 h 0.17578 0.008 v 0.004 l 0.11523,0.17383 0.16797,0.26171 c 0.80131,1.10951 2.49065,1.87337 3.82617,1.39258 0.3986,1.86562 2.26796,3.87991 4.03906,3.97852 0.6164,0.8301 1.95662,1.2171 3.11133,1.05273 0.0329,0.2301 0.0914,0.4471 0.17774,0.64844 -0.75611,2.06699 1.70373,4.64752 3.35156,2.60938 l 0.20312,-0.3125 0.12305,-0.0117 0.18359,0.004 0.2754,0.41016 c 1.26562,1.9149 3.7928,2.51492 5.02148,0.47266 1.44236,0.36978 3.54228,0.52299 4.74219,-0.37696 1.23689,0.78078 2.78165,0.48855 3.91992,-0.38672 l 0.41601,-0.44336 c 3.52166,0.30407 -0.8962,0.70646 2.69532,2.97071 l 0.3789,0.17578 c 0.12328,0.0452 0.26591,0.0343 0.22071,0.16992 l -0.008,0.0195 c -0.31641,0.0329 -0.62877,0.13695 -0.9082,0.33008 l -0.25781,0.2207 -0.20703,0.25977 c -0.18081,0.3493 -0.34115,0.42644 -0.78907,0.80859 l -0.42187,0.39063 -0.19727,0.30859 -0.44922,0.0293 -0.72656,0.0488 c -0.65748,0.0945 -1.26632,0.21686 -1.72656,0.68945 -2.73268,-0.44791 -3.5292,2.81956 -1.71289,4.45508 l 0.26367,0.20898 0.29492,0.23047 v 0.0215 l 0.0527,0.29102 c 0.12739,0.54244 0.46985,0.98606 0.92187,1.22852 0.67803,1.74232 2.67062,3.57887 4.27735,2.02148 l 0.52539,0.58398 0.22265,0.13477 c 0.0534,0.43151 0.18077,0.81856 0.43555,1.13086 -0.0575,0.78486 0.36545,1.4255 0.875,1.98437 0.008,0.80954 0.18025,1.62376 0.91992,2.08399 l 0.12891,0.0703 0.0781,0.20508 c 0.33285,0.72325 1.14091,1.1431 1.92578,1.05273 l 0.19336,-0.0293 -0.004,0.0977 c 0.0411,0.87527 0.36169,1.52556 1.10547,1.95703 l 0.0742,0.19336 c 0.0601,0.13471 0.18188,0.205 0.26563,0.31641 z"
       transform="scale(264.58333)" /><path
       id="path1166"
       style="fill:#004dff;fill-opacity:1;stroke:none;stroke-width:0.543625;stroke-miterlimit:4;stroke-dasharray:none"
       d="m 44.228516,320 c -0.135629,0.20324 -0.329274,0.35568 -0.449219,0.64844 l -0.0918,0.4082 -0.804688,0.80469 -1.199218,1.07617 -0.3125,0.30859 c -0.81775,1.06842 -1.532781,4.33182 0.632812,4.65235 l 2.386719,-0.22656 c 0.480786,-1.46702 1.75011,0.26763 2.419922,0.0293 2.112174,1.3725 5.621287,0.77595 5.933594,-2.12109 l -0.02344,-0.3457 0.119141,-0.0977 c 0.723235,-0.70269 1.043112,-1.77565 0.447265,-2.67969 l -0.189453,-0.24609 c 0.358945,-0.53062 0.534103,-1.34956 0.613282,-2.21094 z"
       transform="scale(264.58333)" /><path
       id="path1164"
       style="fill:#008026;fill-opacity:1;stroke:none;stroke-width:0.543625;stroke-miterlimit:4;stroke-dasharray:none"
       d="m 44.228516,320 h 9.482422 c 0.150154,-1.63354 -0.190329,-3.46755 -1.298829,-4.11328 0.205463,-0.11095 0.402364,-0.23899 0.59961,-0.38281 l 0.394531,-0.36524 0.132812,-0.15625 0.113282,-0.0586 0.08789,-0.041 0.3125,0.20703 0.589844,0.21289 0.642578,0.28711 0.08203,0.0371 c -0.193134,2.58063 2.887592,3.12805 4.292968,1.40625 0.706798,1.38483 2.516199,1.8278 3.769532,0.64844 l 0.03711,0.0586 0.439453,0.58204 0.439453,0.41211 0.148438,0.11523 c -0.0082,0.28765 0.05291,0.56749 0.167968,0.82227 -0.08923,0.0779 -0.08548,0.23695 -0.166015,0.32812 H 521.20117 c -0.0436,-0.0676 -0.10122,-0.0949 -0.14453,-0.16406 l -0.36328,-0.48633 -0.26172,-0.30273 -0.10742,-0.13672 -0.0254,-0.1875 -0.008,-0.47266 -0.0156,-0.7168 c -0.28354,-1.89027 -1.05284,-2.33247 -2.67187,-3.03515 l -0.0234,-0.0742 -0.0781,-0.21485 -0.0996,-0.23828 c -0.81362,-2.20257 1.46001,-4.61014 -1.48632,-6.17578 l -0.76563,-0.32812 c -0.12329,-0.49723 -0.33195,-0.89549 -0.68945,-1.23242 l 0.0117,-0.0254 0.0215,-0.0332 0.17578,-0.13086 0.27149,-0.29687 0.20898,-0.33594 c 1.01911,-2.00944 -1.47849,-4.51729 -3.25781,-4.87891 -0.0206,-1.75055 -1.72217,-1.93874 -2.91797,-2.625 l -0.43945,-0.25 -0.0781,-0.0586 0.0293,-0.12305 c 0.0781,-0.76843 -0.10735,-1.49121 -0.66211,-1.90625 l -0.0117,-0.29687 -0.0625,-0.8418 c -0.41915,-2.16148 -2.68733,-4.65555 -5.0625,-4.19531 l -0.0527,-0.25 c -0.23834,-2.40394 2.78038,-3.5603 2.52148,-5.97656 0.94923,-0.45614 1.62827,-1.44559 1.12695,-2.54688 l -0.25976,-0.45117 -0.22461,-0.28125 -0.25195,-0.25781 -0.0234,-0.0742 -0.11524,-0.43946 -0.10351,-0.3164 c -0.25066,-0.62461 -0.66534,-1.15807 -1.23242,-1.4375 0.82185,-1.23279 -0.49646,-3.44038 -1.75391,-4.09375 l -0.14063,-0.0664 0.0254,-0.22851 c 0.15206,-2.09574 -0.90532,-3.00076 -2.54492,-3.22266 0.50132,-1.30264 0.0258,-3.06591 -1.44531,-3.43164 l -0.11523,-0.0195 -0.0332,-0.10742 -0.0703,-0.32032 -0.42773,-2.125 -0.0645,-1.42578 0.16016,-0.11914 c 2.14091,-1.76699 1.70421,-5.65513 -0.21484,-7.49609 l 0.0664,-0.11328 0.12305,-0.24414 c 4.41751,0.37805 7.01507,-5.89662 3.27148,-8.42383 l -0.23047,-0.15235 -0.0781,-0.0605 -0.082,-0.32422 -0.0254,-0.3418 0.10351,0.0215 c 2.93817,0.30819 3.5211,-3.23106 1.86914,-4.99805 0.23059,-0.25871 0.36962,-0.57602 0.45508,-0.91211 H 34.416016 c -0.169758,0.2962 -0.464594,0.51752 -0.466797,0.87891 -0.250666,0.15615 -0.459488,0.36632 -0.607422,0.62109 -0.80542,0.26299 -1.340607,1.07724 -1.246094,1.96484 l 0.05859,0.33985 -0.07031,0.0918 -0.126953,0.11524 -0.177734,-0.0254 c -3.944916,-0.0288 -4.21117,7.77953 -0.451172,7.33984 0.201355,0.58763 0.538135,1.11335 1.03125,1.38867 l -0.03711,0.99805 -0.0625,1.33984 c 0.01644,1.11362 0.02149,2.12468 0.851562,2.92188 0.63283,0.60817 2.198149,1.95209 3.28711,2.60547 0.0904,0.59174 0.460136,1.10822 0.990234,1.4082 l -0.0293,0.66602 -0.05273,0.95312 c 0.01233,0.66981 0.01985,1.34526 0.36914,1.9082 l -0.558593,0.36524 -0.152344,0.0977 c -0.719126,0.46845 -1.438081,1.00005 -1.544922,1.9082 v 0.0195 l -0.03711,0.0254 c -0.949242,0.95746 -0.986586,2.71094 0.08594,3.54102 -0.168481,2.32174 1.932243,2.90648 3.896484,2.7832 l 0.253907,-0.0254 0.148437,-0.008 h 0.01172 l 0.259765,0.18359 0.386719,0.41602 0.488281,0.60742 c 0.743781,0.85062 1.266536,1.24122 2.236329,1.33984 0.443803,0.70269 1.27722,0.83424 2.070312,0.9082 l 0.847656,-0.0117 0.357422,-0.008 c 0.242449,0.41504 0.61931,0.7101 1.050781,0.84571 0.09862,0.21368 0.229756,0.41543 0.402344,0.625 l 0.0625,0.0566 0.03711,2.18359 0.08594,3.01172 0.08594,0.35742 c 0.06575,0.3082 0.292425,0.57835 0.580078,0.77149 l -0.04102,0.76953 -0.04492,1.1875 c 0.02877,0.94513 0.221055,2.40302 1.28125,2.66601 0.11506,0.23834 0.270692,0.45624 0.484375,0.66992 l 0.02148,0.0215 v 0.0859 c 0.06164,0.89171 0.793831,1.62647 1.685547,1.67578 l 0.06055,0.375 -0.0293,0.65234 -0.04883,0.10352 -0.185547,0.34179 -0.224609,0.57813 -0.226562,1.32812 -0.07813,0.34961 -0.216797,0.14258 c -0.723236,0.56297 -0.77316,1.4183 -0.81836,2.28125 l 0.01953,1.00195 0.02148,0.81836 -0.0332,0.40235 -0.134766,0.14453 c -0.599954,0.72734 -0.691204,1.35093 -0.695312,2.3125 l 0.08594,0.84765 0.05859,0.61524 -0.0039,0.10742 -0.115235,0.0996 c -0.698577,0.68214 -0.846642,1.33913 -0.867187,2.3418 l 0.06445,0.83789 0.0293,0.33203 c -0.521881,0.36162 -0.760217,0.92206 -0.830078,1.55078 -0.632829,0.41504 -0.870357,1.21566 -0.845703,2.0293 l 0.01953,0.18945 -0.07422,0.0644 c -0.756109,0.752 -0.883276,1.62893 -0.636719,2.65625 l 0.02539,0.0859 c -0.415037,0.34518 -0.691505,0.72731 -0.847656,1.26563 l -0.05273,0.26171 -0.02539,0.19336 v 0.0176 l -0.06055,0.0742 -0.140625,0.19336 c -0.279432,0.46024 -0.344202,0.84587 -0.414063,1.39648 l -0.01758,0.5254 -0.0039,0.10742 -0.1875,0.12695 c -0.238774,0.19725 -0.320468,0.45454 -0.458984,0.66211 z"
       transform="scale(264.58333)" /><path
       id="path1141"
       style="fill:#ffed00;fill-opacity:1;stroke:none;stroke-width:0.543625;stroke-miterlimit:4;stroke-dasharray:none"
       d="M 34.416016,240 H 502.91992 c 0.10186,-0.4006 0.11927,-0.8321 0.01,-1.28125 l -0.0899,-0.26367 0.39454,-0.42383 c 1.35603,-1.64782 3.61079,-5.02033 0.77539,-6.4668 l -0.2793,-0.11523 v -0.2461 c -0.0863,-2.2231 -0.19241,-4.17915 -1.4375,-6.12695 -0.99447,-1.56153 -3.39881,-3.47829 -5.28906,-2.45508 l -0.32813,-0.55468 -0.6582,-0.57422 -0.27149,-0.16016 c 0.47668,-0.32053 0.79827,-0.82582 0.88868,-1.42578 0.47667,-3.05731 -5.01299,-4.33519 -6.5293,-2.13672 -1.41362,-1.96835 -5.97136,-5.14455 -7.81641,-2.53515 l -0.0488,0.0859 -0.01,-0.0176 -0.17578,-0.20117 c -0.63697,-0.6205 -1.36916,-0.76483 -2.19922,-0.97851 l -0.0195,-0.004 0.11523,-0.22461 c 0.46023,-1.23689 0.51305,-2.52351 -0.30469,-3.62891 l -0.16015,-0.17773 -0.0156,-0.0195 -0.0176,-0.21484 -0.12695,0.0664 -0.26367,0.13672 0.31641,-0.36328 0.69921,-0.81641 0.38282,-0.47265 7.3789,-11.53125 c 1.81221,-3.0491 4.61849,-5.52355 7.24024,-7.85352 1.50811,-1.34373 3.50693,-1.53155 5.22461,-2.51367 1.32729,-0.76433 3.1021,0.14286 4.27734,-1.04883 2.89297,1.96424 4.78632,-1.06709 6.7793,-2.99023 1.66839,-1.60262 3.50678,-1.85051 4.67383,-3.9668 l 0.041,-0.0742 0.34766,-0.3164 0.53515,-0.38868 0.16016,-0.0547 0.25391,-0.10743 0.34961,-0.21679 c 0.95334,-0.68625 0.91627,-2.32912 0.99023,-3.25782 0.16437,-2.17792 1.35175,-7.73852 -1.33984,-8.95898 l -0.14649,-0.0527 -0.0449,-2.05079 L 517.4668,160 H 5.8144531 c 0.037852,0.67412 0.1558617,1.30648 0.7167969,1.73438 l -0.3691406,0.23828 -0.7773438,0.50976 c -2.5559765,2.18203 -0.9767565,5.99192 2.3476563,5.4043 0.5013331,0.78076 1.376675,0.97322 2.2519531,0.88281 0.065749,0.76433 0.58767,1.29403 1.224609,1.66797 0.998557,0.58763 2.024572,1.9657 3.1875,2.34375 0.324634,0.55064 0.932687,0.91548 1.623047,0.88672 l 0.08203,0.10742 0.404297,0.52149 c 0.361617,0.39036 0.715135,0.72759 1.183594,0.90429 0.258885,0.4849 0.743061,0.84299 1.318359,0.9375 h 0.0332 c 0.23012,0.76022 0.278167,1.52393 0.77539,1.98828 0.110951,1.31908 1.076592,2.15648 2.41211,2.03321 0.03287,1.40948 1.50154,1.91486 2.65625,2.21484 0.846513,0.2219 0.755252,0.89619 1.597656,1.25781 l 1.138672,-0.10156 0.595703,0.90625 -0.07813,-0.0352 0.349609,0.57032 0.455078,0.51757 0.587891,0.35743 0.371094,0.13086 c 0.08629,0.71912 0.475809,1.34145 1.083984,1.625 l -0.0039,0.0605 -0.226563,0.0859 c -1.96013,0.95746 -1.543844,4.54227 -0.142578,6.05859 -0.51777,0.32875 -0.909944,0.82949 -1.230469,1.35547 l -0.130859,0.29492 c -0.275322,0.13561 -0.504941,0.33743 -0.681641,0.58399 -0.73556,0.0863 -1.327738,0.59251 -1.533203,1.25 -0.443802,0.4438 -0.615766,1.17064 -0.644531,1.82812 l 0.06055,0.63282 c -1.228677,0.9739 -1.146771,3.50941 0.04492,4.42578 l 0.05859,0.0371 0.0039,0.38281 0.01563,0.75977 c 0.08219,0.66979 0.33473,1.46663 0.873047,1.86523 0.11095,0.36573 0.307241,0.68163 0.611328,0.99805 l 0.167969,0.14453 0.0078,0.0781 -0.0078,0.60742 -0.01172,0.83008 c 0.05342,0.752 0.135028,1.49281 0.722656,1.99414 0.135607,1.12184 1.413147,1.4945 2.419922,1.40821 l 0.09961,-0.0117 c 0.213683,0.23833 0.444366,0.47613 0.740235,0.60351 l 0.751953,0.22266 0.513672,0.0332 0.242187,0.004 0.607422,0.18359 0.283203,0.14453 0.03711,0.0371 c 0.04109,0.0329 0.0697,0.0776 0.08203,0.12696 l 0.02148,0.0547 0.06055,0.51758 -0.04492,0.39844 -0.07422,0.0859 -0.146485,0.17578 c -0.875278,1.16703 -1.067988,3.31354 0.189453,4.32031 l -0.0625,0.0273 c -1.758775,0.93692 -2.12777,3.40755 -0.964844,5.00196 l 0.220704,0.23437 0.11914,0.0977 0.02539,0.11133 0.08594,0.26758 c 0.398601,0.91224 1.434071,1.93191 2.53125,2.20312 0.07808,0.11506 0.168958,0.2219 0.267578,0.31641 -0.44791,0.51366 -0.522422,1.18672 -0.542968,1.91406 l 0.08203,0.82617 0.0293,0.31641 -0.08984,0.0488 c -0.550644,0.33694 -0.921189,0.90488 -0.974609,1.52539 -1.462906,0.96978 -1.143059,3.63267 -0.263672,5.05859 -0.221901,0.31641 -0.328251,0.70255 -0.365235,1.10937 -0.255362,0.16008 -0.257488,0.50361 -0.404296,0.75977 z"
       transform="scale(264.58333)" /><path
       id="path1118"
       style="fill:#ff8c00;fill-opacity:1;stroke:none;stroke-width:0.543625;stroke-miterlimit:4;stroke-dasharray:none"
       d="M 5.8144531,160 H 517.4668 l 0.01,-0.0977 0.16406,-1.48437 0.2793,-1.04688 0.16992,-0.11523 0.27344,-0.20117 c 2.46146,-2.05876 0.3291,-5.82267 -1.11328,-7.79102 -0.8465,-1.15471 -0.45604,-2.58055 -1.70117,-3.67773 l -0.25391,-0.22656 v -0.004 l 0.16016,-0.20508 c 0.13973,-0.2219 0.27862,-0.45205 0.33203,-0.71094 l 0.0918,-0.79297 -0.0254,-0.41992 0.51757,-0.51758 c 0.45204,-0.64104 1.43063,-2.03861 1.64844,-2.79882 0.57528,-2.0341 -1.48004,-2.45693 -2.63476,-3.44727 l -0.60352,-0.54687 -0.32422,-0.2461 -0.01,-0.0488 -0.008,-0.6289 -0.0332,-0.88086 c -0.28766,-1.86562 -1.72014,-2.66207 -2.95703,-3.92774 l -0.38281,-0.35742 -0.20508,-0.17187 -0.0176,-0.0957 -0.0195,-0.41797 -0.0176,-0.61718 c -0.50547,-4.23668 -3.01492,-5.30424 -3.06836,-8.8711 -0.36571,-2.86417 -1.96886,-5.523 -3.15234,-8.14062 -0.94923,-2.10806 -0.24767,-5.1661 -2.11328,-6.78516 l -0.19141,-0.15234 -0.25586,-1.89453 -0.29492,-2.65821 -0.51758,-1.347652 c -0.42735,-1.249224 -1.07336,-2.186092 -1.01172,-3.558594 0.0945,-2.140939 0.55042,-4.027706 -1.2207,-5.601562 -0.40679,-0.361618 -1.10516,-0.62412 -1.26953,-1.195313 -0.64513,-2.239559 1.76659,-3.817097 0.20508,-6.253906 l -0.2754,-0.320312 -0.004,-0.0059 -0.19336,-1.039062 L 497.24805,80 H 32.255859 c -0.253087,0.395565 -0.533424,0.759563 -0.740234,1.205078 l -0.410156,1.09375 -0.238281,0.726563 -0.07422,0.205078 -0.246094,0.226562 -0.21875,0.212891 -0.257813,0.316406 c -0.591736,0.801309 -0.489614,1.800048 0.01172,2.605469 l 0.173828,0.242187 0.09766,0.128907 -0.0078,0.160156 c -0.34518,2.827189 -0.978136,1.441151 -3.673828,3.34375 l -0.130859,0.732422 -0.132813,0.849609 -0.01563,0.777344 0.0039,0.09766 -0.09961,0.166016 -0.115234,0.1875 -0.13086,0.259765 c -0.258885,0.632829 -0.257792,1.675678 -0.06055,2.666016 -1.569747,-0.439695 -3.399832,-0.54943 -4.320312,-0.853516 l -0.101563,-0.06641 -0.169921,-0.144531 -0.126954,-0.119141 -0.05273,-0.105469 -0.107422,-0.201171 -0.171875,-0.271485 c -0.423256,-0.51366 -0.974718,-0.863281 -1.644531,-0.863281 -0.312306,-0.821858 -0.615062,-1.86649 -1.330078,-2.236328 -1.335519,-3.455909 -3.84385,-1.149266 -4.830078,-0.5 l -0.06836,0.455078 -0.0098,0.126953 -0.197266,0.203125 c -0.645158,0.813642 -0.611723,1.745186 -0.08984,2.435547 -0.40271,0.349289 -0.635626,0.863059 -0.697265,1.5 l 0.01172,0.375 0.0332,0.279297 0.03711,0.25 -0.05859,0.123047 -0.193359,0.443359 L 11.75,97.806641 c -0.04109,0.304085 0.07863,0.68252 0.226562,0.941406 l 0.167969,0.265625 v 0.0059 l 0.0039,0.0078 0.0059,0.492187 0.01563,0.345703 c 0.110951,1.150608 0.657771,1.918358 1.615234,2.542968 l 0.291016,0.17383 0.111328,0.0644 0.15625,1.4961 -0.126953,1.17187 c -1.335518,0.81775 -1.459861,3.1795 -0.05859,4.01367 l -0.0039,0.0254 c -0.01233,1.60673 1.160121,2.93816 2.425781,3.83398 l -0.02539,0.30859 -0.06641,0.8086 c 0.0041,0.77254 0.03725,1.4872 0.587891,2.0625 l 0.164062,0.15234 0.06641,1.35742 0.115234,2.28907 0.06055,0.2539 c 0.04931,0.27943 0.252099,0.53888 0.486328,0.74024 l -0.0332,0.44726 -0.03711,0.91992 c 0.06164,0.9698 0.263113,1.84661 1.183593,2.30274 l 0.101563,0.041 -0.04492,0.81641 -0.08203,1.04883 c -0.0082,0.81775 -0.01665,1.40433 0.320312,2.11523 l 0.164063,0.2793 0.140625,0.20117 -0.04883,0.3418 c -0.05342,0.87938 0.546346,1.62832 1.347657,1.83789 l 0.01563,0.0723 0.04102,0.45704 v 0.004 l -0.179687,0.10352 -0.136719,0.0332 -0.257812,0.0723 -0.353516,0.15234 c -0.546535,0.28765 -0.871877,0.81337 -0.974609,1.38867 -1.376612,0.0658 -2.020701,1.39442 -1.917969,2.70117 l 0.0039,0.0449 -0.0625,0.0488 c -1.064305,0.96158 -0.796524,3.00888 0.263672,3.89649 l 0.111328,1.74219 -0.111328,1.80664 -0.07031,0.0469 c -0.694468,0.49723 -0.89514,1.2686 -0.882812,2.07813 -0.464349,0.34107 -0.757204,0.88852 -0.769531,1.48437 l -0.328125,0.23047 -0.460938,0.35156 -0.544922,0.54297 -0.115234,0.10742 -0.128906,0.0234 -0.205078,0.0469 -0.275391,0.0742 c -1.121835,0.41915 -1.524426,1.52855 -2.453125,2.13672 -0.961573,0.63283 -2.4038536,0.33292 -2.8476562,1.42188 -0.3944916,0.18492 -0.7191762,0.49573 -0.9082032,0.89844 -0.1150601,0.0699 -0.2216899,0.15178 -0.3203125,0.24218 -0.7355626,-0.0288 -1.4923044,0.18086 -1.8457031,0.90821 -0.5465352,1.11772 -0.7062543,3.896 0.5429688,4.77539 l -0.029297,0.3164 c 0.00205,0.0981 0.02975,0.18302 0.035156,0.2793 z"
       transform="scale(264.58333)" /><path
       id="path1093"
       style="fill:#e40303;fill-opacity:1;stroke:none;stroke-width:0.543625;stroke-miterlimit:4;stroke-dasharray:none"
       d="M 32.255859,80 H 497.24805 l -0.47071,-1.683594 -0.55078,-0.53125 -0.37695,-0.398437 v -0.115235 l 0.0254,-0.310546 0.0449,-0.375 0.29102,-0.275391 0.26758,-0.291016 c 1.32317,-1.680695 0.0824,-2.660151 -1.03125,-3.80664 l -0.33399,-0.392579 -0.0488,-0.0625 0.041,-0.0625 c 1.36018,-1.902602 2.16195,-4.526969 1.92773,-6.90625 -0.18905,-1.914927 -1.47123,-3.016942 -1.5,-4.808593 -0.037,-2.395714 -1.47996,-4.93542 -4.13867,-4.898438 l -0.35742,0.0293 -0.17188,0.01563 -0.0957,-0.25 c -1.24921,-3.003889 -3.13377,-7.380542 -6.98828,-7.03125 l -1.20508,0.230469 -0.91601,0.160156 -0.44727,-0.01172 -0.0332,-0.04102 -0.2793,-0.431641 c -0.71501,-1.064307 -1.53351,-2.765336 -3.0293,-2.296875 0.0247,-3.29565 -3.08538,-2.955761 -4.95507,-1.242187 l -0.41211,0.378906 -0.21289,0.238281 -0.0449,-0.11914 -0.0664,-0.263672 0.14843,-0.09766 c 2.26833,-1.824525 -0.24716,-3.270961 -1.96484,-3.755859 l 0.0215,-0.0332 0.16796,-0.337891 0.16407,-0.513672 c 0.24242,-1.088961 -0.563,-2.222755 -1.66016,-2.378906 l -0.52148,-0.02539 -0.38282,0.03711 -0.39062,0.06641 -0.12305,-0.0625 -0.34961,-0.175781 -0.5625,-0.197266 c -1.71356,-0.378055 -2.60461,-0.847279 -4.20312,-1.566406 -2.1738,-0.978009 -3.74341,1.007942 -4.54883,2.705078 l -0.11914,0.242188 -0.48633,0.830078 -0.10547,0.130859 -0.18945,-0.0078 -2.0586,-0.06641 c -1.56154,0.02055 -2.58409,-0.156326 -3.76757,0.714844 l -0.20703,0.173828 -0.0449,0.03711 -4.4414,-0.04492 -6.26758,0.574218 -0.0273,0.04492 -0.14063,0.177735 -0.004,0.0039 -6.89062,-0.185547 -7.5332,0.103516 -0.17969,0.123047 -0.44922,0.287109 -0.24609,0.144531 -0.20118,0.101563 -0.0117,0.0059 -9.30079,0.09375 -9.23632,0.103516 -3.82227,0.36914 -11.53125,0.390625 c -1.0684,0.06986 -1.90607,0.767067 -2.9375,0.935547 l -0.17187,0.01758 v -0.0039 l -0.19336,-0.238281 c -0.99855,-0.990338 -2.59767,-1.233127 -3.94141,-1.376953 l -0.8418,0.05273 -0.53515,0.148438 -0.25,0.07422 -0.35742,-0.05859 -0.59961,-0.15625 -0.81055,-0.191407 c -0.96567,-0.11506 -1.62211,-0.04214 -2.43164,0.455079 l -0.23047,0.160156 -0.0586,0.04492 -0.26172,-0.101563 -0.55078,-0.242187 -16.72461,-2.039063 -5.74219,-0.533203 -2.3457,0.09766 -1.4668,0.01172 -0.0996,-0.109375 -0.23828,-0.244141 c -1.22868,-0.994446 -3.91507,-1.465922 -5.04102,-0.06055 l -0.0176,0.02344 -0.0312,-0.04102 c -0.96568,-1.187584 -2.26495,-0.911701 -3.6621,-0.919922 l -10.69336,-1.880859 -2.40235,-0.308594 -2.62695,0.01953 -1.80274,-0.08203 -0.0469,-0.06055 c -1.75467,-2.021767 -5.44748,-0.181486 -7.61719,-0.263671 -0.61228,-0.02465 -0.94187,-0.838925 -1.52539,-1.015625 -3.08607,-0.916373 -6.67413,-0.41071 -9.63281,-1.466797 -1.22046,-0.439692 -2.10366,-1.038484 -3.48438,-0.931641 -3.41071,0.271211 -5.736,5.357682 -7.36328,7.921875 l -0.29101,0.46875 -0.23047,0.3125 -0.0449,0.04492 h -0.0176 l -0.52539,0.01953 c -0.4849,0.0904 -0.82556,0.178158 -1.1543,0.367188 -1.38894,-0.616396 -3.59252,0.345156 -4.76367,0.949218 L 286,42.8125 l -0.73047,0.521484 -1.55469,0.904297 c -1.08074,0.945135 -1.53132,1.62212 -2.63672,2.115235 l -1.67382,1.134765 -0.082,-0.01172 -0.28711,-0.06641 -0.0566,-0.01563 -3.75586,-0.933593 -0.23828,-0.09766 -0.17383,-0.0957 -0.0605,-0.04492 -0.27148,-0.636718 -0.16016,-0.867188 -0.004,-0.197266 c -0.0411,-0.908152 1.03441,-0.900921 1.64258,-0.929687 5.28454,-0.275324 10.46619,-2.871884 14.94531,-5.464844 1.91493,-1.113614 4.95192,-1.980062 4.66016,-4.794922 -0.28765,-2.818971 -3.06446,-2.803464 -4.72461,-1.167969 -3.64905,3.591519 -8.6048,4.956175 -13.32227,6.554688 -2.89704,0.982118 -5.52007,0.879738 -8.55273,1.060547 -2.72857,0.164372 -5.10778,1.194829 -7.82812,1.244141 l -0.51758,0.02148 -0.33594,0.01563 -0.125,-0.0039 -0.008,-0.0078 -0.20117,-0.208984 -0.35352,-0.398438 c -0.94924,-0.953352 -2.08651,-1.570186 -3.33984,-0.703125 l -0.23829,0.201172 -0.16406,0.171875 -0.17968,0.208984 -0.002,0.002 -0.375,0.335937 -0.22461,0.214844 -0.0176,0.01563 -0.65625,0.0625 -0.81445,-0.08789 -0.11914,-0.08984 -0.18945,-0.148438 -0.10156,-0.126953 -0.11915,-0.148438 -0.18164,-0.1875 c -0.5342,-0.472565 -1.02635,-0.584943 -1.75781,-0.802734 l -0.81055,-0.183594 -0.57812,-0.144531 -0.26758,-0.07813 -0.14062,-0.09766 -0.37696,-0.234375 -0.67773,-0.242188 -1.45508,-0.07813 -0.77344,-0.02148 -0.0156,-0.0293 -0.10352,-0.261719 0.004,-0.18164 C 245.79469,36.269768 243.24709,35.373943 241.88281,35 l -0.84179,-0.119141 -0.0625,0.0039 v -0.0039 c -0.14794,-0.254778 -0.30309,-0.514095 -0.53321,-0.703125 L 239.79883,33.75 l -0.45117,-0.191406 -0.12696,-0.05469 -0.008,-0.01953 -0.0625,-0.140625 -0.0703,-0.197266 c -0.58352,-2.190251 0.27959,-4.993284 -1.22852,-6.591796 0.20547,-0.189028 0.36622,-0.422147 0.46485,-0.69336 0.80541,-2.214905 -1.81984,-4.598309 -2.38282,-6.640625 -0.34106,-1.232786 -0.8889,-2.56393 -2.42578,-2.21875 -0.11917,-1.758774 1.23394,-3.925503 -1.1289,-4.800781 l -0.33008,-0.08203 -0.008,-0.01953 -0.29493,-0.476562 -0.42382,-0.494141 -0.59571,-0.505859 -0.28711,-0.130859 0.0371,-1.5488286 0.0234,-0.2636719 c 4.05587,1.6971355 8.67549,3.7144265 11.84375,6.8457035 2.18203,2.157375 4.03952,7.455561 7.74609,7.40625 1.81631,-0.02466 3.03569,-1.582162 2.23438,-3.279297 -2.28066,-4.84074 -8.27499,-7.709755 -12.75,-10.105469 C 238.43184,8.9387006 237.23568,8.348003 236.02344,7.7480469 235.19747,7.0946705 233.58309,6.1439113 231.98047,5.6425781 230.15184,4.6152564 228.40533,3.4769552 226.92188,2.125 l -0.5918,-0.6113281 -0.0293,-0.052734 c -1.5944,-1.63960555 -2.99544,-2.10846148 -5.41992,-0.3085937 l -0.29688,0.2421874 -0.0449,0.033203 -0.2207,-0.00391 -0.50586,-0.087891 -0.70312,-0.1464844 C 213.11393,0.48676525 206.56474,0.45312043 200.90625,2.4296875 l -10.58203,2.7207031 c -4.26955,1.3067532 -9.04105,2.4400711 -13.38867,2.1113282 -2.50667,-0.1890275 -5.73576,0.8586425 -8.11914,1.6640624 -2.95047,0.9903383 -6.04101,4.3930808 -9.16407,4.5410158 -1.14238,0.05342 -2.39488,0.456184 -2.625,1.738281 l -0.0137,0.148438 -0.0449,0.01172 c -1.49989,0.710907 -2.59225,1.890899 -3.80859,2.992188 l -1.02735,0.9375 -0.6875,0.509766 -0.58203,0.328124 -0.041,0.0039 -0.33789,0.02148 -0.55469,0.101563 -4.51172,1.044922 c -3.46002,1.191693 -7.01948,0.845473 -10.57813,1.798828 -3.06963,0.821857 -6.49709,2.770204 -8.76953,5.009765 -2.70802,2.666928 -3.91163,6.360593 -6.45117,9.142578 -2.67925,2.93814 -5.55964,6.362139 -9.05664,8.322266 -3.64083,2.038209 -7.29443,2.506635 -11.296875,2.925781 l -1.068359,0.22461 -0.796875,0.341796 -0.566407,0.28711 -1.082031,0.05469 -1.695312,0.216797 -1.365235,0.53125 c -1.051975,0.431475 -2.02962,1.527015 -3.208984,1.494141 -1.528657,-0.03698 -3.871996,0.119441 -5.158203,1.101562 l -0.357422,0.283203 -0.230469,0.214844 -0.191406,-0.0625 c -0.76433,-0.201354 -1.578263,-0.127599 -2.128906,0.320313 -1.676591,-0.752002 -2.231419,0.477908 -3.595704,1.320312 -2.292982,1.413593 -7.364975,-0.995466 -8.4375,1.996094 l -0.5,-0.05273 -1.048828,-0.119141 c -1.664258,0 -2.304749,0.78829 -3.726562,1.199219 L 50.3125,62.570312 c -1.487562,0.649267 -4.019939,0.610598 -4.841797,2.246094 l -0.06445,0.144532 c -2.786094,-0.238341 -6.921031,0.419587 -9.033203,2.363281 -0.780764,0.723235 0.387193,1.976383 0.654297,3.007812 l 0.853515,-0.300781 0.01367,0.0332 0.02734,-0.01953 0.203125,-0.0957 c 1.027325,-0.35751 -0.704263,1.05242 0.109375,2.363281 L 38,72.505859 c -0.546535,0.497224 -0.611783,1.195748 -0.681641,1.898438 -1.269769,-0.213683 -2.515104,0.47561 -3,1.917969 -0.468218,1.401573 -1.304795,2.493472 -2.0625,3.677734 z"
       transform="scale(264.58333)" /><path
       style="fill:#e40303;fill-opacity:1;stroke:none;stroke-width:143.834;stroke-miterlimit:4;stroke-dasharray:none"
       id="path1050"
       d="m 9119.7012,18090.026 188.8491,464.233 101.1141,437.074 -236.3331,660.531 -571.4927,484.342 -369.6646,335.96 -404.4566,470.778 -202.2283,337.047 -66.3221,538.189 -235.933,505.57 -202.2283,-202.228 -67.4094,-370.752 -268.5505,-101.114 -539.2754,-167.436 -470.7787,-33.705 h -303.3425 l -234.8457,-134.819 33.7047,-337.047 -168.5236,-100.027 -437.074,32.618 -438.1612,134.818 v 303.343 h -470.7788 l -370.7518,-269.638 33.7047,-369.664 134.8188,-303.343 337.0472,-33.705 268.5504,202.229 337.0472,-67.41 234.8457,-168.523 370.7518,-167.437 235.933,-235.933 605.5976,-404.456 437.074,-133.732 605.5976,-370.752 404.4566,-134.818 403.3693,-168.524 101.1141,-167.436 504.4835,101.114 67.4094,-303.343 z"
       sodipodi:nodetypes="ccccccccccccccccccccccccccccccccccccccccc" /></g></g></svg>
