<?xml version="1.0" encoding="UTF-8" standalone="no"?>
<svg
   xmlns:dc="http://purl.org/dc/elements/1.1/"
   xmlns:cc="http://creativecommons.org/ns#"
   xmlns:rdf="http://www.w3.org/1999/02/22-rdf-syntax-ns#"
   xmlns:svg="http://www.w3.org/2000/svg"
   xmlns="http://www.w3.org/2000/svg"
   xmlns:sodipodi="http://sodipodi.sourceforge.net/DTD/sodipodi-0.dtd"
   xmlns:inkscape="http://www.inkscape.org/namespaces/inkscape"
   height="171.70152"
   width="405"
   version="1.1"
   x="0px"
   y="0px"
   viewBox="0 0 135 57.233839"
   style="fill:#000000"
   xml:space="preserve"
   id="svg20"
   sodipodi:docname="poolse_landdag.svg"
   inkscape:version="1.0.2-2 (e86c870879, 2021-01-15)"
   inkscape:export-filename="C:\Users\A599131\Documents\TAAL\rebus\Poolsee landdag\pic-pl.png"
   inkscape:export-xdpi="96"
   inkscape:export-ydpi="96"><metadata
     id="metadata26"><rdf:RDF><cc:Work
         rdf:about=""><dc:format>image/svg+xml</dc:format><dc:type
           rdf:resource="http://purl.org/dc/dcmitype/StillImage" /><dc:title></dc:title></cc:Work></rdf:RDF></metadata><defs
     id="defs24" /><sodipodi:namedview
     pagecolor="#ffffff"
     bordercolor="#666666"
     borderopacity="1"
     objecttolerance="10"
     gridtolerance="10"
     guidetolerance="10"
     inkscape:pageopacity="0"
     inkscape:pageshadow="2"
     inkscape:window-width="1920"
     inkscape:window-height="1057"
     id="namedview22"
     showgrid="false"
     inkscape:zoom="0.55625733"
     inkscape:cx="539.82753"
     inkscape:cy="242.7396"
     inkscape:window-x="-8"
     inkscape:window-y="-8"
     inkscape:window-maximized="1"
     inkscape:current-layer="g1762"
     showguides="false"
     inkscape:document-rotation="0"
     fit-margin-top="0"
     fit-margin-left="0"
     fit-margin-right="0"
     fit-margin-bottom="0" /><g
     style="display:inline"
     inkscape:label="layer"
     id="g1762"
     inkscape:groupmode="layer"
     transform="translate(-35.833333,-111.77856)"><g
       transform="matrix(0.15983818,0,0,0.15983818,35.833333,111.77856)"
       id="g108"
       style="display:inline;fill:#000000"><path
         inkscape:connector-curvature="0"
         d="m 548.734,230.035 1.051,-12.062 -0.739,-9.306 -0.371,-4.667 -0.169,-2.115 c -1.586,-1.415 -3.237,-2.822 -4.953,-4.217 -0.842,-0.684 -1.698,-1.363 -2.57,-2.039 -0.403,-0.311 -0.805,-0.624 -1.215,-0.935 l -0.071,0.896 -0.165,2.077 -0.505,6.333 -0.371,4.668 -0.604,7.584 1.203,13.783 c -0.789,0.037 -1.559,0.083 -2.31,0.139 l -0.483,6.079 c 1.058,-0.092 2.164,-0.164 3.317,-0.218 l 0.977,11.208 c -3.143,1.118 -5.397,4.111 -5.397,7.638 0,4.48 3.633,8.111 8.113,8.111 4.48,0 8.111,-3.631 8.111,-8.111 0,-3.137 -1.783,-5.854 -4.389,-7.203 l 1.016,-11.646 c 1.048,0.048 2.056,0.112 3.025,0.193 l -0.482,-6.068 c -0.66,-0.048 -1.33,-0.09 -2.019,-0.122 z"
         id="path2" /><path
         inkscape:connector-curvature="0"
         d="m 510.806,262.965 c 2.189,-0.143 4.138,-1.153 5.512,-2.692 -0.842,-0.306 -1.642,-0.688 -2.399,-1.137 -0.71,1.52 -1.784,2.833 -3.113,3.829 z"
         id="path4" /><path
         inkscape:connector-curvature="0"
         d="m 571.382,260.273 c 1.485,1.665 3.642,2.719 6.05,2.719 4.481,0 8.111,-3.631 8.111,-8.111 0,-3.271 -1.939,-6.083 -4.728,-7.367 -0.292,5.805 -4.08,10.813 -9.433,12.759 z"
         id="path6" /><path
         inkscape:connector-curvature="0"
         d="m 575.922,133.668 c 0,-1.871 -1.291,-3.43 -3.026,-3.867 v 10.764 h 3.026 z"
         id="path8" /><path
         inkscape:connector-curvature="0"
         d="m 511.422,181.448 c 0.169,0.37 0.327,0.755 0.49,1.133 l 0.322,-4.058 c -0.272,-0.119 -0.539,-0.242 -0.813,-0.36 v 3.285 z"
         id="path10" /><path
         inkscape:connector-curvature="0"
         d="m 511.422,133.668 v 6.896 h 3.382 V 129.73 c -1.913,0.299 -3.382,1.941 -3.382,3.938 z"
         id="path12" /><path
         inkscape:connector-curvature="0"
         d="m 555.608,208.668 c -1.468,-1.503 -3.009,-3.011 -4.618,-4.517 -0.054,-0.051 -0.109,-0.101 -0.163,-0.151 -0.053,-0.049 -0.106,-0.098 -0.159,-0.146 l 0.012,0.146 0.154,1.946 0.217,2.722 1.722,21.657 0.484,6.095 0.902,11.348 c 0.541,6.807 6.499,11.885 13.306,11.344 0.954,-0.076 1.869,-0.268 2.745,-0.545 4.108,-1.295 7.228,-4.65 8.262,-8.78 0.233,-0.93 0.361,-1.895 0.369,-2.888 0.003,-0.361 -0.002,-0.725 -0.031,-1.092 l -0.448,-5.643 -0.122,-1.526 c -3.332,-5.765 -7.537,-12.193 -12.749,-18.758 -2.864,-3.608 -6.151,-7.393 -9.883,-11.212 z"
         id="path14" /><path
         inkscape:connector-curvature="0"
         d="m 502.767,109.959 c -0.663,0.982 -1.519,1.85 -2.505,2.543 v 2.826 2.239 c 0.36,-0.557 0.718,-1.104 1.072,-1.64 6.223,-9.419 11.444,-15.706 15.47,-19.828 v 33.568 10.896 h 23.313 l -5.693,-7.191 0.503,-3.705 4.969,-36.616 c 1.297,0.486 2.662,0.74 4.026,0.739 h 0.002 c 0,0 0.004,0 0.006,0 1.363,0 2.726,-0.254 4.02,-0.74 l 4.971,36.617 0.503,3.705 -5.693,7.191 h 23.166 V 129.667 96.113 c 6.694,6.861 16.688,19.631 29.123,42.984 0.289,0.541 0.643,1.021 1.028,1.467 h 12.076 c 2.102,-2.43 2.618,-5.99 1.016,-8.996 -13.614,-25.512 -24.796,-39.76 -33.007,-47.865 -8.195,-8.086 -13.532,-10.047 -15.127,-10.465 -0.407,-0.107 -0.814,-0.172 -1.221,-0.215 -0.521,-0.111 -1.061,-0.174 -1.617,-0.174 h -1.858 c -4.472,4.551 -10.661,7.303 -17.439,7.303 -1.865,0 -3.739,-0.217 -5.573,-0.643 -4.579,-1.065 -8.65,-3.386 -11.869,-6.66 h -1.895 c -0.557,0 -1.098,0.063 -1.621,0.174 -0.404,0.043 -0.811,0.107 -1.216,0.215 l -0.003,-0.002 c -1.466,0.386 -6.102,2.089 -13.208,8.643 0.045,1.093 0.074,2.179 0.074,3.25 0.026,16.326 -5.557,24.492 -5.793,24.83 z m 37.355,-29.086 h 3.801 3.799 l 1.9,7.5 -0.289,0.456 c -1.566,1.306 -3.484,1.96 -5.412,1.962 -1.928,-0.002 -3.843,-0.655 -5.407,-1.958 l -0.292,-0.46 z"
         id="path16" /><path
         inkscape:connector-curvature="0"
         d="m 513.578,186.855 c 0.722,2.064 1.374,4.251 1.966,6.559 0.084,0.329 0.174,0.646 0.256,0.98 0.26,1.065 0.502,2.16 0.733,3.273 0.716,3.432 1.302,7.09 1.76,11 0.835,7.123 1.25,15.072 1.254,24 0,0.418 -0.026,0.828 -0.063,1.237 -0.506,5.745 -4.49,10.504 -9.834,12.144 0.402,0.224 0.786,0.473 1.15,0.746 1.086,0.814 1.992,1.832 2.672,2.991 0.89,1.517 1.396,3.265 1.396,5.095 0,0.806 -0.104,1.586 -0.283,2.338 0.893,0.568 1.867,1.021 2.903,1.348 0.876,0.276 1.792,0.469 2.747,0.545 6.807,0.541 12.765,-4.537 13.306,-11.344 l 0.9,-11.309 0.485,-6.108 1.724,-21.683 0.354,-4.444 0.017,-0.224 0.504,-6.332 0.172,-2.161 0.176,-2.221 c -6.938,-5.067 -14.813,-9.829 -23.701,-13.903 z"
         id="path18" /><path
         inkscape:connector-curvature="0"
         d="m 529.353,72.85 c 2.632,2.222 5.811,3.876 9.396,4.711 7.183,1.672 14.363,-0.3 19.602,-4.711 0.734,-0.618 1.426,-1.288 2.078,-1.998 2.535,-2.76 4.419,-6.188 5.329,-10.1 2.817,-12.1 -4.709,-24.191 -16.807,-27.01 -12.1,-2.816 -24.193,4.707 -27.012,16.807 -1.748,7.51 0.489,15.014 5.328,20.303 0.65,0.708 1.347,1.374 2.086,1.998 z"
         id="path20" /><path
         inkscape:connector-curvature="0"
         d="m 78.041,247.262 v -4.59 l -0.419,-0.705 C 77.218,241.129 70.421,231.15 46.578,230.034 l 1.631,-18.704 h 28.26 c 1.654,0 2.996,-1.342 2.996,-2.996 v -11.131 c 0,-1.654 -1.342,-2.996 -2.996,-2.996 0,0 -11.98,2.572 -35.191,2.572 -11.224,0 -18.523,-0.602 -23.078,-1.223 -0.934,-4.121 -1.807,-8.832 -2.256,-13.504 -1.248,-12.979 5.767,-49.242 5.767,-49.242 0,-1.652 -1.341,-2.994 -2.995,-2.994 H 5.535 c -1.654,0 -2.994,1.342 -2.994,2.994 L 2.54,208.334 c 0,1.654 1.341,2.996 2.995,2.996 h 6.067 7.112 16.753 l 1.631,18.704 C 13.254,231.148 6.459,241.129 6.053,241.967 l -0.42,0.707 v 4.482 C 2.366,248.204 0,251.265 0,254.881 c 0,4.48 3.631,8.111 8.111,8.111 4.482,0 8.113,-3.631 8.113,-8.111 0,-3.217 -1.876,-5.987 -4.59,-7.3 l -0.001,-3.061 c 1.617,-1.795 7.963,-7.647 25.989,-8.483 l 0.978,11.207 c -3.142,1.119 -5.396,4.111 -5.396,7.638 0,4.48 3.632,8.111 8.112,8.111 4.48,0 8.111,-3.631 8.111,-8.111 0,-3.137 -1.783,-5.854 -4.388,-7.203 l 1.015,-11.645 c 10.568,0.481 17.143,2.727 21.073,4.828 2.214,1.186 3.602,2.331 4.413,3.127 0.202,0.197 0.368,0.374 0.501,0.524 v 2.93 c -2.87,1.25 -4.879,4.109 -4.879,7.439 0,4.48 3.632,8.111 8.112,8.111 4.48,0 8.112,-3.631 8.112,-8.111 0.002,-3.509 -2.228,-6.487 -5.345,-7.62 z"
         id="path22" /><ellipse
         transform="matrix(0.2268,-0.9739,0.9739,0.2268,65.5445,175.2298)"
         cx="143.133"
         cy="46.334"
         rx="22.493999"
         ry="22.495001"
         id="ellipse24" /><path
         inkscape:connector-curvature="0"
         d="m 124.985,253.169 c 6.287,-17.82 8.185,-36.204 8.195,-52.573 -0.025,-30.075 -6.465,-53.564 -6.622,-54.221 -0.004,-0.015 -0.01,-0.028 -0.014,-0.043 0.341,-1.634 0.556,-3.296 0.6,-4.965 0.133,-7.375 1.053,-14.696 2.726,-21.842 -2.86,-3.094 -5.423,-6.477 -7.663,-10.131 -6.941,-11.37 -8.646,-21.666 -9.003,-24.549 l -0.004,-0.031 -0.012,-0.116 c -0.568,-5.484 3.432,-10.408 8.916,-10.979 0.35,-0.035 0.696,-0.054 1.039,-0.054 5.136,0 9.409,3.857 9.94,8.972 0.008,0.052 0.029,0.201 0.062,0.411 0.054,0.335 0.176,1.042 0.402,2.03 0.37,1.606 1.058,4.087 2.224,6.948 0.071,0.174 0.137,0.344 0.211,0.52 0.589,1.397 1.254,2.732 1.953,4.039 1.416,2.649 3.051,5.111 4.907,7.373 -0.9,-7.162 -2.182,-14.475 -3.624,-20.045 -0.752,-5.572 -3.285,-10.782 -7.816,-14.385 -8.586,-6.893 -23.865,-1.947 -30.703,12.672 -8.564,18.313 -13.182,38.232 -13.547,58.445 -0.258,14.133 8.566,24.448 17.978,25.175 1.499,8.732 3.065,21.132 3.053,34.774 0.013,14.398 -1.751,30.11 -6.764,44.238 -2.303,6.507 1.108,13.65 7.617,15.952 1.379,0.487 2.786,0.719 4.169,0.719 5.145,0.003 9.966,-3.203 11.78,-8.334 z"
         id="path26" /><path
         inkscape:connector-curvature="0"
         d="m 135.663,125.028 c 0.862,2.607 1.64,5.28 2.319,8.021 0.925,-1.378 1.819,-2.787 2.695,-4.217 -0.374,-0.257 -0.763,-0.497 -1.13,-0.762 -1.342,-0.963 -2.628,-1.986 -3.884,-3.042 z"
         id="path28" /><path
         inkscape:connector-curvature="0"
         d="m 136.125,97.483 c -0.764,-1.431 -1.426,-2.827 -1.988,-4.159 -1.323,-3.139 -2.104,-5.895 -2.543,-7.8 -0.217,-0.952 -0.352,-1.691 -0.427,-2.158 -0.037,-0.233 -0.06,-0.397 -0.072,-0.488 -0.002,-0.013 -0.003,-0.023 -0.004,-0.033 -0.456,-4.396 -4.388,-7.589 -8.782,-7.135 -4.394,0.456 -7.589,4.386 -7.133,8.782 l -0.002,-0.002 c 0.097,0.725 1.228,11.557 8.738,23.86 1.782,2.91 3.95,5.896 6.536,8.817 1.3,1.47 2.716,2.919 4.244,4.337 1.839,1.707 3.829,3.369 6.022,4.943 0.322,0.231 0.654,0.459 0.984,0.687 7.481,5.166 16.985,9.314 28.724,11.408 0.477,0.085 0.951,0.127 1.419,0.127 3.8,0 7.171,-2.72 7.866,-6.592 0.778,-4.349 -2.116,-8.506 -6.465,-9.285 -10.078,-1.813 -17.505,-5.266 -23.198,-9.343 -2.602,-1.867 -4.847,-3.887 -6.792,-5.969 -2.593,-2.775 -4.643,-5.662 -6.27,-8.461 -0.299,-0.515 -0.586,-1.028 -0.857,-1.536 z"
         id="path30" /><path
         inkscape:connector-curvature="0"
         d="m 844.239,236.367 c -0.046,-1.654 -1.424,-2.959 -3.076,-2.912 0,0 -36.056,8.012 -49.063,7.123 -4.684,-0.32 -9.417,-1.064 -13.562,-1.883 -0.746,-4.535 -1.549,-11.815 -1.859,-23.035 -0.639,-23.203 1.6,-35.25 1.6,-35.25 -0.045,-1.652 -1.423,-2.957 -3.076,-2.91 l -11.126,0.307 c -1.653,0.045 -2.959,1.424 -2.913,3.076 l 0.78,28.249 -18.655,2.146 c -1.769,-23.806 -11.936,-30.322 -12.783,-30.706 l -0.721,-0.401 -4.584,0.128 c -1.219,-3.082 -4.258,-5.228 -7.763,-5.131 -4.478,0.123 -8.009,3.854 -7.885,8.334 0.124,4.479 3.854,8.008 8.334,7.885 3.329,-0.092 6.133,-2.18 7.302,-5.084 l 2.921,-0.081 c 1.841,1.571 7.862,7.757 9.195,25.745 l -11.608,1.336 c -1.422,-2.566 -4.185,-4.273 -7.321,-4.188 -4.479,0.123 -8.01,3.854 -7.885,8.332 0.123,4.48 3.854,8.008 8.332,7.885 3.524,-0.097 6.455,-2.433 7.486,-5.605 l 11.232,0.669 c -0.201,10.99 -2.417,17.72 -4.477,21.65 -1.083,2.062 -2.126,3.364 -2.849,4.13 -0.162,0.17 -0.308,0.313 -0.434,0.432 l -3.065,0.083 c -1.387,-2.676 -4.208,-4.475 -7.424,-4.385 -4.479,0.123 -8.009,3.854 -7.886,8.332 0.124,4.479 3.855,8.01 8.333,7.887 3.615,-0.101 6.609,-2.551 7.566,-5.847 l 4.478,-0.123 0.697,-0.439 c 0.815,-0.429 10.624,-7.502 11.061,-31.363 l 18.755,1.116 0.462,16.746 0.363,13.176 c 0.046,1.652 1.424,2.955 3.078,2.91 l 75.493,-2.084 c 1.652,-0.045 2.957,-1.422 2.911,-3.074 z"
         id="path32" /><path
         inkscape:connector-curvature="0"
         d="m 663.978,74.367 c -1.595,1.269 -2.94,2.739 -4.052,4.351 1.567,0.045 2.991,0.064 4.254,0.063 4.278,0 6.811,-0.207 7.086,-0.23 0.352,-0.032 0.67,-0.047 0.985,-0.047 5.183,0 9.456,3.893 9.944,9.056 0.525,5.485 -3.515,10.375 -9.007,10.899 -0.345,0.032 -3.521,0.32 -9.009,0.32 -1.402,0 -2.984,-0.021 -4.724,-0.071 -0.897,-0.026 -1.837,-0.061 -2.818,-0.104 -0.818,-0.036 -1.669,-0.08 -2.544,-0.132 -1.785,10.06 -2.982,21.766 -2.888,29.117 1.914,3.578 3.982,7.012 6.188,10.297 0.945,-3.811 2.074,-7.498 3.365,-11.049 -1.185,-7.03 -1.71,-14.155 -1.604,-21.286 5.729,12.795 8.826,26.626 9.079,40.653 0.054,2.036 0.337,4.067 0.829,6.042 -1.568,2.429 -3.294,5.412 -5.006,8.993 -5.056,10.551 -9.893,26.219 -9.881,46.79 -0.002,12.547 1.782,26.896 6.28,42.997 1.541,5.526 6.564,9.144 12.034,9.144 1.111,0 2.242,-0.149 3.365,-0.462 6.649,-1.857 10.535,-8.752 8.682,-15.401 -3.925,-14.06 -5.361,-26.096 -5.361,-36.277 0.011,-16.679 3.833,-28.442 7.438,-36.009 0.24,-0.504 0.481,-0.986 0.718,-1.452 10.415,1.446 21.181,-9.496 20.896,-25.085 -0.365,-20.213 -4.982,-40.133 -13.548,-58.445 C 687.846,72.42 672.566,67.475 663.978,74.367 Z"
         id="path34" /><ellipse
         transform="matrix(0.9739,-0.2268,0.2268,0.9739,5.3918,149.2718)"
         cx="652.245"
         cy="51.174"
         rx="22.495001"
         ry="22.493999"
         id="ellipse36" /><path
         inkscape:connector-curvature="0"
         d="m 664.181,96.78 c 5.452,0 8.595,-0.29 8.818,-0.312 4.398,-0.419 7.627,-4.323 7.207,-8.721 -0.417,-4.398 -4.32,-7.625 -8.719,-7.207 h -0.002 c 0,0 0,0 -0.049,0.004 -0.424,0.036 -2.984,0.236 -7.256,0.236 -1.586,0 -3.414,-0.028 -5.45,-0.103 -11.795,-0.426 -30.773,-2.396 -52.792,-9.457 -4.209,-1.348 -8.711,0.969 -10.061,5.177 -1.348,4.206 0.972,8.711 5.18,10.059 21.592,6.917 40.424,9.312 53.401,10.039 0.609,0.035 1.21,0.066 1.794,0.094 1.181,0.055 2.301,0.095 3.37,0.124 1.657,0.047 3.185,0.067 4.559,0.067 z"
         id="path38" /><path
         inkscape:connector-curvature="0"
         d="m 265.924,232.423 c -1.777,-0.516 -3.743,-0.975 -5.904,-1.356 l -4.747,0.779 0.353,4.649 c 5.087,0.612 9.002,1.66 11.979,2.815 -1.07,-1.978 -1.679,-4.239 -1.679,-6.642 0,-0.084 -0.002,-0.162 -0.002,-0.245 z"
         id="path40" /><path
         inkscape:connector-curvature="0"
         d="m 212.006,262.992 c 2.071,0 3.955,-0.782 5.388,-2.058 l -9.805,0.744 c 1.271,0.829 2.786,1.314 4.417,1.314 z"
         id="path42" /><path
         inkscape:connector-curvature="0"
         d="m 279.389,249.787 c -0.528,-0.88 -1.054,-1.85 -1.57,-2.898 -0.071,-0.144 -0.142,-0.283 -0.213,-0.431 -0.567,-0.096 -1.125,-0.217 -1.667,-0.378 v 1.361 c -2.871,1.249 -4.879,4.108 -4.879,7.439 0,4.48 3.631,8.111 8.111,8.111 3.397,0 6.303,-2.089 7.511,-5.051 -1.545,-1.028 -4.442,-3.406 -7.293,-8.153 z"
         id="path44" /><path
         inkscape:connector-curvature="0"
         d="m 252.511,195.471 0.167,2.197 0.835,11 h 10.912 c -0.644,-4.398 -1.41,-7.712 -2.118,-10.127 -0.089,-0.303 -0.184,-0.581 -0.275,-0.873 -0.311,-0.995 -0.632,-1.947 -0.97,-2.822 -0.952,-2.458 -2.013,-4.426 -3.172,-5.909 -1.924,1.247 -3.787,2.52 -5.585,3.815 z"
         id="path46" /><path
         inkscape:connector-curvature="0"
         d="m 216.547,129.729 c -1.916,0.298 -3.387,1.939 -3.387,3.939 v 6.896 h 3.387 z"
         id="path48" /><ellipse
         transform="matrix(0.9739,-0.2268,0.2268,0.9739,-8.6642,59.2646)"
         cx="253.59"
         cy="67.338997"
         rx="23.49"
         ry="23.489"
         id="ellipse50" /><path
         inkscape:connector-curvature="0"
         d="m 272.598,229.002 -4.688,0.77 c 0.011,0.948 0.017,1.912 0.016,2.896 0,0.131 0.016,0.258 0.02,0.388 0.1,3.1 1.366,5.902 3.385,7.977 1.056,1.086 2.316,1.969 3.719,2.593 0.5,0.223 1.018,0.411 1.551,0.564 -1.016,-2.456 -1.956,-5.304 -2.743,-8.604 -0.483,-2.023 -0.911,-4.209 -1.26,-6.584 z"
         id="path52" /><path
         inkscape:connector-curvature="0"
         d="m 218.545,129.668 v 10.896 h 19.945 l 1.479,-10.896 1.593,-11.739 c 1.297,0.486 2.662,0.74 4.026,0.739 h 0.002 c 0,0 0.004,0 0.006,0 1.363,0 2.726,-0.254 4.021,-0.74 l 1.137,8.378 c 1.835,-2.223 4.61,-3.642 7.709,-3.642 h 0.119 c 5.303,0 10.04,-0.168 14.053,-0.486 v -5.679 c 0.661,0.36 1.33,0.733 2,1.117 0.701,0.401 1.401,0.813 2.092,1.235 1.152,0.698 2.269,1.425 3.303,2.142 0.892,0.619 1.726,1.233 2.447,1.813 -0.977,0.242 -2.141,0.477 -3.488,0.672 -1.281,0.2 -2.742,0.378 -4.353,0.534 -0.643,0.063 -1.304,0.122 -2,0.177 -3.873,0.302 -8.573,0.479 -14.17,0.477 -3.25,0 -6.04,1.94 -7.293,4.723 -0.042,0.093 -0.083,0.184 -0.121,0.279 -0.375,0.927 -0.586,1.938 -0.586,2.998 0,1.944 0.694,3.726 1.846,5.112 1.219,1.467 2.956,2.482 4.928,2.786 h 8.435 c 2.494,-0.071 4.802,-0.183 6.961,-0.331 0.683,-0.046 1.349,-0.097 2,-0.151 1.045,-0.088 2.057,-0.185 3.025,-0.293 3.899,-0.435 7.204,-1.034 10.057,-1.814 3.338,-0.951 6.166,-2.1 8.73,-4.195 1.264,-1.051 2.451,-2.398 3.301,-4.055 0.085,-0.161 0.147,-0.336 0.223,-0.503 v -9.918 c -0.409,-0.955 -0.895,-1.814 -1.393,-2.581 -0.132,-0.196 -0.273,-0.378 -0.409,-0.567 -2.193,-3.057 -4.869,-5.271 -7.739,-7.403 -5.917,-4.283 -12.954,-7.885 -17.204,-9.912 -2.266,-1.081 -3.742,-1.715 -3.831,-1.764 -0.706,-0.306 -1.431,-0.494 -2.157,-0.589 -0.735,-0.231 -1.517,-0.358 -2.329,-0.358 h -38.637 c -0.405,0 -0.8,0.041 -1.188,0.101 -0.577,-0.442 -1.234,-0.968 -1.945,-1.571 -1.548,-1.312 -3.34,-2.981 -5.074,-4.953 -4.421,-4.993 -8.137,-11.483 -8.098,-18.59 0.017,-4.061 1.084,-8.608 4.422,-14.086 3.34,-5.456 9.056,-11.768 18.23,-18.618 3.541,-2.642 4.267,-7.657 1.624,-11.195 -2.644,-3.54 -7.658,-4.269 -11.196,-1.625 -10.371,7.749 -17.59,15.41 -22.295,23.07 -4.708,7.638 -6.802,15.348 -6.785,22.453 -0.002,6.507 1.701,12.381 4.112,17.352 3.638,7.475 8.786,13.055 13.001,16.898 2.143,1.942 4.059,3.435 5.468,4.46 0.899,0.654 1.587,1.115 1.998,1.383 v 18.459 z m 23.244,-23.918 h 3.801 3.799 l 1.9,7.5 -0.289,0.456 c -1.566,1.306 -3.484,1.96 -5.412,1.962 -1.928,-0.002 -3.843,-0.655 -5.408,-1.958 l -0.292,-0.46 z"
         id="path54" /><path
         inkscape:connector-curvature="0"
         d="m 282.491,227.373 c 1.007,6.864 2.651,11.719 4.312,15.116 3.092,-2.17 5.119,-5.756 5.119,-9.821 0,-1.6 -0.018,-3.154 -0.045,-4.684 -0.601,-0.561 -1.145,-1.188 -1.6,-1.891 z"
         id="path56" /><path
         inkscape:connector-curvature="0"
         d="m 291.19,213.928 c -0.614,-7.218 -1.609,-13.506 -2.96,-19.057 -0.185,-0.759 -0.383,-1.495 -0.582,-2.228 l -0.598,0.046 c -0.619,0.752 -1.509,2.041 -2.396,4.049 -0.466,1.059 -0.953,2.377 -1.399,3.979 -0.523,1.882 -0.99,4.159 -1.299,6.884 -0.256,2.26 -0.405,4.825 -0.387,7.729 l 8.509,0.096 c 0.323,-0.541 0.704,-1.033 1.112,-1.498 z"
         id="path58" /><path
         inkscape:connector-curvature="0"
         d="m 259.591,187.849 c 1.128,1.482 2.354,3.635 3.531,6.802 0.341,0.917 0.678,1.919 1.007,3.018 0.031,0.105 0.064,0.203 0.095,0.311 0.856,2.917 1.616,6.468 2.223,10.689 0.289,2.01 0.543,4.175 0.754,6.5 l 4.349,0.049 c -0.013,-2.342 0.074,-4.519 0.237,-6.549 0.348,-4.325 1.053,-7.963 1.94,-11.007 0.48,-1.647 1.013,-3.119 1.571,-4.433 0.765,-1.8 1.575,-3.301 2.362,-4.537 2.181,-3.425 4.171,-4.84 4.439,-5.018 l -0.116,0.074 0.673,-0.473 0.447,-0.32 0.552,-0.041 0.576,-0.044 c -0.947,-2.141 -1.989,-4.134 -3.126,-5.993 -1.164,0.47 -2.313,0.952 -3.445,1.445 -6.543,2.849 -12.559,6.07 -18.069,9.527 z"
         id="path60" /><path
         inkscape:connector-curvature="0"
         d="m 415.053,232.422 c -4.103,-1.189 -9.186,-2.094 -15.45,-2.386 l 1.863,-21.368 h 12.088 c -0.645,-4.398 -1.409,-7.712 -2.118,-10.127 -0.089,-0.303 -0.184,-0.581 -0.274,-0.873 -0.312,-0.995 -0.632,-1.947 -0.971,-2.822 -1.347,-3.478 -2.908,-6.001 -4.663,-7.512 -0.965,-0.809 -1.84,-1.266 -3.205,-1.662 -1.584,-0.461 -3.881,-0.674 -7.225,-0.674 h -0.371 -0.492 c -3.651,0 -6.11,0.275 -7.738,0.865 -1.734,0.686 -2.934,1.271 -4.982,4.352 -0.632,0.991 -1.434,2.503 -2.262,4.632 -0.326,0.839 -0.655,1.774 -0.98,2.821 -0.319,1.023 -0.634,2.131 -0.936,3.369 -0.57,2.321 -1.056,4.872 -1.461,7.631 h 12.387 l 1.864,21.368 c -6.409,0.299 -11.59,1.236 -15.742,2.467 0,0.056 -10e-4,0.109 -10e-4,0.165 0,2.458 -0.642,4.768 -1.759,6.777 4.02,-1.606 9.81,-3.027 18.025,-3.409 l 0.978,11.207 c -3.143,1.118 -5.397,4.111 -5.397,7.638 0,4.48 3.632,8.111 8.111,8.111 4.48,0 8.111,-3.631 8.111,-8.111 0,-3.137 -1.783,-5.854 -4.389,-7.203 l 1.016,-11.645 c 7.962,0.362 13.65,1.726 17.653,3.276 -1.069,-1.978 -1.679,-4.239 -1.679,-6.641 0.001,-0.084 -10e-4,-0.162 -10e-4,-0.246 z"
         id="path62" /><path
         inkscape:connector-curvature="0"
         d="m 358.659,246.548 v 0.608 c -0.203,0.066 -0.403,0.139 -0.599,0.219 v 3.473 c 0,3.449 -1.224,6.616 -3.257,9.094 1.486,1.858 3.768,3.051 6.333,3.051 4.482,0 8.113,-3.631 8.113,-8.111 0,-3.217 -1.876,-5.987 -4.59,-7.3 l -10e-4,-1.587 c -1.348,0.433 -2.781,0.672 -4.271,0.672 -0.585,-0.001 -1.16,-0.049 -1.728,-0.119 z"
         id="path64" /><path
         inkscape:connector-curvature="0"
         d="m 427.48,254.881 c 0,-1.844 0.508,-3.584 1.388,-5.094 0.561,-0.961 1.274,-1.824 2.121,-2.554 0.024,-0.022 0.052,-0.04 0.077,-0.062 v -0.668 c -0.659,0.096 -1.328,0.162 -2.014,0.162 -1.385,0 -2.721,-0.209 -3.985,-0.586 v 1.361 c -2.871,1.249 -4.88,4.108 -4.88,7.439 0,4.48 3.631,8.111 8.113,8.111 0.945,0 1.849,-0.17 2.692,-0.467 -2.145,-1.853 -3.512,-4.588 -3.512,-7.642 z"
         id="path66" /><path
         inkscape:connector-curvature="0"
         d="m 426.056,168.24 c 0.254,0.256 0.488,0.53 0.735,0.793 v -0.793 z"
         id="path68" /><path
         inkscape:connector-curvature="0"
         d="m 363.372,168.24 h -1.082 v 1.149 c 0.356,-0.392 0.716,-0.776 1.082,-1.149 z"
         id="path70" /><path
         inkscape:connector-curvature="0"
         d="m 400.045,90.217 c 12.637,-2.941 20.494,-15.57 17.553,-28.205 -2.943,-12.635 -15.572,-20.492 -28.206,-17.549 -2.522,0.587 -4.848,1.565 -6.941,2.847 -2.297,10.601 -5.652,19.73 -10.055,27.324 3.733,11.468 15.688,18.368 27.649,15.583 z"
         id="path72" /><path
         inkscape:connector-curvature="0"
         d="m 423.228,235.721 c -0.221,-0.984 -0.346,-2.003 -0.346,-3.053 0.005,-8.909 0.423,-16.868 1.26,-24 0.565,-4.811 1.32,-9.244 2.273,-13.329 0.114,-0.492 0.234,-0.976 0.354,-1.457 0.084,-0.338 0.166,-0.681 0.253,-1.014 0.191,-0.729 0.389,-1.448 0.593,-2.155 1.16,-4.011 2.571,-7.68 4.227,-10.996 -0.633,-1.21 -1.293,-2.378 -1.996,-3.486 -0.939,-1.512 -1.967,-2.912 -3.055,-4.215 -1.148,-1.375 -2.368,-2.634 -3.64,-3.775 h -26.842 l -1.591,2.01 -1.591,-2.01 h -26.86 c -1.409,1.274 -2.735,2.684 -3.977,4.23 -1.54,1.915 -2.952,4.036 -4.23,6.365 v 15.203 13.26 37.139 c 0.197,0.038 0.398,0.063 0.599,0.091 0.565,0.082 1.139,0.139 1.728,0.139 1.993,0 3.869,-0.493 5.523,-1.354 0.972,-0.505 1.862,-1.142 2.655,-1.883 2.233,-2.085 3.663,-5.007 3.795,-8.271 0.007,-0.164 0.025,-0.324 0.025,-0.49 -0.004,-9.698 0.556,-17.625 1.472,-24 0.438,-3.048 0.956,-5.745 1.536,-8.104 0.253,-1.036 0.518,-1.987 0.789,-2.896 0.325,-1.092 0.661,-2.099 1.003,-3.018 0.878,-2.359 1.795,-4.186 2.663,-5.547 2.311,-3.469 3.865,-4.293 5.967,-5.119 2.107,-0.766 5.126,-1.008 8.904,-0.984 3.352,-0.016 6.127,0.162 8.162,0.752 1.547,0.449 2.686,1.002 3.953,2.066 1.531,1.319 3.536,3.772 5.417,8.832 0.341,0.917 0.678,1.919 1.007,3.018 0.032,0.105 0.064,0.203 0.096,0.311 0.855,2.917 1.615,6.468 2.223,10.689 0.918,6.376 1.483,14.298 1.479,24 0,0.131 0.016,0.258 0.02,0.388 0.1,3.099 1.364,5.899 3.383,7.974 1.058,1.088 2.32,1.973 3.726,2.598 1.489,0.663 3.135,1.039 4.87,1.039 0.205,0 0.405,-0.021 0.608,-0.03 -3.218,-1.951 -5.591,-5.144 -6.435,-8.918 z"
         id="path74" /><path
         inkscape:connector-curvature="0"
         d="m 358.06,139.151 c 0.756,0.126 1.532,0.247 2.344,0.36 0.61,0.082 1.244,0.159 1.887,0.232 1.077,0.124 2.21,0.233 3.385,0.333 0.653,0.056 1.314,0.108 1.998,0.155 2.156,0.15 4.479,0.26 6.969,0.332 h 8.428 c 1.971,-0.304 3.706,-1.318 4.926,-2.785 1.153,-1.387 1.848,-3.168 1.848,-5.111 0,-1.062 -0.211,-2.073 -0.587,-3 -0.038,-0.095 -0.08,-0.188 -0.122,-0.281 -1.253,-2.781 -4.043,-4.721 -7.29,-4.721 -5.589,0.01 -10.295,-0.174 -14.172,-0.479 -0.69,-0.055 -1.361,-0.111 -1.998,-0.173 -3.197,-0.312 -5.723,-0.711 -7.615,-1.151 v 11.046 5.243 z"
         id="path76" /><path
         inkscape:connector-curvature="0"
         d="m 358.06,122.627 c 0.669,-0.525 1.415,-1.072 2.222,-1.63 1.647,-1.138 3.52,-2.309 5.393,-3.388 0.671,-0.387 1.338,-0.755 1.998,-1.111 v 5.687 c 3.509,0.281 8.013,0.481 13.748,0.481 h 0.418 c 3.103,0 5.878,1.419 7.714,3.641 l 1.138,-8.378 c 1.297,0.486 2.661,0.74 4.025,0.739 h 0.002 c 0,0 0.004,0 0.006,0 1.363,0 2.725,-0.254 4.021,-0.74 l 1.138,8.378 c 1.835,-2.223 4.61,-3.642 7.709,-3.642 h 0.119 c 2.158,0 4.213,-0.03 6.177,-0.084 0.391,-3.1 1.661,-5.411 2.661,-6.949 0.306,-0.461 0.625,-0.907 0.963,-1.348 1.026,-1.336 2.226,-2.604 3.751,-3.982 0.164,-0.146 0.335,-0.285 0.501,-0.43 0.655,-0.568 1.323,-1.118 2,-1.646 2.523,-1.965 5.115,-3.635 7.22,-4.909 -3.276,-1.853 -6.353,-3.391 -8.629,-4.477 -2.267,-1.081 -3.742,-1.715 -3.831,-1.764 -0.706,-0.306 -1.432,-0.494 -2.157,-0.589 -0.735,-0.231 -1.518,-0.358 -2.329,-0.358 H 375.4 c -0.813,0 -1.595,0.127 -2.33,0.359 -0.725,0.094 -1.45,0.282 -2.154,0.588 h -0.002 c -0.077,0.035 -1.562,0.678 -3.829,1.764 -2.375,1.136 -5.61,2.759 -9.024,4.7 v 16.868 2.22 z m 32.859,-16.877 h 3.8 3.799 l 1.9,7.5 -0.289,0.456 c -1.565,1.306 -3.484,1.96 -5.412,1.962 -1.927,-0.002 -3.842,-0.655 -5.406,-1.958 l -0.292,-0.46 z"
         id="path78" /><path
         inkscape:connector-curvature="0"
         d="m 399.596,132.666 c 0,1.943 0.693,3.724 1.844,5.109 1.22,1.469 2.956,2.485 4.929,2.789 h 8.435 c 2.494,-0.071 4.803,-0.183 6.961,-0.331 0.683,-0.046 1.349,-0.097 2,-0.151 1.046,-0.088 2.058,-0.185 3.027,-0.293 0.337,-0.037 0.668,-0.077 0.996,-0.117 -0.335,-0.1 -0.675,-0.198 -0.996,-0.305 -1.076,-0.357 -2.077,-0.748 -3.027,-1.18 -0.449,-0.205 -0.889,-0.417 -1.317,-0.641 -0.236,-0.126 -0.456,-0.26 -0.683,-0.391 -2.96,-1.708 -5.089,-3.837 -6.481,-6.508 -0.164,-0.315 -0.296,-0.65 -0.436,-0.98 -0.675,-1.605 -1.056,-3.36 -1.074,-5.08 -1.927,0.051 -3.98,0.079 -6.179,0.078 -3.25,0 -6.041,1.941 -7.292,4.726 -0.041,0.092 -0.082,0.183 -0.12,0.276 -0.376,0.928 -0.587,1.938 -0.587,2.999 z"
         id="path80" /><path
         inkscape:connector-curvature="0"
         d="m 150.861,146.205 v 16.393 c 0,2.012 1.631,3.643 3.642,3.643 h 21.954 c -2.783,8.02 -20.108,59.357 -20.108,94.527 6.585,0 12.87,0 18.491,0 -0.443,-0.759 -0.731,-1.623 -0.802,-2.557 l -4.279,-56.34 c -0.25,-3.297 2.23,-6.188 5.529,-6.438 l 25.962,-1.972 2.101,-0.16 9.811,-0.745 16.323,-1.24 2.355,-0.179 0.299,-0.023 c -0.001,-0.177 0.007,-0.351 0.021,-0.524 0.228,-2.895 2.541,-5.28 5.524,-5.507 l 7.977,-0.605 c 1.089,-0.082 2.13,0.138 3.05,0.581 1.865,0.9 3.219,2.738 3.387,4.948 l 0.026,0.338 c 1.413,-1 2.862,-1.982 4.343,-2.947 0.576,-0.375 1.158,-0.747 1.744,-1.116 5.938,-3.746 12.41,-7.189 19.452,-10.189 0.771,-0.329 1.551,-0.65 2.336,-0.968 0.624,-0.253 1.244,-0.509 1.876,-0.754 5.674,-2.2 11.701,-4.11 18.098,-5.665 v -15.859 -10.283 h -22.313 -3.025 -2 -6.831 -8.712 -4.131 -14.742 -19.673 -1.998 -3.387 -58.657 c -2.012,0 -3.643,1.631 -3.643,3.641 z"
         id="path82" /><rect
         x="328.69699"
         y="162.57201"
         width="0.63499999"
         height="3.668"
         id="rect84" /><path
         inkscape:connector-curvature="0"
         d="m 603.688,142.564 h -3.49 -24.275 -3.026 -2 -24.749 -4.447 -24.895 -2 -3.382 -6.174 v 28.717 c 0.788,0.979 1.532,1.995 2.228,3.054 1.337,0.517 2.648,1.055 3.946,1.604 0.331,0.14 0.656,0.284 0.984,0.426 0.648,0.279 1.3,0.557 1.938,0.845 8.802,3.96 16.681,8.616 23.72,13.669 0.639,0.458 1.271,0.919 1.896,1.384 1.502,1.117 2.96,2.254 4.384,3.403 0.821,0.663 1.63,1.331 2.426,2.003 0.506,0.428 1.007,0.857 1.503,1.288 0.729,0.635 1.449,1.271 2.157,1.912 2.833,2.564 5.492,5.174 7.98,7.8 8.236,8.694 14.626,17.551 19.469,25.439 0.814,1.325 1.586,2.625 2.314,3.891 7.566,13.157 10.561,22.77 10.561,22.77 0,0 19.365,0 42.34,0 0,-35.17 -17.328,-86.508 -20.111,-94.527 h 21.955 c 2.012,0 3.643,-1.631 3.643,-3.643 v -16.393 c 0,-2.01 -1.631,-3.641 -3.643,-3.641 h -20.964 -3.507 -6.781 z"
         id="path86" /><polygon
         points="383.203,142.564 374.611,142.564 367.674,142.564 365.676,142.564 362.291,142.564 358.06,142.564 358.06,152.848 358.06,166.24 362.291,166.24 365.503,166.24 367.674,166.24 391.544,166.24 397.893,166.24 421.764,166.24 423.907,166.24 426.791,166.24 436.746,166.24 436.746,142.564 426.791,142.564 423.764,142.564 421.764,142.564 414.934,142.564 406.221,142.564 402.09,142.564 387.348,142.564 "
         id="polygon88" /><path
         inkscape:connector-curvature="0"
         d="M 479.763,63.512 C 476.82,50.877 464.191,43.02 451.556,45.963 c -2.772,0.646 -5.313,1.758 -7.563,3.233 -7.998,5.25 -12.282,15.107 -9.986,24.97 2.524,10.842 12.183,18.158 22.855,18.16 1.765,0.001 3.556,-0.192 5.349,-0.609 12.636,-2.942 20.493,-15.571 17.552,-28.205 z"
         id="path90" /><circle
         r="22.495001"
         transform="matrix(0.2268,-0.9739,0.9739,0.2268,208.1124,357.1923)"
         cx="329.01599"
         cy="47.527"
         id="ellipse92" /><path
         inkscape:connector-curvature="0"
         d="m 301.97,118.898 v 10.746 4.264 6.656 2 10.283 15.398 2.059 8.151 c 2.402,1.679 4.064,4.379 4.302,7.521 0.28,3.69 -1.472,7.064 -4.302,9.048 v 15.992 c 3.737,1.256 6.558,4.65 6.874,8.823 0.357,4.709 -2.589,8.907 -6.874,10.344 v 13.454 c 4.926,0.338 9.003,4.245 9.389,9.311 0.251,3.324 -1.148,6.392 -3.496,8.418 1.884,1.162 4.095,1.844 6.47,1.844 6.828,0 12.365,-5.535 12.365,-12.363 v -82.607 -2 -5.666 h 4.635 v 5.666 2 82.607 c 0,6.828 5.537,12.363 12.363,12.363 4.114,0 7.749,-2.017 9.997,-5.108 1.483,-2.039 2.368,-4.541 2.368,-7.255 v -2.291 -2.582 -2.125 -60.951 -4.558 -10.1 -2 -13.393 -10.283 -1.741 -0.259 -1.777 -4.879 -14.03 -15.165 -14.83 c 3.56,-2.314 8.415,-6.465 13.009,-13.621 0.881,-1.365 1.75,-2.84 2.602,-4.42 3.19,-5.915 6.114,-13.386 8.333,-22.818 2.556,-10.866 4.175,-24.33 4.173,-41.022 0,-4.42 -3.581,-8 -8,-8 -4.419,0 -7.999,3.58 -7.999,8 -0.005,32.949 -6.7,50.529 -12.55,59.582 -2.939,4.545 -5.68,7.021 -7.502,8.355 -0.453,0.33 -0.85,0.588 -1.18,0.787 H 311.09 C 309.266,75.638 305.391,72.742 301.297,65.781 295.746,56.285 289.853,38.885 289.853,8 c 0,-4.418 -3.582,-8 -8,-8 -4.418,0 -8,3.582 -8,8 -0.004,35.051 7.128,55.891 15.107,68.262 4.594,7.156 9.449,11.307 13.009,13.623 v 29.013 z"
         id="path94" /><path
         inkscape:connector-curvature="0"
         d="m 442.173,122.002 v -2.074 c -0.977,0.58 -1.926,1.168 -2.816,1.75 0.884,0.117 1.825,0.226 2.816,0.324 z"
         id="path96" /><path
         inkscape:connector-curvature="0"
         d="m 432.965,181.995 c -1.313,2.831 -2.458,5.921 -3.428,9.274 -0.14,0.483 -0.273,0.979 -0.407,1.474 -1.273,4.714 -2.271,9.979 -2.979,15.925 -0.831,6.99 -1.264,14.914 -1.268,24 0,1.643 0.332,3.209 0.93,4.635 1.046,2.492 2.909,4.554 5.254,5.857 0.604,0.335 1.24,0.612 1.901,0.841 0.049,0.017 0.097,0.036 0.146,0.053 v -0.106 -1.272 -0.549 l 0.283,-0.473 0.42,-0.707 -0.063,0.115 c 0.195,-0.346 2.033,-3.381 7.125,-6.444 0.656,-0.396 1.364,-0.79 2.133,-1.181 1.673,-0.85 3.624,-1.672 5.879,-2.414 0.051,-7.982 0.489,-14.727 1.196,-20.354 h -8.071 -2.01 -2.498 c -2.617,0 -4.844,-1.688 -5.662,-4.029 -0.217,-0.618 -0.34,-1.279 -0.34,-1.971 v -8 c 0,-0.689 0.131,-1.344 0.346,-1.961 0.682,-1.958 2.345,-3.44 4.402,-3.883 0.165,-0.035 0.323,-0.088 0.492,-0.109 v -4.797 -10.671 c -0.942,1.398 -1.828,2.889 -2.654,4.469 -0.388,0.74 -0.766,1.498 -1.127,2.278 z"
         id="path98" /><path
         inkscape:connector-curvature="0"
         d="m 415.767,124.521 c 0.014,1.72 0.448,3.561 1.263,5.146 0.01,0.018 0.016,0.038 0.025,0.057 1.185,2.27 2.884,3.882 4.709,5.092 0.528,0.35 1.066,0.671 1.605,0.959 0.129,0.067 0.265,0.125 0.395,0.19 0.964,0.48 1.97,0.903 3.027,1.28 1.865,0.663 3.891,1.189 6.172,1.624 1.188,0.227 2.448,0.429 3.783,0.618 V 138 133.668 c 0,-3.309 2.693,-6 6,-6 h 6.935 2.09 21.627 2.276 18.382 2.324 1.882 v -1.473 -1.67 -0.336 -3.48 -4.209 -2.278 -2.831 c 1.115,-0.594 2.107,-1.457 2.864,-2.576 0.772,-1.1 5.457,-8.83 5.435,-23.686 0,-0.462 -0.005,-0.931 -0.014,-1.406 -0.017,-0.87 -0.051,-1.765 -0.1,-2.68 C 505.67,66.629 500.671,46.605 485.985,20.272 483.833,16.413 478.96,15.03 475.1,17.18 c -3.859,2.152 -5.242,7.023 -3.09,10.883 6.197,11.121 10.428,20.804 13.266,29.143 0.566,1.664 1.075,3.273 1.534,4.83 2.857,9.682 3.748,17.325 3.75,23.093 -0.003,4.969 -0.654,8.574 -1.322,11 h -37.34 c -0.813,0 -1.594,0.127 -2.33,0.359 -0.725,0.094 -1.449,0.281 -2.154,0.588 h -0.002 c -0.168,0.078 -7.07,3.053 -14.293,7.295 -0.051,0.03 -0.102,0.063 -0.152,0.093 -3.153,1.87 -6.335,3.964 -9.203,6.356 -0.387,0.322 -0.787,0.631 -1.16,0.965 -0.285,0.258 -0.563,0.525 -0.84,0.79 -0.852,0.815 -1.668,1.677 -2.43,2.634 -0.382,0.479 -0.754,0.979 -1.107,1.512 -1.001,1.539 -1.952,3.442 -2.311,5.796 -0.09,0.591 -0.153,1.202 -0.158,1.853 0,0.049 0.008,0.102 0.009,0.151 z m 28.405,-0.333 c -4.295,-0.34 -7.568,-0.828 -9.85,-1.379 2.12,-1.698 5.155,-3.657 8.151,-5.366 0.569,-0.325 1.138,-0.644 1.698,-0.946 v 0.493 7.198 z"
         id="path100" /><path
         inkscape:connector-curvature="0"
         d="m 505.248,175.678 v 15.004 c 1.646,0.11 3.107,0.892 4.126,2.068 0.832,0.961 1.363,2.186 1.449,3.533 0.008,0.128 0.019,0.255 0.019,0.385 v 8 c 0,1.182 -0.348,2.281 -0.941,3.211 -0.158,0.249 -0.334,0.485 -0.526,0.708 -1.101,1.272 -2.723,2.081 -4.533,2.081 h -12.498 c 0.706,5.61 1.146,12.331 1.199,20.282 7.771,2.515 11.919,6.018 13.874,8.183 0.89,0.983 1.327,1.686 1.447,1.894 0.007,0.013 0.018,0.029 0.022,0.038 l -0.022,-0.039 -0.045,-0.082 0.047,0.079 0.357,0.601 0.016,0.027 0.285,0.471 v 0.553 1.304 c 4.005,-1.407 7.033,-4.871 7.816,-9.131 0.13,-0.707 0.207,-1.434 0.207,-2.179 -0.004,-9.086 -0.438,-17.01 -1.269,-24 -0.476,-4.006 -1.084,-7.701 -1.818,-11.129 -0.193,-0.905 -0.394,-1.799 -0.605,-2.668 -0.145,-0.594 -0.302,-1.165 -0.455,-1.743 -0.084,-0.313 -0.162,-0.638 -0.248,-0.946 -0.492,-1.767 -1.025,-3.456 -1.602,-5.071 -0.043,-0.119 -0.088,-0.231 -0.131,-0.35 -1.427,-3.93 -3.109,-7.427 -5.078,-10.53 -0.038,-0.062 -0.079,-0.119 -0.117,-0.18 -0.317,-0.503 -0.643,-0.992 -0.978,-1.472 v 1.098 z"
         id="path102" /><path
         inkscape:connector-curvature="0"
         d="m 512.869,254.881 c 0,-1.938 -0.697,-3.701 -1.833,-5.095 -0.595,-0.729 -1.307,-1.354 -2.118,-1.84 -0.359,-0.217 -0.735,-0.405 -1.129,-0.564 -0.091,-0.036 -0.174,-0.087 -0.266,-0.12 v -0.008 -0.745 -2.019 -1.816 l -0.342,-0.574 -0.078,-0.131 c -0.279,-0.579 -3.619,-5.528 -13.53,-8.896 -0.644,-0.219 -1.321,-0.43 -2.021,-0.633 -4.113,-1.197 -9.205,-2.11 -15.494,-2.404 l 1.863,-21.367 h 12.13 2.022 12.768 c 1.03,0 1.961,-0.4 2.67,-1.041 0.81,-0.732 1.33,-1.78 1.33,-2.959 v -8 c 0,-1.179 -0.52,-2.227 -1.33,-2.959 -0.709,-0.641 -1.64,-1.041 -2.67,-1.041 0,0 -0.58,0.088 -1.596,0.232 v -17.96 -2.157 -0.817 -2.979 -26.422 -2 -6.896 c 0,-1.855 -1.271,-3.402 -2.984,-3.854 -0.326,-0.086 -0.662,-0.146 -1.016,-0.146 h -0.984 -3.057 -2.308 -18.314 -2.268 -21.227 -2.184 -6.156 c -2.209,0 -4,1.791 -4,4 v 3.715 2.107 0.251 0.823 1.188 0.813 23.676 2 1.191 3.09 19.752 0.576 c -0.793,-0.113 -1.24,-0.182 -1.24,-0.182 -0.242,0 -0.476,0.03 -0.706,0.071 -1.871,0.334 -3.294,1.962 -3.294,3.929 v 8 c 0,2.209 1.791,4 4,4 h 2.274 2.013 8.56 2.018 12.345 l 1.863,21.367 c -6.392,0.299 -11.55,1.237 -15.696,2.463 -0.701,0.208 -1.382,0.42 -2.024,0.643 -2.461,0.85 -4.504,1.795 -6.197,2.744 -1.008,0.565 -1.895,1.132 -2.663,1.68 -3.052,2.178 -4.297,4.061 -4.464,4.404 l -0.42,0.705 v 0.336 1.512 0.744 1.274 0.616 c -0.781,0.251 -1.506,0.623 -2.164,1.083 -2.096,1.466 -3.471,3.889 -3.471,6.642 0,2.751 1.373,5.177 3.467,6.643 1.316,0.922 2.917,1.468 4.647,1.468 4.48,0 8.113,-3.631 8.113,-8.111 0,-3.217 -1.877,-5.988 -4.592,-7.301 v -1.573 -1.487 c 0.264,-0.293 0.655,-0.694 1.2,-1.162 0.679,-0.585 1.602,-1.274 2.823,-1.996 1.082,-0.639 2.401,-1.301 3.995,-1.934 4.02,-1.598 9.788,-3.012 17.97,-3.391 l 0.979,11.207 c -3.143,1.117 -5.397,4.109 -5.397,7.637 0,4.48 3.633,8.111 8.113,8.111 4.48,0 8.111,-3.631 8.111,-8.111 0,-3.139 -1.783,-5.854 -4.389,-7.203 l 1.016,-11.646 c 7.992,0.365 13.697,1.738 17.705,3.295 1.291,0.501 2.409,1.021 3.367,1.533 0.135,0.072 0.258,0.145 0.387,0.217 1.65,0.921 2.811,1.804 3.59,2.506 0.158,0.143 0.307,0.28 0.436,0.406 0.203,0.197 0.369,0.375 0.502,0.525 v 1.554 1.374 c -2.871,1.25 -4.879,4.107 -4.879,7.439 0,4.48 3.631,8.111 8.111,8.111 0.969,0 1.895,-0.179 2.756,-0.49 2.141,-0.774 3.864,-2.414 4.735,-4.506 0.282,-0.678 0.472,-1.402 0.561,-2.158 0.037,-0.317 0.061,-0.635 0.061,-0.959 z"
         id="path104" /><path
         inkscape:connector-curvature="0"
         d="m 309.363,253.102 c -0.305,-4.025 -3.499,-7.13 -7.393,-7.461 -0.43,-0.037 -0.866,-0.05 -1.31,-0.016 -0.235,0.018 -0.46,0.065 -0.689,0.104 -2.887,0.471 -5.221,2.429 -6.242,5.027 l -3.053,0.232 c -0.892,-0.689 -2.743,-2.34 -4.688,-5.724 -0.31,-0.541 -0.624,-1.13 -0.935,-1.763 -1.919,-3.89 -3.794,-9.569 -4.803,-17.785 l 11.1,-1.824 c 0.129,0.291 0.289,0.563 0.449,0.833 0.536,0.903 1.237,1.685 2.063,2.316 1.523,1.163 3.449,1.809 5.513,1.651 0.202,-0.016 0.398,-0.046 0.596,-0.075 0.702,-0.105 1.371,-0.299 1.999,-0.569 3.092,-1.333 5.148,-4.512 4.879,-8.059 -0.236,-3.111 -2.2,-5.675 -4.879,-6.831 -0.631,-0.273 -1.302,-0.465 -1.999,-0.569 -0.592,-0.089 -1.202,-0.119 -1.824,-0.072 -1.903,0.143 -3.596,0.94 -4.893,2.146 -0.76,0.707 -1.375,1.558 -1.82,2.503 -0.044,0.093 -0.099,0.179 -0.139,0.273 l -11.688,-0.131 c -0.099,-3.254 -0.001,-6.14 0.232,-8.699 0.525,-5.761 1.741,-9.855 2.985,-12.678 0.074,-0.167 0.148,-0.321 0.222,-0.479 0.943,-2.021 1.883,-3.354 2.562,-4.159 0.182,-0.215 0.347,-0.395 0.486,-0.539 l 0.986,-0.075 1.934,-0.148 c 0.062,0.117 0.143,0.223 0.21,0.336 1.525,2.568 4.397,4.206 7.577,3.965 1.145,-0.087 2.214,-0.409 3.168,-0.913 0.746,-0.393 1.416,-0.901 1.999,-1.495 1.582,-1.611 2.492,-3.865 2.308,-6.295 -0.151,-1.988 -1.01,-3.753 -2.308,-5.071 -0.585,-0.593 -1.26,-1.092 -1.999,-1.482 -1.307,-0.691 -2.814,-1.041 -4.397,-0.921 -3.498,0.266 -6.299,2.715 -7.192,5.908 l -1.244,0.095 -2.082,0.158 -1.249,0.095 -0.671,0.473 c -0.41,0.238 -3.064,2.319 -5.476,7.457 -0.01,0.021 -0.02,0.044 -0.03,0.065 -0.539,1.154 -1.065,2.454 -1.55,3.929 -1.034,3.141 -1.881,7.045 -2.28,11.834 -0.216,2.592 -0.303,5.438 -0.211,8.572 l -6.216,-0.069 -2.011,-0.022 -13.219,-0.15 -0.248,-3.26 -0.385,-5.072 -0.355,-4.668 -0.481,-6.332 -0.16,-2.107 -0.107,-1.411 -0.185,-2.428 -0.119,-1.564 c -0.167,-2.203 -2.088,-3.853 -4.291,-3.686 l -7.977,0.605 c -2.203,0.168 -3.854,2.09 -3.686,4.291 0,0 0.132,0.572 0.354,1.574 l -3.705,0.281 -2.253,0.171 -7.085,0.538 -8.192,0.623 -4.933,0.374 -5.498,0.418 -2.085,0.158 -25.313,1.923 c -2.202,0.166 -3.853,2.088 -3.686,4.291 l 4.279,56.338 c 0.083,1.09 0.597,2.043 1.361,2.709 0.779,0.679 1.817,1.059 2.93,0.975 l 12.837,-0.975 5.669,-0.431 2.175,-0.165 4.581,-0.348 13.525,-1.027 18.394,-1.396 1.831,-0.139 c -0.054,0.799 -0.089,1.248 -0.089,1.248 0.168,2.203 2.09,3.853 4.292,3.688 l 5.987,-0.456 1.989,-0.151 c 2.203,-0.166 3.854,-2.088 3.687,-4.291 l -1.596,-21.017 -0.462,-6.081 -0.002,-0.031 12.737,-2.094 1.996,-0.327 6.433,-1.058 c 0.482,3.92 1.174,7.347 1.992,10.354 0.792,2.91 1.703,5.418 2.667,7.572 0.321,0.72 0.648,1.405 0.978,2.048 0.026,0.051 0.052,0.098 0.078,0.148 0.571,1.1 1.149,2.089 1.724,2.975 2.12,3.271 4.168,5.154 5.467,6.119 0.7,0.52 1.185,0.775 1.343,0.838 l 0.736,0.367 4.469,-0.34 c 1.293,3.18 4.523,5.307 8.129,5.033 0.89,-0.067 1.732,-0.281 2.512,-0.607 0.651,-0.272 1.258,-0.625 1.807,-1.047 2.1,-1.612 3.372,-4.214 3.156,-7.048 z"
         id="path106" /></g><g
       aria-label="POOLSE LANDDAG"
       id="text1817-5"
       style="font-style:normal;font-weight:normal;font-size:28.455px;line-height:1.25;font-family:sans-serif;letter-spacing:0px;word-spacing:0px;display:inline;fill:#000000;fill-opacity:1;stroke:none;stroke-width:0.592811"
       transform="matrix(0.46820807,0,0,0.46820807,19.055877,59.442936)"><path
         d="m 41.146638,224.12967 q -0.255882,0 -1.264356,-0.10536 -0.09031,2.10726 -0.09031,6.92386 0,0.79774 -0.556919,1.36971 -0.556918,0.57197 -1.414874,0.57197 -0.857956,0 -1.429926,-0.57197 -0.556919,-0.57197 -0.556919,-1.36971 v -4.19947 q 0,-2.33304 0.301037,-6.9088 0.285985,-4.65103 0.301037,-6.93891 0.01505,-3.91348 2.197571,-3.74791 0.511763,-0.13547 1.414874,-0.19568 0.903112,-0.0753 2.197571,-0.0753 2.950164,0 5.539083,1.91159 2.874905,2.13736 2.874905,5.20794 0,3.85328 -3.055527,6.12611 -2.709334,2.00189 -6.457246,2.00189 z m 0.752593,-11.36415 q -0.48166,0 -0.857956,0.0151 -0.361245,0 -0.617126,0.0301 0,0.70744 -0.01505,2.12231 -0.0301,1.67076 -0.285985,5.20794 0.767644,0.12042 1.023526,0.12042 2.348089,0 3.898431,-1.11384 1.655704,-1.1891 1.655704,-3.14584 0,-1.27941 -1.550341,-2.27283 -1.490134,-0.96332 -3.251201,-0.96332 z"
         style="font-style:normal;font-variant:normal;font-weight:bold;font-stretch:normal;font-size:30.8262px;font-family:'Comic Sans MS';-inkscape-font-specification:'Comic Sans MS Bold';stroke-width:0.592811"
         id="path903" /><path
         d="m 63.182554,233.44677 q -4.45535,0 -7.586135,-2.55881 -3.341512,-2.73944 -3.341512,-7.08943 0,-5.11763 3.206045,-9.33215 3.597393,-4.74133 9.061217,-4.74133 5.253098,0 7.87212,2.4083 2.619023,2.40829 2.619023,7.23994 0,5.11763 -2.950163,9.27194 -3.40172,4.80154 -8.880595,4.80154 z m 1.339615,-19.64267 q -3.356564,0 -5.749809,3.2512 -2.242726,3.04048 -2.242726,6.74323 0,2.49861 1.941689,4.064 1.86643,1.50519 4.711231,1.50519 3.311408,0 5.524031,-3.2512 2.032,-2.96522 2.032,-6.74323 0,-3.16089 -1.414874,-4.39514 -1.354667,-1.17405 -4.801542,-1.17405 z"
         style="font-style:normal;font-variant:normal;font-weight:bold;font-stretch:normal;font-size:30.8262px;font-family:'Comic Sans MS';-inkscape-font-specification:'Comic Sans MS Bold';stroke-width:0.592811"
         id="path905" /><path
         d="m 87.792337,233.44677 q -4.455349,0 -7.586135,-2.55881 -3.341512,-2.73944 -3.341512,-7.08943 0,-5.11763 3.206045,-9.33215 3.597393,-4.74133 9.061217,-4.74133 5.253098,0 7.872121,2.4083 2.619023,2.40829 2.619023,7.23994 0,5.11763 -2.950164,9.27194 -3.40172,4.80154 -8.880595,4.80154 z m 1.339615,-19.64267 q -3.356564,0 -5.749809,3.2512 -2.242726,3.04048 -2.242726,6.74323 0,2.49861 1.941689,4.064 1.86643,1.50519 4.711231,1.50519 3.311408,0 5.524031,-3.2512 2.032001,-2.96522 2.032001,-6.74323 0,-3.16089 -1.414875,-4.39514 -1.354667,-1.17405 -4.801542,-1.17405 z"
         style="font-style:normal;font-variant:normal;font-weight:bold;font-stretch:normal;font-size:30.8262px;font-family:'Comic Sans MS';-inkscape-font-specification:'Comic Sans MS Bold';stroke-width:0.592811"
         id="path907" /><path
         d="m 116.2554,231.95664 q -1.77612,0.7827 -5.49393,1.39982 -3.40172,0.57197 -5.58424,0.57197 -3.6877,0 -3.6877,-3.23615 0,0.25589 0.30104,-4.77143 0.39134,-6.53251 0.39134,-14.5401 0,-0.85795 0.58703,-1.46003 0.60207,-0.60207 1.50518,-0.60207 0.90311,0 1.50519,0.60207 0.60207,0.60208 0.60207,1.46003 0,8.02264 -0.4064,14.78093 -0.13547,1.20414 -0.28598,3.6877 3.56729,-0.0602 9.15152,-1.74602 0.3462,-0.10536 0.66229,-0.10536 0.94826,0 1.53529,0.69239 0.52681,0.61712 0.52681,1.38477 0,1.29446 -1.30951,1.88148 z"
         style="font-style:normal;font-variant:normal;font-weight:bold;font-stretch:normal;font-size:30.8262px;font-family:'Comic Sans MS';-inkscape-font-specification:'Comic Sans MS Bold';stroke-width:0.592811"
         id="path909" /><path
         d="m 126.14446,233.44677 q -3.82317,0 -6.02074,-1.70086 -1.85138,-1.41487 -1.85138,-3.26625 0,-0.94827 0.57197,-1.56539 0.57197,-0.63218 1.58044,-0.63218 1.35467,0 1.98685,1.38477 0.85796,1.85138 3.88338,1.85138 2.58892,0 5.01227,-1.12889 2.51366,-1.15899 2.51366,-2.54376 0,-1.89654 -1.5654,-2.49861 -1.11383,-0.43651 -4.4704,-0.51176 -2.60397,-0.0602 -4.66607,-0.97838 -2.7846,-1.2493 -2.73944,-3.58234 0.0452,-2.93511 3.13079,-5.37351 3.08563,-2.45345 6.80343,-2.45345 1.47509,0 3.64255,0.67733 2.69429,0.84291 2.69429,1.94169 0,0.7827 -0.54187,1.38477 -0.60208,0.67734 -1.55034,0.67734 -0.70744,0 -2.12231,-0.30104 -1.39983,-0.30104 -2.12232,-0.30104 -1.94169,0.0151 -3.6877,0.93322 -1.80622,0.93321 -1.80622,2.032 0,0.57197 0.54186,0.94826 0.55692,0.36125 1.65571,0.51177 1.92664,0.10536 3.83822,0.21072 3.34151,0.25588 5.2832,1.88148 2.13737,1.80623 2.13737,4.99722 0,3.88338 -4.42525,5.88528 -3.37162,1.52023 -7.70655,1.52023 z"
         style="font-style:normal;font-variant:normal;font-weight:bold;font-stretch:normal;font-size:30.8262px;font-family:'Comic Sans MS';-inkscape-font-specification:'Comic Sans MS Bold';stroke-width:0.592811"
         id="path911" /><path
         d="m 155.616,213.23213 q -0.30104,0 -0.63218,-0.0903 -2.4384,-0.66228 -4.74133,-0.66228 -1.12889,0 -2.42335,0.18062 -1.29446,0.18062 -2.75449,0.54187 0,2.00189 -0.13547,5.94548 0.84291,-0.0602 5.88528,-0.55692 2.8749,-0.28598 3.64255,-0.28598 0.88806,0 1.52023,0.57197 0.63218,0.55692 0.63218,1.49013 0,1.79117 -1.91158,2.032 -1.20415,0.0903 -3.5974,0.30104 -2.13736,0.24083 -6.44219,0.58702 -0.10536,1.91159 -0.10536,3.08563 0,2.95016 0.34619,3.35657 0.16557,0.19567 1.89653,0.19567 0.93322,0 2.8147,-0.0452 1.88148,-0.0452 2.8147,-0.0452 0.30103,0 0.88806,-0.0903 0.58702,-0.0903 0.873,-0.0903 0.87301,0 1.49014,0.49671 0.70744,0.55692 0.70744,1.56539 0,1.68581 -1.76107,2.01695 -1.50519,0.28598 -6.24652,0.28598 -4.90691,0 -6.39704,-1.32456 -1.64065,-1.46003 -1.64065,-6.32178 0,-2.01695 0.28598,-6.05084 0.30104,-4.04895 0.30104,-6.05085 0,-0.52682 -0.15052,-1.55034 -0.15052,-1.03858 -0.15052,-1.56539 0,-2.28789 2.10726,-2.28789 0.66228,0 1.2192,0.3763 1.74602,-0.4365 3.31141,-0.64723 1.58045,-0.22578 2.98027,-0.22578 3.79307,0 6.0659,0.87301 1.38477,0.52681 1.38477,1.91159 0,0.78269 -0.54187,1.38477 -0.60207,0.69238 -1.53529,0.69238 z"
         style="font-style:normal;font-variant:normal;font-weight:bold;font-stretch:normal;font-size:30.8262px;font-family:'Comic Sans MS';-inkscape-font-specification:'Comic Sans MS Bold';stroke-width:0.592811"
         id="path913" /><path
         d="m 187.2249,231.95664 q -1.77612,0.7827 -5.49393,1.39982 -3.40172,0.57197 -5.58424,0.57197 -3.6877,0 -3.6877,-3.23615 0,0.25589 0.30103,-4.77143 0.39135,-6.53251 0.39135,-14.5401 0,-0.85795 0.58702,-1.46003 0.60208,-0.60207 1.50519,-0.60207 0.90311,0 1.50519,0.60207 0.60207,0.60208 0.60207,1.46003 0,8.02264 -0.4064,14.78093 -0.13547,1.20414 -0.28599,3.6877 3.56729,-0.0602 9.15153,-1.74602 0.34619,-0.10536 0.66228,-0.10536 0.94827,0 1.53529,0.69239 0.52682,0.61712 0.52682,1.38477 0,1.29446 -1.30951,1.88148 z"
         style="font-style:normal;font-variant:normal;font-weight:bold;font-stretch:normal;font-size:30.8262px;font-family:'Comic Sans MS';-inkscape-font-specification:'Comic Sans MS Bold';stroke-width:0.592811"
         id="path915" /><path
         d="m 207.33417,232.98017 q -1.1891,-0.0452 -2.39325,-2.79965 -0.79775,-1.77612 -1.36972,-4.0941 -1.11383,0.16557 -3.64255,0.33114 -2.37819,0.16557 -3.64254,0.39135 -0.69239,1.6557 -2.4083,4.98216 -0.66228,1.08373 -1.83633,1.08373 -0.82785,0 -1.49013,-0.55692 -0.66228,-0.57197 -0.66228,-1.44497 0,-0.76765 2.19757,-5.20795 -0.21073,-0.4666 -0.18062,-0.873 0.0602,-0.72249 1.46003,-1.12889 2.13736,-3.70276 4.75638,-7.67645 3.76297,-5.70465 4.63597,-5.70465 1.65571,0 2.21263,2.00189 0.30103,1.61055 0.94826,4.83165 0.91817,4.33493 2.24273,9.91917 0.10536,0.42145 0.76764,1.98685 0.54187,1.29446 0.54187,1.94169 0,0.873 -0.66228,1.46003 -0.64723,0.58702 -1.47508,0.55692 z m -5.61434,-15.44321 q -1.17405,2.01695 -3.23615,5.49393 0.67733,-0.15052 2.10726,-0.24083 1.6858,-0.10536 2.12231,-0.16557 -0.36125,-1.95674 -0.99342,-5.08753 z"
         style="font-style:normal;font-variant:normal;font-weight:bold;font-stretch:normal;font-size:30.8262px;font-family:'Comic Sans MS';-inkscape-font-specification:'Comic Sans MS Bold';stroke-width:0.592811"
         id="path917" /><path
         d="m 234.86402,228.82585 q 0,0.7526 -0.25589,2.3782 -0.30103,1.94169 -2.19757,1.94169 -1.05363,0 -2.37819,-1.1891 -5.79496,-5.22299 -13.08006,-14.64546 -0.0903,3.91349 -0.0903,4.80155 0,1.18909 0.0452,3.58234 0.0602,2.39324 0.0602,3.58234 0,4.4403 -2.16747,4.4403 -1.09878,0 -1.76107,-0.67734 -0.58702,-0.60207 -0.58702,-1.46003 0,-0.60207 0.0903,-1.82127 0.10537,-1.2192 0.10537,-1.82128 0,-0.88806 0.0602,-2.66417 0.0602,-1.77612 0.0602,-2.66418 0,-0.94827 -0.0452,-2.85986 -0.0452,-1.91158 -0.0452,-2.85985 0,-0.90311 -0.18062,-2.69428 -0.18062,-1.79117 -0.18062,-2.69428 0,-0.90311 0.76764,-1.61055 0.7827,-0.70744 1.77612,-0.70744 1.11384,0 2.4685,1.92664 6.83355,9.7536 13.48647,15.90981 0.0151,-0.48166 0.0151,-2.28788 0,-7.42057 -0.15052,-10.00949 -0.0301,-0.4365 -0.19567,-1.6256 -0.15052,-1.05363 -0.15052,-1.6557 0,-2.07716 2.19757,-2.07716 2.45345,0 2.45345,7.57109 0,0.16557 -0.0301,2.37819 -0.0903,7.64634 -0.0903,9.51277 z"
         style="font-style:normal;font-variant:normal;font-weight:bold;font-stretch:normal;font-size:30.8262px;font-family:'Comic Sans MS';-inkscape-font-specification:'Comic Sans MS Bold';stroke-width:0.592811"
         id="path919" /><path
         d="m 240.373,232.67913 q -0.88806,-0.015 -1.49014,-0.60208 -0.60207,-0.60207 -0.60207,-1.44497 0,-1.50519 0.13546,-4.51556 0.15052,-3.01037 0.15052,-4.51556 0,-1.67075 -0.0753,-5.01226 -0.0602,-3.34152 -0.0602,-5.01227 0,-0.82785 0.79774,-1.64066 0.79775,-0.82785 1.70086,-0.82785 0.49672,0 2.49861,0.93322 2.33304,1.11384 2.76954,1.2493 4.4102,1.42993 7.52593,4.42525 3.71781,3.56729 3.71781,7.88717 0,2.60397 -1.27941,4.95206 -1.27941,2.39325 -3.50708,3.83822 -2.49861,1.6256 -7.02922,1.6256 -1.09878,0 -2.52871,-0.31609 -1.73096,-0.39134 -2.72438,-1.02352 z m 8.45914,-15.47331 q -1.46003,-0.91816 -6.26157,-2.88996 v 14.90134 q 0.58702,0.3763 1.33961,0.57197 0.76765,0.18062 1.70086,0.18062 3.2512,0 4.66608,-0.90311 1.33961,-0.85795 2.12231,-2.33303 0.79775,-1.47509 0.79775,-3.07058 0,-3.73286 -4.36504,-6.45725 z"
         style="font-style:normal;font-variant:normal;font-weight:bold;font-stretch:normal;font-size:30.8262px;font-family:'Comic Sans MS';-inkscape-font-specification:'Comic Sans MS Bold';stroke-width:0.592811"
         id="path921" /><path
         d="m 262.61964,232.67913 q -0.88806,-0.015 -1.49014,-0.60208 -0.60207,-0.60207 -0.60207,-1.44497 0,-1.50519 0.13547,-4.51556 0.15052,-3.01037 0.15052,-4.51556 0,-1.67075 -0.0753,-5.01226 -0.0602,-3.34152 -0.0602,-5.01227 0,-0.82785 0.79775,-1.64066 0.79775,-0.82785 1.70086,-0.82785 0.49671,0 2.49861,0.93322 2.33303,1.11384 2.76954,1.2493 4.41019,1.42993 7.52592,4.42525 3.71781,3.56729 3.71781,7.88717 0,2.60397 -1.2794,4.95206 -1.27941,2.39325 -3.50709,3.83822 -2.49861,1.6256 -7.02921,1.6256 -1.09879,0 -2.52872,-0.31609 -1.73096,-0.39134 -2.72438,-1.02352 z m 8.45914,-15.47331 q -1.46003,-0.91816 -6.26157,-2.88996 v 14.90134 q 0.58702,0.3763 1.33961,0.57197 0.76765,0.18062 1.70086,0.18062 3.25121,0 4.66608,-0.90311 1.33961,-0.85795 2.12231,-2.33303 0.79775,-1.47509 0.79775,-3.07058 0,-3.73286 -4.36504,-6.45725 z"
         style="font-style:normal;font-variant:normal;font-weight:bold;font-stretch:normal;font-size:30.8262px;font-family:'Comic Sans MS';-inkscape-font-specification:'Comic Sans MS Bold';stroke-width:0.592811"
         id="path923" /><path
         d="m 299.43648,232.98017 q -1.1891,-0.0452 -2.39325,-2.79965 -0.79775,-1.77612 -1.36972,-4.0941 -1.11383,0.16557 -3.64255,0.33114 -2.37819,0.16557 -3.64254,0.39135 -0.69239,1.6557 -2.4083,4.98216 -0.66228,1.08373 -1.83633,1.08373 -0.82785,0 -1.49013,-0.55692 -0.66228,-0.57197 -0.66228,-1.44497 0,-0.76765 2.19757,-5.20795 -0.21073,-0.4666 -0.18062,-0.873 0.0602,-0.72249 1.46003,-1.12889 2.13736,-3.70276 4.75638,-7.67645 3.76297,-5.70465 4.63597,-5.70465 1.65571,0 2.21263,2.00189 0.30103,1.61055 0.94826,4.83165 0.91817,4.33493 2.24273,9.91917 0.10536,0.42145 0.76764,1.98685 0.54187,1.29446 0.54187,1.94169 0,0.873 -0.66228,1.46003 -0.64723,0.58702 -1.47508,0.55692 z m -5.61434,-15.44321 q -1.17405,2.01695 -3.23615,5.49393 0.67733,-0.15052 2.10726,-0.24083 1.6858,-0.10536 2.12231,-0.16557 -0.36125,-1.95674 -0.99342,-5.08753 z"
         style="font-style:normal;font-variant:normal;font-weight:bold;font-stretch:normal;font-size:30.8262px;font-family:'Comic Sans MS';-inkscape-font-specification:'Comic Sans MS Bold';stroke-width:0.592811"
         id="path925" /><path
         d="m 323.26355,223.67812 q -1.02352,4.48545 -4.1242,7.17973 -3.14584,2.70934 -7.37541,2.70934 -4.0038,0 -6.00569,-2.10726 -2.0019,-2.12231 -2.0019,-6.35188 0,-3.85328 1.89653,-7.90223 1.89654,-4.04895 4.8768,-6.56261 2.09221,-1.76107 4.48546,-1.76107 1.46003,0 3.97369,1.05363 2.98026,1.24931 2.98026,2.66418 0,0.8128 -0.61712,1.46003 -0.61713,0.63218 -1.52024,0.63218 -0.45155,0 -2.0019,-0.8429 -1.53529,-0.85796 -2.81469,-0.85796 -1.35467,0 -3.6576,2.92006 -3.35657,4.24462 -3.35657,9.19669 0,2.51366 0.73754,3.41677 0.7827,0.94826 3.02543,0.94826 2.30293,0 4.04895,-1.30951 1.85137,-1.38477 2.73943,-4.0339 -3.49203,0.27094 -6.08095,1.42993 -0.4666,0.21073 -0.93321,0.21073 -0.93322,0 -1.55034,-0.69239 -0.55692,-0.61712 -0.55692,-1.39982 0,-2.30293 5.44877,-3.2211 3.07058,-0.51176 7.16468,-0.51176 0.90312,0 1.50519,0.58702 0.61713,0.58702 0.61713,1.44498 0,1.09878 -0.90312,1.70086 z"
         style="font-style:normal;font-variant:normal;font-weight:bold;font-stretch:normal;font-size:30.8262px;font-family:'Comic Sans MS';-inkscape-font-specification:'Comic Sans MS Bold';stroke-width:0.592811"
         id="path927" /></g></g></svg>
