999
"DXF R12 Output" (www.mydxf.blogspot.com)
 0 
SECTION
 2 
HEADER
 9 
$ACADVER
 1 
AC1009
 9 
$EXTMIN
 10 
 0 
 20 
 0 
 9 
$EXTMAX
 10 
 8.5 
 20 
 11 
 0 
ENDSEC
 0 
SECTION
 2 
ENTITIES
0
LINE
8
Layer 1
10
102.010000
20
21.184900
11
96.773750
21
21.273573
0
LINE
8
Layer 1
10
96.773750
20
21.273573
11
91.606238
21
21.536738
0
LINE
8
Layer 1
10
91.606238
20
21.536738
11
86.513858
21
21.970113
0
LINE
8
Layer 1
10
86.513858
20
21.970113
11
81.503002
21
22.569416
0
LINE
8
Layer 1
10
81.503002
20
22.569416
11
76.580064
21
23.330366
0
LINE
8
Layer 1
10
76.580064
20
23.330366
11
71.751438
21
24.248680
0
LINE
8
Layer 1
10
71.751438
20
24.248680
11
67.023518
21
25.320076
0
LINE
8
Layer 1
10
67.023518
20
25.320076
11
62.402696
21
26.540273
0
LINE
8
Layer 1
10
62.402696
20
26.540273
11
57.895366
21
27.904990
0
LINE
8
Layer 1
10
57.895366
20
27.904990
11
53.507922
21
29.409943
0
LINE
8
Layer 1
10
53.507922
20
29.409943
11
49.246758
21
31.050852
0
LINE
8
Layer 1
10
49.246758
20
31.050852
11
45.118266
21
32.823435
0
LINE
8
Layer 1
10
45.118266
20
32.823435
11
41.128841
21
34.723409
0
LINE
8
Layer 1
10
41.128841
20
34.723409
11
37.284875
21
36.746493
0
LINE
8
Layer 1
10
37.284875
20
36.746493
11
33.592762
21
38.888404
0
LINE
8
Layer 1
10
33.592762
20
38.888404
11
30.058897
21
41.144862
0
LINE
8
Layer 1
10
30.058897
20
41.144862
11
26.689671
21
43.511585
0
LINE
8
Layer 1
10
26.689671
20
43.511585
11
23.491479
21
45.984290
0
LINE
8
Layer 1
10
23.491479
20
45.984290
11
20.470714
21
48.558696
0
LINE
8
Layer 1
10
20.470714
20
48.558696
11
17.633771
21
51.230520
0
LINE
8
Layer 1
10
17.633771
20
51.230520
11
14.987041
21
53.995482
0
LINE
8
Layer 1
10
14.987041
20
53.995482
11
12.536919
21
56.849298
0
LINE
8
Layer 1
10
12.536919
20
56.849298
11
10.289798
21
59.787689
0
LINE
8
Layer 1
10
10.289798
20
59.787689
11
8.252072
21
62.806370
0
LINE
8
Layer 1
10
8.252072
20
62.806370
11
6.430134
21
65.901062
0
LINE
8
Layer 1
10
6.430134
20
65.901062
11
4.830378
21
69.067481
0
LINE
8
Layer 1
10
4.830378
20
69.067481
11
3.459197
21
72.301346
0
LINE
8
Layer 1
10
3.459197
20
72.301346
11
2.322985
21
75.598376
0
LINE
8
Layer 1
10
2.322985
20
75.598376
11
1.428135
21
78.954288
0
LINE
8
Layer 1
10
1.428135
20
78.954288
11
0.781041
21
82.364801
0
LINE
8
Layer 1
10
0.781041
20
82.364801
11
0.388096
21
85.825632
0
LINE
8
Layer 1
10
0.388096
20
85.825632
11
0.255693
21
89.332500
0
LINE
8
Layer 1
10
0.255693
20
89.332500
11
0.388096
21
92.839421
0
LINE
8
Layer 1
10
0.388096
20
92.839421
11
0.781041
21
96.300297
0
LINE
8
Layer 1
10
0.781041
20
96.300297
11
1.428135
21
99.710848
0
LINE
8
Layer 1
10
1.428135
20
99.710848
11
2.322985
21
103.066792
0
LINE
8
Layer 1
10
2.322985
20
103.066792
11
3.459197
21
106.363847
0
LINE
8
Layer 1
10
3.459197
20
106.363847
11
4.830378
21
109.597733
0
LINE
8
Layer 1
10
4.830378
20
109.597733
11
6.430134
21
112.764166
0
LINE
8
Layer 1
10
6.430134
20
112.764166
11
8.252072
21
115.858867
0
LINE
8
Layer 1
10
8.252072
20
115.858867
11
10.289798
21
118.877554
0
LINE
8
Layer 1
10
10.289798
20
118.877554
11
12.536919
21
121.815944
0
LINE
8
Layer 1
10
12.536919
20
121.815944
11
14.987041
21
124.669757
0
LINE
8
Layer 1
10
14.987041
20
124.669757
11
17.633771
21
127.434712
0
LINE
8
Layer 1
10
17.633771
20
127.434712
11
20.470714
21
130.106526
0
LINE
8
Layer 1
10
20.470714
20
130.106526
11
23.491479
21
132.680919
0
LINE
8
Layer 1
10
23.491479
20
132.680919
11
26.689671
21
135.153608
0
LINE
8
Layer 1
10
26.689671
20
135.153608
11
30.058897
21
137.520312
0
LINE
8
Layer 1
10
30.058897
20
137.520312
11
33.592762
21
139.776751
0
LINE
8
Layer 1
10
33.592762
20
139.776751
11
37.284875
21
141.918642
0
LINE
8
Layer 1
10
37.284875
20
141.918642
11
41.128841
21
143.941704
0
LINE
8
Layer 1
10
41.128841
20
143.941704
11
45.118266
21
145.841655
0
LINE
8
Layer 1
10
45.118266
20
145.841655
11
49.246758
21
147.614215
0
LINE
8
Layer 1
10
49.246758
20
147.614215
11
53.507922
21
149.255101
0
LINE
8
Layer 1
10
53.507922
20
149.255101
11
57.895366
21
150.760032
0
LINE
8
Layer 1
10
57.895366
20
150.760032
11
62.402696
21
152.124727
0
LINE
8
Layer 1
10
62.402696
20
152.124727
11
67.023518
21
153.344903
0
LINE
8
Layer 1
10
67.023518
20
153.344903
11
71.751438
21
154.416281
0
LINE
8
Layer 1
10
71.751438
20
154.416281
11
76.580064
21
155.334578
0
LINE
8
Layer 1
10
76.580064
20
155.334578
11
81.503002
21
156.095513
0
LINE
8
Layer 1
10
81.503002
20
156.095513
11
86.513858
21
156.694804
0
LINE
8
Layer 1
10
86.513858
20
156.694804
11
91.606238
21
157.128170
0
LINE
8
Layer 1
10
91.606238
20
157.128170
11
96.773750
21
157.391329
0
LINE
8
Layer 1
10
96.773750
20
157.391329
11
102.010000
21
157.480000
0
LINE
8
Layer 1
10
102.010000
20
157.480000
11
107.246231
21
157.391329
0
LINE
8
Layer 1
10
107.246231
20
157.391329
11
112.413725
21
157.128170
0
LINE
8
Layer 1
10
112.413725
20
157.128170
11
117.506089
21
156.694804
0
LINE
8
Layer 1
10
117.506089
20
156.694804
11
122.516928
21
156.095513
0
LINE
8
Layer 1
10
122.516928
20
156.095513
11
127.439849
21
155.334578
0
LINE
8
Layer 1
10
127.439849
20
155.334578
11
132.268459
21
154.416281
0
LINE
8
Layer 1
10
132.268459
20
154.416281
11
136.996365
21
153.344903
0
LINE
8
Layer 1
10
136.996365
20
153.344903
11
141.617172
21
152.124727
0
LINE
8
Layer 1
10
141.617172
20
152.124727
11
146.124487
21
150.760032
0
LINE
8
Layer 1
10
146.124487
20
150.760032
11
150.511918
21
149.255101
0
LINE
8
Layer 1
10
150.511918
20
149.255101
11
154.773069
21
147.614215
0
LINE
8
Layer 1
10
154.773069
20
147.614215
11
158.901549
21
145.841655
0
LINE
8
Layer 1
10
158.901549
20
145.841655
11
162.890963
21
143.941704
0
LINE
8
Layer 1
10
162.890963
20
143.941704
11
166.734917
21
141.918642
0
LINE
8
Layer 1
10
166.734917
20
141.918642
11
170.427019
21
139.776751
0
LINE
8
Layer 1
10
170.427019
20
139.776751
11
173.960875
21
137.520312
0
LINE
8
Layer 1
10
173.960875
20
137.520312
11
177.330091
21
135.153608
0
LINE
8
Layer 1
10
177.330091
20
135.153608
11
180.528274
21
132.680919
0
LINE
8
Layer 1
10
180.528274
20
132.680919
11
183.549031
21
130.106526
0
LINE
8
Layer 1
10
183.549031
20
130.106526
11
186.385967
21
127.434712
0
LINE
8
Layer 1
10
186.385967
20
127.434712
11
189.032689
21
124.669757
0
LINE
8
Layer 1
10
189.032689
20
124.669757
11
191.482805
21
121.815944
0
LINE
8
Layer 1
10
191.482805
20
121.815944
11
193.729920
21
118.877554
0
LINE
8
Layer 1
10
193.729920
20
118.877554
11
195.767641
21
115.858867
0
LINE
8
Layer 1
10
195.767641
20
115.858867
11
197.589574
21
112.764166
0
LINE
8
Layer 1
10
197.589574
20
112.764166
11
199.189326
21
109.597733
0
LINE
8
Layer 1
10
199.189326
20
109.597733
11
200.560503
21
106.363847
0
LINE
8
Layer 1
10
200.560503
20
106.363847
11
201.696713
21
103.066792
0
LINE
8
Layer 1
10
201.696713
20
103.066792
11
202.591561
21
99.710848
0
LINE
8
Layer 1
10
202.591561
20
99.710848
11
203.238654
21
96.300297
0
LINE
8
Layer 1
10
203.238654
20
96.300297
11
203.631598
21
92.839421
0
LINE
8
Layer 1
10
203.631598
20
92.839421
11
203.764000
21
89.332500
0
LINE
8
Layer 1
10
203.764000
20
89.332500
11
203.631598
21
85.825632
0
LINE
8
Layer 1
10
203.631598
20
85.825632
11
203.238654
21
82.364801
0
LINE
8
Layer 1
10
203.238654
20
82.364801
11
202.591561
21
78.954288
0
LINE
8
Layer 1
10
202.591561
20
78.954288
11
201.696713
21
75.598376
0
LINE
8
Layer 1
10
201.696713
20
75.598376
11
200.560503
21
72.301346
0
LINE
8
Layer 1
10
200.560503
20
72.301346
11
199.189326
21
69.067481
0
LINE
8
Layer 1
10
199.189326
20
69.067481
11
197.589574
21
65.901062
0
LINE
8
Layer 1
10
197.589574
20
65.901062
11
195.767641
21
62.806370
0
LINE
8
Layer 1
10
195.767641
20
62.806370
11
193.729920
21
59.787689
0
LINE
8
Layer 1
10
193.729920
20
59.787689
11
191.482805
21
56.849298
0
LINE
8
Layer 1
10
191.482805
20
56.849298
11
189.032689
21
53.995482
0
LINE
8
Layer 1
10
189.032689
20
53.995482
11
186.385967
21
51.230520
0
LINE
8
Layer 1
10
186.385967
20
51.230520
11
183.549031
21
48.558696
0
LINE
8
Layer 1
10
183.549031
20
48.558696
11
180.528274
21
45.984290
0
LINE
8
Layer 1
10
180.528274
20
45.984290
11
177.330091
21
43.511585
0
LINE
8
Layer 1
10
177.330091
20
43.511585
11
173.960875
21
41.144862
0
LINE
8
Layer 1
10
173.960875
20
41.144862
11
170.427019
21
38.888404
0
LINE
8
Layer 1
10
170.427019
20
38.888404
11
166.734917
21
36.746493
0
LINE
8
Layer 1
10
166.734917
20
36.746493
11
162.890963
21
34.723409
0
LINE
8
Layer 1
10
162.890963
20
34.723409
11
158.901549
21
32.823435
0
LINE
8
Layer 1
10
158.901549
20
32.823435
11
154.773069
21
31.050852
0
LINE
8
Layer 1
10
154.773069
20
31.050852
11
150.511918
21
29.409943
0
LINE
8
Layer 1
10
150.511918
20
29.409943
11
146.124487
21
27.904990
0
LINE
8
Layer 1
10
146.124487
20
27.904990
11
141.617172
21
26.540273
0
LINE
8
Layer 1
10
141.617172
20
26.540273
11
136.996365
21
25.320076
0
LINE
8
Layer 1
10
136.996365
20
25.320076
11
132.268459
21
24.248680
0
LINE
8
Layer 1
10
132.268459
20
24.248680
11
127.439849
21
23.330366
0
LINE
8
Layer 1
10
127.439849
20
23.330366
11
122.516928
21
22.569416
0
LINE
8
Layer 1
10
122.516928
20
22.569416
11
117.506089
21
21.970113
0
LINE
8
Layer 1
10
117.506089
20
21.970113
11
112.413725
21
21.536738
0
LINE
8
Layer 1
10
112.413725
20
21.536738
11
107.246231
21
21.273573
0
LINE
8
Layer 1
10
107.246231
20
21.273573
11
102.010000
21
21.184900
0
LINE
8
Layer 1
10
102.010000
20
21.184900
11
102.010000
21
21.184900
0
LINE
8
Layer 1
10
117.585000
20
130.837000
11
109.677266
21
130.596462
0
LINE
8
Layer 1
10
109.677266
20
130.596462
11
101.997957
21
129.890461
0
LINE
8
Layer 1
10
101.997957
20
129.890461
11
94.585950
21
128.742418
0
LINE
8
Layer 1
10
94.585950
20
128.742418
11
87.480122
21
127.175753
0
LINE
8
Layer 1
10
87.480122
20
127.175753
11
80.719348
21
125.213886
0
LINE
8
Layer 1
10
80.719348
20
125.213886
11
74.342507
21
122.880237
0
LINE
8
Layer 1
10
74.342507
20
122.880237
11
68.388473
21
120.198227
0
LINE
8
Layer 1
10
68.388473
20
120.198227
11
62.896125
21
117.191275
0
LINE
8
Layer 1
10
62.896125
20
117.191275
11
57.904338
21
113.882802
0
LINE
8
Layer 1
10
57.904338
20
113.882802
11
53.451990
21
110.296229
0
LINE
8
Layer 1
10
53.451990
20
110.296229
11
49.577957
21
106.454974
0
LINE
8
Layer 1
10
49.577957
20
106.454974
11
47.869958
21
104.446161
0
LINE
8
Layer 1
10
47.869958
20
104.446161
11
46.321116
21
102.382459
0
LINE
8
Layer 1
10
46.321116
20
102.382459
11
44.936291
21
100.266798
0
LINE
8
Layer 1
10
44.936291
20
100.266798
11
43.720343
21
98.102104
0
LINE
8
Layer 1
10
43.720343
20
98.102104
11
42.678131
21
95.891306
0
LINE
8
Layer 1
10
42.678131
20
95.891306
11
41.814514
21
93.637329
0
LINE
8
Layer 1
10
41.814514
20
93.637329
11
41.134354
21
91.343103
0
LINE
8
Layer 1
10
41.134354
20
91.343103
11
40.642508
21
89.011554
0
LINE
8
Layer 1
10
40.642508
20
89.011554
11
40.343837
21
86.645611
0
LINE
8
Layer 1
10
40.343837
20
86.645611
11
40.243200
21
84.248200
0
LINE
8
Layer 1
10
40.243200
20
84.248200
11
40.343837
21
81.850763
0
LINE
8
Layer 1
10
40.343837
20
81.850763
11
40.642508
21
79.484798
0
LINE
8
Layer 1
10
40.642508
20
79.484798
11
41.134354
21
77.153233
0
LINE
8
Layer 1
10
41.134354
20
77.153233
11
41.814514
21
74.858993
0
LINE
8
Layer 1
10
41.814514
20
74.858993
11
42.678131
21
72.605007
0
LINE
8
Layer 1
10
42.678131
20
72.605007
11
43.720343
21
70.394203
0
LINE
8
Layer 1
10
43.720343
20
70.394203
11
44.936291
21
68.229506
0
LINE
8
Layer 1
10
44.936291
20
68.229506
11
46.321116
21
66.113845
0
LINE
8
Layer 1
10
46.321116
20
66.113845
11
47.869958
21
64.050147
0
LINE
8
Layer 1
10
47.869958
20
64.050147
11
49.577957
21
62.041339
0
LINE
8
Layer 1
10
49.577957
20
62.041339
11
53.451990
21
58.200103
0
LINE
8
Layer 1
10
53.451990
20
58.200103
11
57.904338
21
54.613555
0
LINE
8
Layer 1
10
57.904338
20
54.613555
11
62.896125
21
51.305112
0
LINE
8
Layer 1
10
62.896125
20
51.305112
11
68.388473
21
48.298195
0
LINE
8
Layer 1
10
68.388473
20
48.298195
11
74.342507
21
45.616221
0
LINE
8
Layer 1
10
74.342507
20
45.616221
11
80.719348
21
43.282607
0
LINE
8
Layer 1
10
80.719348
20
43.282607
11
87.480122
21
41.320773
0
LINE
8
Layer 1
10
87.480122
20
41.320773
11
94.585950
21
39.754138
0
LINE
8
Layer 1
10
94.585950
20
39.754138
11
101.997957
21
38.606118
0
LINE
8
Layer 1
10
101.997957
20
38.606118
11
109.677266
21
37.900132
0
LINE
8
Layer 1
10
109.677266
20
37.900132
11
117.585000
21
37.659600
0
LINE
8
Layer 1
10
117.585000
20
37.659600
11
125.457943
21
37.827644
0
LINE
8
Layer 1
10
125.457943
20
37.827644
11
133.038791
21
38.335493
0
LINE
8
Layer 1
10
133.038791
20
38.335493
11
140.297763
21
39.188724
0
LINE
8
Layer 1
10
140.297763
20
39.188724
11
147.205078
21
40.392916
0
LINE
8
Layer 1
10
147.205078
20
40.392916
11
153.730953
21
41.953644
0
LINE
8
Layer 1
10
153.730953
20
41.953644
11
159.845607
21
43.876487
0
LINE
8
Layer 1
10
159.845607
20
43.876487
11
165.519259
21
46.167022
0
LINE
8
Layer 1
10
165.519259
20
46.167022
11
170.722125
21
48.830825
0
LINE
8
Layer 1
10
170.722125
20
48.830825
11
173.137707
21
50.304445
0
LINE
8
Layer 1
10
173.137707
20
50.304445
11
175.424425
21
51.873474
0
LINE
8
Layer 1
10
175.424425
20
51.873474
11
177.578556
21
53.538609
0
LINE
8
Layer 1
10
177.578556
20
53.538609
11
179.596377
21
55.300547
0
LINE
8
Layer 1
10
179.596377
20
55.300547
11
181.474166
21
57.159985
0
LINE
8
Layer 1
10
181.474166
20
57.159985
11
183.208199
21
59.117621
0
LINE
8
Layer 1
10
183.208199
20
59.117621
11
184.794754
21
61.174150
0
LINE
8
Layer 1
10
184.794754
20
61.174150
11
186.230109
21
63.330272
0
LINE
8
Layer 1
10
186.230109
20
63.330272
11
187.510541
21
65.586682
0
LINE
8
Layer 1
10
187.510541
20
65.586682
11
188.632326
21
67.944078
0
LINE
8
Layer 1
10
188.632326
20
67.944078
11
189.591743
21
70.403157
0
LINE
8
Layer 1
10
189.591743
20
70.403157
11
190.385068
21
72.964617
0
LINE
8
Layer 1
10
190.385068
20
72.964617
11
191.008579
21
75.629154
0
LINE
8
Layer 1
10
191.008579
20
75.629154
11
191.458553
21
78.397465
0
LINE
8
Layer 1
10
191.458553
20
78.397465
11
191.731268
21
81.270248
0
LINE
8
Layer 1
10
191.731268
20
81.270248
11
191.823000
21
84.248200
0
LINE
8
Layer 1
10
191.823000
20
84.248200
11
191.731268
21
87.225237
0
LINE
8
Layer 1
10
191.731268
20
87.225237
11
191.458553
21
90.097223
0
LINE
8
Layer 1
10
191.458553
20
90.097223
11
191.008579
21
92.864849
0
LINE
8
Layer 1
10
191.008579
20
92.864849
11
190.385068
21
95.528806
0
LINE
8
Layer 1
10
190.385068
20
95.528806
11
189.591743
21
98.089785
0
LINE
8
Layer 1
10
189.591743
20
98.089785
11
188.632326
21
100.548478
0
LINE
8
Layer 1
10
188.632326
20
100.548478
11
187.510541
21
102.905577
0
LINE
8
Layer 1
10
187.510541
20
102.905577
11
186.230109
21
105.161772
0
LINE
8
Layer 1
10
186.230109
20
105.161772
11
184.794754
21
107.317755
0
LINE
8
Layer 1
10
184.794754
20
107.317755
11
183.208199
21
109.374217
0
LINE
8
Layer 1
10
183.208199
20
109.374217
11
181.474166
21
111.331850
0
LINE
8
Layer 1
10
181.474166
20
111.331850
11
179.596377
21
113.191346
0
LINE
8
Layer 1
10
179.596377
20
113.191346
11
177.578556
21
114.953394
0
LINE
8
Layer 1
10
177.578556
20
114.953394
11
175.424425
21
116.618688
0
LINE
8
Layer 1
10
175.424425
20
116.618688
11
173.137707
21
118.187918
0
LINE
8
Layer 1
10
173.137707
20
118.187918
11
170.722125
21
119.661775
0
LINE
8
Layer 1
10
170.722125
20
119.661775
11
165.519259
21
122.326138
0
LINE
8
Layer 1
10
165.519259
20
122.326138
11
159.845607
21
124.617307
0
LINE
8
Layer 1
10
159.845607
20
124.617307
11
153.730953
21
126.540815
0
LINE
8
Layer 1
10
153.730953
20
126.540815
11
147.205078
21
128.102191
0
LINE
8
Layer 1
10
147.205078
20
128.102191
11
140.297763
21
129.306966
0
LINE
8
Layer 1
10
140.297763
20
129.306966
11
133.038791
21
130.160672
0
LINE
8
Layer 1
10
133.038791
20
130.160672
11
125.457943
21
130.668840
0
LINE
8
Layer 1
10
125.457943
20
130.668840
11
117.585000
21
130.837000
0
LINE
8
Layer 1
10
117.585000
20
130.837000
11
117.585000
21
130.837000
0
LINE
8
Layer 2
10
155.222000
20
51.929300
11
158.748576
21
50.773777
0
LINE
8
Layer 2
10
158.748576
20
50.773777
11
161.927834
21
49.597462
0
LINE
8
Layer 2
10
161.927834
20
49.597462
11
164.958660
21
48.260410
0
LINE
8
Layer 2
10
164.958660
20
48.260410
11
167.312638
21
46.878155
0
LINE
8
Layer 2
10
167.312638
20
46.878155
11
168.646776
21
45.889874
0
LINE
8
Layer 2
10
168.646776
20
45.889874
11
169.897540
21
44.732630
0
LINE
8
Layer 2
10
169.897540
20
44.732630
11
170.890636
21
43.545429
0
LINE
8
Layer 2
10
170.890636
20
43.545429
11
171.595601
21
42.505336
0
LINE
8
Layer 2
10
171.595601
20
42.505336
11
172.155320
21
41.487080
0
LINE
8
Layer 2
10
172.155320
20
41.487080
11
196.427000
21
0.564902
0
LINE
8
Layer 2
10
196.427000
20
0.564902
11
157.198000
21
0.547404
0
LINE
8
Layer 2
10
157.198000
20
0.547404
11
138.853000
21
34.996000
0
LINE
8
Layer 2
10
138.853000
20
34.996000
11
136.685890
21
38.456992
0
LINE
8
Layer 2
10
136.685890
20
38.456992
11
134.708441
21
41.231178
0
LINE
8
Layer 2
10
134.708441
20
41.231178
11
133.709579
21
42.426509
0
LINE
8
Layer 2
10
133.709579
20
42.426509
11
132.785230
21
43.321550
0
LINE
8
Layer 2
10
132.785230
20
43.321550
11
131.512282
21
44.310812
0
LINE
8
Layer 2
10
131.512282
20
44.310812
11
130.448751
21
44.965244
0
LINE
8
Layer 2
10
130.448751
20
44.965244
11
129.389295
21
45.326993
0
LINE
8
Layer 2
10
129.389295
20
45.326993
11
128.128570
21
45.438210
0
LINE
8
Layer 2
10
128.128570
20
45.438210
11
118.807910
21
45.438210
0
LINE
8
Layer 2
10
118.807910
20
45.438210
11
118.815000
21
0.572240
0
LINE
8
Layer 2
10
118.815000
20
0.572240
11
84.102200
21
0.557564
0
LINE
8
Layer 2
10
84.102200
20
0.557564
11
84.102200
21
115.165000
0
LINE
8
Layer 2
10
84.102200
20
115.165000
11
153.811000
21
115.165000
0
LINE
8
Layer 2
10
153.811000
20
115.165000
11
155.175258
21
115.081397
0
LINE
8
Layer 2
10
155.175258
20
115.081397
11
158.771938
21
114.603541
0
LINE
8
Layer 2
10
158.771938
20
114.603541
11
161.174892
21
114.110342
0
LINE
8
Layer 2
10
161.174892
20
114.110342
11
163.856898
21
113.390866
0
LINE
8
Layer 2
10
163.856898
20
113.390866
11
166.724940
21
112.402543
0
LINE
8
Layer 2
10
166.724940
20
112.402543
11
169.686000
21
111.102802
0
LINE
8
Layer 2
10
169.686000
20
111.102802
11
172.647060
21
109.449072
0
LINE
8
Layer 2
10
172.647060
20
109.449072
11
175.515102
21
107.398782
0
LINE
8
Layer 2
10
175.515102
20
107.398782
11
178.197108
21
104.909360
0
LINE
8
Layer 2
10
178.197108
20
104.909360
11
180.600063
21
101.938237
0
LINE
8
Layer 2
10
180.600063
20
101.938237
11
181.667827
21
100.258733
0
LINE
8
Layer 2
10
181.667827
20
100.258733
11
182.630946
21
98.442840
0
LINE
8
Layer 2
10
182.630946
20
98.442840
11
183.477794
21
96.485236
0
LINE
8
Layer 2
10
183.477794
20
96.485236
11
184.196742
21
94.380599
0
LINE
8
Layer 2
10
184.196742
20
94.380599
11
184.776164
21
92.123608
0
LINE
8
Layer 2
10
184.776164
20
92.123608
11
185.204433
21
89.708943
0
LINE
8
Layer 2
10
185.204433
20
89.708943
11
185.469920
21
87.131280
0
LINE
8
Layer 2
10
185.469920
20
87.131280
11
185.561000
21
84.385300
0
LINE
8
Layer 2
10
185.561000
20
84.385300
11
185.473968
21
81.634510
0
LINE
8
Layer 2
10
185.473968
20
81.634510
11
185.220280
21
79.042833
0
LINE
8
Layer 2
10
185.220280
20
79.042833
11
184.811046
21
76.605561
0
LINE
8
Layer 2
10
184.811046
20
76.605561
11
184.257375
21
74.317986
0
LINE
8
Layer 2
10
184.257375
20
74.317986
11
183.570380
21
72.175401
0
LINE
8
Layer 2
10
183.570380
20
72.175401
11
182.761170
21
70.173098
0
LINE
8
Layer 2
10
182.761170
20
70.173098
11
181.840855
21
68.306370
0
LINE
8
Layer 2
10
181.840855
20
68.306370
11
180.820547
21
66.570508
0
LINE
8
Layer 2
10
180.820547
20
66.570508
11
178.524390
21
63.472553
0
LINE
8
Layer 2
10
178.524390
20
63.472553
11
175.961582
21
60.841572
0
LINE
8
Layer 2
10
175.961582
20
60.841572
11
173.221008
21
58.639904
0
LINE
8
Layer 2
10
173.221008
20
58.639904
11
170.391550
21
56.829887
0
LINE
8
Layer 2
10
170.391550
20
56.829887
11
167.562092
21
55.373860
0
LINE
8
Layer 2
10
167.562092
20
55.373860
11
164.821518
21
54.234160
0
LINE
8
Layer 2
10
164.821518
20
54.234160
11
162.258710
21
53.373127
0
LINE
8
Layer 2
10
162.258710
20
53.373127
11
159.962553
21
52.753098
0
LINE
8
Layer 2
10
159.962553
20
52.753098
11
156.525725
21
52.085409
0
LINE
8
Layer 2
10
156.525725
20
52.085409
11
155.222100
21
51.929800
0
LINE
8
Layer 2
10
155.222100
20
51.929800
11
155.222000
21
51.929300
0
LINE
8
Layer 2
10
140.123100
20
90.304700
11
119.108000
21
90.318247
0
LINE
8
Layer 2
10
119.108000
20
90.318247
11
119.097558
21
70.830847
0
LINE
8
Layer 2
10
119.097558
20
70.830847
11
140.123058
21
70.837620
0
LINE
8
Layer 2
10
140.123058
20
70.837620
11
141.644411
21
70.996758
0
LINE
8
Layer 2
10
141.644411
20
70.996758
11
143.203798
21
71.368341
0
LINE
8
Layer 2
10
143.203798
20
71.368341
11
144.991388
21
72.088075
0
LINE
8
Layer 2
10
144.991388
20
72.088075
11
146.778978
21
73.271069
0
LINE
8
Layer 2
10
146.778978
20
73.271069
11
147.601459
21
74.072258
0
LINE
8
Layer 2
10
147.601459
20
74.072258
11
148.338365
21
75.032428
0
LINE
8
Layer 2
10
148.338365
20
75.032428
11
148.961169
21
76.165965
0
LINE
8
Layer 2
10
148.961169
20
76.165965
11
149.441346
21
77.487259
0
LINE
8
Layer 2
10
149.441346
20
77.487259
11
149.750371
21
79.010698
0
LINE
8
Layer 2
10
149.750371
20
79.010698
11
149.859718
21
80.750670
0
LINE
8
Layer 2
10
149.859718
20
80.750670
11
149.750371
21
82.519347
0
LINE
8
Layer 2
10
149.750371
20
82.519347
11
149.441346
21
84.055689
0
LINE
8
Layer 2
10
149.441346
20
84.055689
11
148.961169
21
85.376011
0
LINE
8
Layer 2
10
148.961169
20
85.376011
11
148.338365
21
86.496625
0
LINE
8
Layer 2
10
148.338365
20
86.496625
11
147.601459
21
87.433844
0
LINE
8
Layer 2
10
147.601459
20
87.433844
11
146.778978
21
88.203981
0
LINE
8
Layer 2
10
146.778978
20
88.203981
11
144.991388
21
89.308263
0
LINE
8
Layer 2
10
144.991388
20
89.308263
11
143.203798
21
89.939974
0
LINE
8
Layer 2
10
143.203798
20
89.939974
11
141.644411
21
90.229619
0
LINE
8
Layer 2
10
141.644411
20
90.229619
11
140.123058
21
90.304730
0
LINE
8
Layer 2
10
140.123058
20
90.304730
11
140.123100
21
90.304700
 0 
ENDSEC
 0 
EOF